SplineFontDB: 3.2
FontName: UFSZeroExt-Regular
FullName: UFSZeroExt
FamilyName: UFSZeroExt
Weight: Regular
Copyright: Copyrightc2025byLosketch.Allrightsreserved.
Version: 3.178
ItalicAngle: 0
UnderlinePosition: -62
UnderlineWidth: 25
Ascent: 800
Descent: 200
InvalidEm: 0
sfntRevision: 0x00032d91
LayerCount: 2
Layer: 0 0 "+BBcEMAQ0BD0EOAQ5 +BD8EOwQwBD0A" 1
Layer: 1 0 "+BB8ENQRABDUENAQ9BDgEOQAA +BD8EOwQwBD0A" 0
XUID: [1021 59 1751208496 28043]
StyleMap: 0x0040
FSType: 0
OS2Version: 4
OS2_WeightWidthSlopeOnly: 1
OS2_UseTypoMetrics: 0
CreationTime: 1752977242
ModificationTime: 1754290979
PfmFamily: 17
TTFWeight: 400
TTFWidth: 5
LineGap: 0
VLineGap: 0
Panose: 2 1 5 0 6 1 1 1 1 1
OS2TypoAscent: 1371
OS2TypoAOffset: 0
OS2TypoDescent: -500
OS2TypoDOffset: 0
OS2TypoLinegap: 0
OS2WinAscent: 1371
OS2WinAOffset: 0
OS2WinDescent: 500
OS2WinDOffset: 0
HheadAscent: 1371
HheadAOffset: 0
HheadDescent: -500
HheadDOffset: 0
OS2SubXSize: 700
OS2SubYSize: 650
OS2SubXOff: 0
OS2SubYOff: 150
OS2SupXSize: 700
OS2SupYSize: 650
OS2SupXOff: 0
OS2SupYOff: 450
OS2StrikeYSize: 50
OS2StrikeYPos: 272
OS2CapHeight: 700
OS2XHeight: 500
OS2Vendor: 'LOSK'
OS2CodePages: 00020001.00000000
OS2UnicodeRanges: 00000000.82000000.00000000.00000000
DEI: 91125
LangName: 1033 "Copyright (c) 2025 by Losketch. All rights reserved." "UFSZero Ext" "" "UFSZero Ext Regular:Version 3.178" "UFSZero Ext" "Version 3.178;July 31, 2025;FontCreator 15.0.0.3017 64-bit" "" "UFSet is a trademark of Losketch." "Losketch" "Losketch" "" "https://github.com/Losketch" "https://github.com/Losketch" "This Font Software is licensed under the SIL Open Font License, Version 1.1. This Font Software is distributed on an +ACIA-AS IS+ACIA BASIS, WITHOUT WARRANTIES OR CONDITIONS OF ANY KIND, either express or implied. See the SIL Open Font License for the specific language, permissions and limitations governing your use of this Font Software." "https://scripts.sil.org/OFL" "" "" "" "" "++8z70gAA"
GaspTable: 3 8 10 17 5 65535 15 1

StartChar: .notdef
Encoding: 1114112 -1 0
Width: 1000
GlyphClass: 1
Flags: W
HStem: 615 7<677.664 721> 680 148<704 809.238>
VStem: 303 22<265 279.286> 520 122<660.5 729>
LayerCount: 2
Fore
SplineSet
478 183 m 1
 511 183 l 1
 528 201 543 219 556 239 c 1
 478 239 l 1
 478 183 l 1
701 80 m 1
 730 49 771 22 823 0 c 1
 792 -19 774 -33 768 -41 c 1
 725 -20 690 5 663 35 c 1
 631 4 590 -22 541 -42 c 1
 536 -36 516 -23 481 -4 c 1
 507 6 l 1
 399 6 l 1
 399 -22 l 1
 342 -22 l 1
 342 183 l 1
 417 183 l 1
 417 239 l 1
 325 239 l 1
 325 294 l 1
 417 294 l 1
 417 373 l 1
 478 373 l 1
 478 294 l 1
 566 294 l 1
 566 255 l 1
 588 292 603 333 611 378 c 1
 670 372 l 1
 664 345 656 319 648 295 c 1
 798 295 l 1
 798 241 l 1
 764 241 l 1
 751 177 730 124 701 80 c 1
552 27 m 1
 583 43 609 62 629 82 c 0
 627 85 622 95 614 111 c 0
 606 128 597 151 588 182 c 1
 579 169 569 157 558 146 c 1
 556 148 554 150 552 152 c 1
 552 27 l 1
707 241 m 1
 626 241 l 1
 634 203 647 166 666 130 c 1
 685 162 699 199 707 241 c 1
495 130 m 1
 399 130 l 1
 399 60 l 1
 495 60 l 1
 495 130 l 1
364 365 m 1
 345 328 325 295 303 265 c 1
 303 -42 l 1
 244 -42 l 1
 244 194 l 1
 225 176 206 158 185 143 c 1
 179 154 165 169 143 190 c 1
 215 244 268 306 302 376 c 1
 364 365 l 1
315 587 m 1
 284 602 235 620 168 642 c 1
 218 685 l 1
 239 679 262 672 288 662 c 0
 313 654 338 643 362 632 c 1
 315 587 l 1
345 701 m 1
 315 716 266 736 199 760 c 1
 252 802 l 1
 295 787 343 769 394 746 c 1
 345 701 l 1
670 558 m 1
 496 558 l 1
 514 538 542 519 582 501 c 1
 618 517 647 536 670 558 c 1
461 792 m 1
 704 792 l 1
 704 683 l 2
 704 682 705 681 706 680 c 0
 708 680 710 680 712 680 c 0
 761 680 794 681 810 683 c 1
 810 680 810 676 811 673 c 0
 812 660 815 644 819 626 c 1
 802 623 765 622 708 622 c 0
 683 622 665 627 656 637 c 0
 647 647 642 663 642 685 c 2
 642 734 l 1
 520 734 l 1
 520 729 l 2
 520 717 518 705 514 692 c 0
 511 680 504 668 495 656 c 0
 486 645 473 634 456 623 c 2
 443 615 l 1
 706 615 l 1
 721 616 l 1
 731 617 l 1
 778 604 l 1
 747 550 705 507 653 474 c 1
 707 457 773 444 851 434 c 1
 810 407 787 389 784 381 c 1
 707 391 640 409 582 437 c 1
 517 410 447 391 371 381 c 1
 368 386 363 393 356 400 c 0
 348 408 335 419 317 434 c 1
 391 443 457 457 515 476 c 1
 481 499 451 527 425 558 c 1
 393 558 l 1
 393 601 l 1
 392 607 l 2
 392 624 387 639 377 652 c 1
 416 664 439 676 448 687 c 0
 457 698 461 711 461 725 c 2
 461 792 l 1
383 548 m 1
 337 484 294 431 254 388 c 1
 193 418 l 1
 246 471 292 524 332 577 c 1
 383 548 l 1
949 828 m 1
 51 828 l 1
 51 -69 l 1
 949 -69 l 1
 949 828 l 1
EndSplineSet
EndChar

StartChar: uni0558
Encoding: 1368 1368 1
Width: 517
GlyphClass: 1
Flags: W
HStem: 13 68<157 279.803> 225 88<230.109 479>
VStem: 294 103<-121.798 0.463181>
LayerCount: 2
Fore
SplineSet
188 -234 m 0
 174 -234 163 -233 155 -230 c 1
 161 -190 l 1
 168 -187 178 -184 190 -182 c 0
 260 -154 294 -110 294 -49 c 0
 294 -45 294 -40 293 -36 c 0
 286 -4 265 13 231 13 c 2
 52 13 l 1
 202 557 l 1
 307 557 l 1
 230.109243697 313 l 1
 479 313 l 1
 479 225 l 1
 202.378151261 225 l 1
 157 81 l 1
 234 81 l 2
 279 81 317 68 348 42 c 0
 379 15 396 -17 397 -57 c 0
 397 -84 391 -111 378 -139 c 1
 335 -202 271 -234 188 -234 c 0
EndSplineSet
EndChar

StartChar: uni058B
Encoding: 1419 1419 2
Width: 517
GlyphClass: 1
Flags: W
HStem: -286 34<134.75 238>
VStem: 23 110<-248.397 -165.787>
LayerCount: 2
Fore
SplineSet
302 314 m 1
 518 325 l 1
 418 -10 l 1
 311 -6 l 1
 390 230 l 1
 271 222 l 1
 179 -74 133 -224 133 -227 c 0
 133 -242 147 -250 177 -252 c 2
 238 -254 l 1
 238 -286 l 1
 77 -281 l 2
 41 -279 23 -265 23 -239 c 0
 23 -231 104 31 267 547 c 1
 374 543 l 1
 302 314 l 1
EndSplineSet
EndChar

StartChar: uni058C
Encoding: 1420 1420 3
Width: 400
GlyphClass: 1
Flags: W
HStem: -279 44<81.4538 153.935>
VStem: 16 113<-211.296 -137.563>
LayerCount: 2
Fore
SplineSet
28 -137 m 0
 41 -120 58 -111 79 -111 c 0
 89 -111 99 -114 107 -121 c 0
 121 -131 129 -146 129 -165 c 0
 129 -178 125 -190 117 -201 c 0
 107.024120219 -214.81275662 95.2816455723 -222.736863689 80.8688151375 -225.676082131 c 1
 83 -227 l 2
 91 -232 101 -235 113 -235 c 0
 125 -235 138 -230 151 -220 c 0
 164 -209 170 -196 170 -179 c 0
 170 -168 167 -151 161 -130 c 0
 158 -122 157 -111 157 -99 c 0
 157 -74 162 -45 171 -13 c 2
 278 291 l 1
 401 295 l 1
 246 -180 l 2
 245 -183 241 -190 235 -201 c 0
 228 -212 220 -225 210 -240 c 0
 193 -266 171 -279 144 -279 c 0
 120 -279 100 -274 82 -266 c 0
 39.5478693278 -250.203858355 17.5640195484 -223.686236241 17.0107116839 -187.409395169 c 0
 16.3369042137 -183.534693095 16.0000004786 -179.387669306 16 -175 c 0
 16 -161 20 -149 28 -137 c 0
EndSplineSet
EndChar

StartChar: uni088F
Encoding: 2191 2191 4
Width: 586
GlyphClass: 1
Flags: W
HStem: -254 69<184.016 399.981> 148 51<249.975 316.025> 277 49<250.46 315.54>
VStem: 47 69<-125.801 50.1902> 194 48<206.908 269.052> 324 48<206.908 269.052> 488 68<-102.013 93.0165>
LayerCount: 2
Fore
SplineSet
254 210 m 0
 262 203 272 199 283 199 c 0
 294 199 304 203 312 210 c 0
 320 217 324 226 324 237 c 0
 324 248 320 258 312 266 c 0
 304 273 294 277 283 277 c 0
 272 277 262 273 254 266 c 0
 246 258 242 248 242 237 c 0
 242 226 246 217 254 210 c 0
346 174 m 0
 329 157 308 148 283 148 c 0
 258 148 237 157 220 174 c 0
 203 191 194 212 194 237 c 0
 194 262 203 283 220 300 c 0
 237 317 258 326 283 326 c 0
 308 326 329 317 346 300 c 0
 363 283 372 262 372 237 c 0
 372 212 363 191 346 174 c 0
80 -171 m 0
 58 -142 47 -106 47 -61 c 0
 47 -41 50 -19 55 6 c 0
 61 31 70 58 82 88 c 1
 143 64 l 1
 134 41 127 19 123 -1 c 0
 118 -20 116 -39 116 -55 c 0
 116 -85 124 -109 139 -128 c 0
 154 -147 175 -161 201 -171 c 0
 227 -180 257 -185 290 -185 c 0
 328 -185 359 -180 385 -170 c 0
 410 -160 431 -146 446 -130 c 0
 461 -113 472 -95 478 -75 c 0
 485 -55 488 -35 488 -15 c 0
 488 6 484 32 476 62 c 0
 468 93 453 130 431 175 c 1
 494 207 l 1
 510 175 525 141 537 105 c 0
 550 69 556 32 556 -6 c 0
 556 -33 552 -61 544 -90 c 0
 535 -119 521 -146 501 -171 c 0
 480 -195 453 -215 419 -231 c 0
 384 -246 341 -254 289 -254 c 0
 246 -254 205 -247 169 -234 c 0
 132 -220 102 -199 80 -171 c 0
EndSplineSet
EndChar

StartChar: uni0897
Encoding: 2199 2199 5
Width: 0
GlyphClass: 1
Flags: W
HStem: 766 89<19.2266 74.418> 834 90<-73.2043 -37.6191>
LayerCount: 2
Fore
SplineSet
63 780 m 0x80
 48 771 36 766 26 766 c 0x80
 17 766 8 769 -2 777 c 0
 -11 785 -21 794 -31 805 c 0
 -40 815 -51 825 -61 834 c 1x40
 -67 834 -77 830 -93 822 c 0
 -110 814 -128 802 -149 787 c 0
 -171 772 -192 755 -214 735 c 0
 -216 734 -217 736 -217 743 c 0
 -217 750 -216 758 -215 766 c 0x80
 -214 775 -212 781 -209 784 c 0
 -200 795 -187 808 -171 823 c 0
 -154 839 -136 854 -117 870 c 0
 -98 885 -80 898 -64 908 c 0
 -47 919 -34 924 -25 924 c 1x40
 -9 908 6 893 18 878 c 0
 31 863 44 855 58 855 c 0
 66 855 84 864 112 883 c 0
 140 901 169 925 201 954 c 0
 203 956 204 953 204 945 c 0
 204 938 204 929 203 919 c 0
 201 909 199 902 196 898 c 0
 187 888 175 876 160 861 c 0
 145 846 129 832 112 817 c 0
 95 802 78 790 63 780 c 0x80
EndSplineSet
EndChar

StartChar: uniFBC3
Encoding: 64451 64451 7
Width: 1301
GlyphClass: 1
Flags: W
HStem: 52 49<545.132 711.95> 80 59<1012.1 1067.9> 99 48<253.542 331.872> 187 49.0005<829.478 1008.1> 230 47<310.415 398.542> 284 43<1121.35 1197> 351 48<917.546 1066.4> 387 48<320.13 388.515> 444 49<370.946 573.999 574 763.071 812.219 872.942 873 971.006> 451 47<112 159.967> 536 43<494.789 535.69> 562 41<583.014 623.273> 659 49<978.27 1087.35>
VStem: 259 47<283.191 373.899> 302 49<692.5 871> 310 53<589.791 743.5> 407 47<279.24 368.154> 454 40<579.454 642> 459 48<137.999 281.832> 542 38<611.281 665> 626 42<612.282 687.579> 756 49<495.923 784> 764.262 47.957<252.852 444 493 572.663> 913 49<546.062 641.788> 1011 58<80.914 138.02>
LayerCount: 2
Fore
SplineSet
1045 781 m 1x04081980
 866 729 l 1
 866 774 l 1
 1045 827 l 1
 1045 781 l 1x04081980
739 331 m 1
 560 279 l 1
 560 324 l 1
 739 377 l 1
 739 331 l 1
636 754 m 1
 460 702 l 1
 460 747 l 1
 636 798 l 1
 636 754 l 1
545 547 m 0
 534 540 522 536 507 536 c 0x04283980
 486 536 472 543 465 557 c 0
 458 571 454 586 454 602 c 0
 454 608 455 614 456 620 c 0
 457 626 458 634 460 642 c 1
 499 654 l 1
 496 635 494 621 494 609 c 0
 494 589 501 579 514 579 c 0x04285980
 522 579 529 583 534 591 c 0
 539 599 542 616 542 641 c 2
 542 665 l 1
 580 679 l 1
 580 631 l 2
 580 623 582 617 585 611 c 0
 588 606 594 603 603 603 c 0
 613 603 619 606 622 612 c 0
 625 618 626 625 626 634 c 0
 626 643 625 652 623 662 c 0
 622 671 619 679 615 688 c 1
 651 700 l 1
 655 689 660 678 663 665 c 0
 666 653 668 641 668 631 c 0
 668 612 663 596 654 583 c 0
 644 569 629 562 609 562 c 0x04185980
 592 562 578 567 568 576 c 1
 563 564 555 554 545 547 c 0
306 318 m 0x0d0c9980
 306 293 320 277 359 277 c 0
 375 277 393 280 407 284 c 0
 407 287 407 290 407 293 c 0
 407 342 387 387 354 387 c 0
 326 387 306 350 306 318 c 0x0d0c9980
255 99 m 1x2d0c9980
 245 147 l 1
 320 157 378 176 399 236 c 1
 385 232 369 230 353 230 c 0
 293 230 259 255 259 306 c 0
 259 366 298 435 359 435 c 0
 422 435 454 364 454 289 c 0
 454 178 386 113 255 99 c 1x2d0c9980
459 190 m 0x96883b80
 459 218 466 253 484 295 c 1
 526 278 l 1
 514 245 507 218 507 194 c 0
 507 133 562 101 621 101 c 0
 737 101 772 169 769 249 c 2
 764.261682243 444 l 1
 717 444 l 1
 716 444 l 1
 568 444 l 1
 432 444 l 1
 419 444 l 1
 419.025891001 444.211443174 l 1
 346.2429121 446.681162771 322.621370458 470.866766534 316 521 c 1
 278 455 212 444 161 444 c 0x96883b80
 139 444 114 449 105 451 c 1
 112 498 l 1
 183.10136951 488.032518293 245.371566435 495.727381756 280.325435025 542.797313015 c 1
 249.259176163 593.244379516 185.817090502 670.122189758 100 747 c 1
 132 780 l 1
 216.292214697 700.524483286 269.005862911 636.516019543 302.04026982 589.009332699 c 1
 306.625696067 605.652062218 309.363537149 624.882915938 310 647 c 2x04493b80
 302 871 l 1
 351 871 l 1x044a1980
 363 565 l 2
 365 507 370 493 438 493 c 2
 573 493 l 2
 573.336459569 493 573.669381481 492.996462342 573.998691343 492.989312635 c 1
 573.998691343 492.99287509 574 492.996437545 574 493 c 1
 722 493 l 1
 763.071028037 493 l 1
 756 784 l 1
 805 784 l 1x04891d80
 811.178343949 493 l 1
 870 493 l 2
 871.02970039 493 872.02626694 492.96686616 872.987567279 492.898466108 c 2
 873 493 l 1
 948 493 966 495 974 496 c 1
 953 508 913 539 913 595 c 0
 913 662 965 708 1036 708 c 0
 1054 708 1076 704 1095 698 c 1
 1085 653 l 1
 1068 657 1050 659 1036 659 c 0
 992 659 962 634 962 595 c 0
 962 543 1024 513 1058 514 c 1
 1077 520 1086 521 1131 542 c 1
 1148 499 l 1
 1068 466 991 444 867 444 c 1
 867 444.021705034 867.007973278 444.043410067 867.007973278 444.065115101 c 1
 866.352841419 444.021913125 865.683725085 444 865 444 c 2
 812.218683652 444 l 1
 815 313 l 2
 815.996759828 252.197650502 843.818833824 236.104157952 880.640624972 236.000506787 c 0
 962.406206745 236.130351932 1040.16668788 261.114596058 1104 305 c 1
 1073 333 1027 351 973 351 c 0
 954 351 941 349 920 344 c 1
 910 389 l 1
 932 396 953 399 973 399 c 0
 1077 399 1122 327 1184 327 c 2
 1197 327 l 1
 1201 284 l 1
 1099 284 1060 187 875 187 c 0
 845 187 828 197 816 211 c 1
 806 132 756 52 618 52 c 0
 535 52 459 103 459 190 c 0x96883b80
1040 80 m 0x44081980
 1024 80 1011 93 1011 109 c 0
 1011 125 1024 139 1040 139 c 0
 1056 139 1069 125 1069 109 c 0
 1069 93 1056 80 1040 80 c 0x44081980
EndSplineSet
EndChar

StartChar: uniFBC4
Encoding: 64452 64452 8
Width: 1502
GlyphClass: 1
Flags: W
HStem: 2 43<999.233 1033.34> 25 56<1255.74 1310.31> 67 46<447.694 1008.24> 130 47<1182.05 1299.32> 305 46<244.529 323.964> 313 46<436.008 617.207 757.472 828> 446 42<1203.5 1346.16> 469 51<223.527 298.777> 576 46<243.317 539.677> 585 46<697.562 814.595 879.458 985.084> 744 46<899.893 971.376> 773 56<359.914 414.155 437.848 492.09> 830 56<716.91 771.152 794.848 848.155>
VStem: 100 46<165.932 384.707> 167 46<650.065 772.732> 359 56<773.845 828.086> 382 47<367.305 543> 394 46<121.898 313 367.305 469.794> 437 56<773.687 828.257> 628 37<372.48 393.892> 653 41<639.877 648> 697 34<231 290.691> 716 56<830.687 885.257> 794 55<830.687 885.257> 990 40<639.727 723.831> 1014 42<124.257 201.642> 1094 46<547.545 804> 1105 46<401 657.455> 1183 41<677 816> 1255 56<25.9102 80.0898> 1304 43<183.355 313.392>
LayerCount: 2
Fore
SplineSet
731 198 m 1x150e9508
 699 168 l 1
 682 180 668 195 657 214 c 0
 646 233 637 252 631 273 c 0
 625 294 621 314 620 332 c 1
 609 319 589 313 561 313 c 2
 436.008310249 313 l 1
 440 182 l 2
 442 126 447 113 512 113 c 2
 640 113 l 1
 787 113 l 1
 788 113 l 1
 864 113 l 1
 917 113 l 2
 1005 113 1014 134 1014 153 c 0
 1014 171 1004 195 964 235 c 0
 921 278 874 307 874 317 c 0
 874 334 878 351 886 359 c 0x350e5548
 916 391 981 420 1077 469 c 1
 1097 427 l 1
 994 378 956 358 920 333 c 1
 1008 261 1056 209 1056 150 c 0
 1056 117 1042 66 909 66 c 2
 858 66 l 1
 858.127659574 67 l 1
 783 67 l 1
 781 67 l 1
 635 67 l 1
 634 67 l 1
 513.82595627 67 l 2
 511.361312428 66.3517334267 508.739278452 66 506 66 c 0
 415 66 396 96 394 163 c 2
 389.213967111 314.55770816 l 1
 374.080694627 318.283868693 362.329081192 325.982313396 352 337 c 1
 338 315 316 305 293 305 c 0x390e5548
 251 304 200 335 170 390 c 1
 150 361 146 326 146 301 c 0
 146 258 167 162 183 104 c 1
 138 93 l 1
 114 179 100 269 100 301 c 0
 100 440 228 520 283 520 c 0
 311 520 327 506 350 436 c 0
 363.236074356 396.893416676 374.300326426 376.971263539 387.548271554 367.304734139 c 1
 382 543 l 1
 429 543 l 1
 434.606648199 359 l 1
 566 359 l 2
 568.558767773 359 570.912932654 358.795397109 573.029773939 358.386191327 c 0
 576.906157359 358.768479498 581.073917993 359.384239749 586 360 c 0
 593 361 601 365 608 371 c 0
 616 377 622 387 628 402 c 1
 665 392 l 1
 660 373 658 353 659 333 c 0
 660 313 664 294 670 277 c 0
 677 259 686 244 697 231 c 1
 697 256 700 279 707 298 c 0
 713 317 725 332 741 342 c 0
 757 353 779 358 807 358 c 2
 829 358 l 1
 828 313 l 1
 802 313 l 2
 782 313 767 309 757 301 c 0
 747 293 740 280 736 263 c 0
 733 246 731 224 731 198 c 1x150e9508
1402 406 m 1
 1279 370 l 1
 1279 401 l 1
 1402 437 l 1
 1402 406 l 1
1224 677 m 1
 1183 677 l 1
 1179 816 l 1
 1220 816 l 1
 1224 677 l 1
298 351 m 0x190e0108
 318 351 329 363 322 387 c 0
 304 442 292 469 275 469 c 0
 258 469 224 455 200 426 c 1
 225 376 270 351 298 351 c 0x190e0108
744 830 m 0
 729 830 716 842 716 857 c 0
 716 873 729 886 744 886 c 0
 760 886 772 873 772 857 c 0x100e0308
 772 842 760 830 744 830 c 0
822 830 m 0
 806 830 794 842 794 857 c 0
 794 873 806 886 822 886 c 0
 837 886 849 873 849 857 c 0
 849 842 837 830 822 830 c 0
1002 2 m 1x900e010a
 985 45 l 1
 1095 82 1127 142 1127 194 c 0
 1127 230 1108 270 1088 304 c 1
 1129 325 l 1
 1150 285 1165 246 1173 218 c 0
 1184 186 1199 177 1229 177 c 0
 1284 177 1304 183 1304 225 c 0
 1304 253 1288 301 1272 344 c 1
 1317 361 l 1
 1332 324 1347 268 1347 234 c 0
 1347 158 1307 130 1223 130 c 0
 1194 130 1176 140 1164 155 c 1
 1148 70 1058 16 1002 2 c 1x900e010a
1284 25 m 0x500e010c
 1268 25 1255 38 1255 53 c 0
 1255 68 1268 81 1284 81 c 0
 1299 81 1311 68 1311 53 c 0
 1311 38 1299 25 1284 25 c 0x500e010c
388 773 m 0x101f0108
 372 773 359 785 359 800 c 0
 359 816 372 829 388 829 c 0
 403 829 415 816 415 800 c 0
 415 785 403 773 388 773 c 0x101f0108
465 773 m 0
 449 773 437 785 437 800 c 0
 437 816 449 829 465 829 c 0
 480 829 493 816 493 800 c 0x101e2108
 493 785 480 773 465 773 c 0
370 576 m 0x108e0988
 236 576 167 608 167 691 c 0
 167 718 174 751 182 780 c 1
 225 769 l 1
 220 752 213 723 213 704 c 0
 213 645 250 622 385 622 c 0x108e0988
 476 622 597 642 667 721 c 1
 703 700 l 1
 696 682 694 673 694 665 c 0
 694 648 709 631 773 631 c 0
 804 631 818 650 843 703 c 0
 875 775 907 790 939 790 c 0
 990 790 1030 731 1030 679 c 0
 1030 611 990 588 950 588 c 0
 928 588 896 591 845 623 c 1
 822 588 799 585 767 585 c 0x106e0988
 701 585 654 603 653 648 c 1
 591 600 486 576 370 576 c 0x108e0988
873 673 m 0
 871 668 869 664 867 659 c 1
 900 640 927 634 945 634 c 0
 977 634 990 650 990 673 c 0
 990 706 963 744 936 744 c 0x102e0188
 915 744 899 731 873 673 c 0
1105 401 m 1x100e0118
 1094 804 l 1
 1140 804 l 1x100e0128
 1151 401 l 1
 1105 401 l 1x100e0118
1191 446 m 1x120e0108
 1206 488 l 1
 1223 481 1252 475 1287 482 c 0
 1342 492 1360 514 1354 543 c 0
 1350 565 1336 596 1254 675 c 1
 1288 707 l 1
 1362 637 1393 585 1400 549 c 0
 1408 504 1388 453 1296 436 c 0
 1255 428 1217 432 1191 446 c 1x120e0108
EndSplineSet
EndChar

StartChar: uniFBC5
Encoding: 64453 64453 9
Width: 1958
GlyphClass: 1
Flags: W
HStem: -249 55<913.69 967.313 989.69 1043.31> -144 46<546.235 1046.29 1107.09 1248.58> 2.26194 45.9962<634.369 753.606 833.482 981.594> 57 46<419.753 484 1253.95 1356.45> 100 45<183.087 333.86> 111 42.0008<1312.57 1387.62 1472.05 1545.5 1594.75 1713.15> 188 45<719.053 843.627> 202 40<1800.98 1854> 226 46.0006<412.157 494.759> 272 44<1470.97 1516.22 1652.84 1752.85> 286 55<842.69 896.313 918.69 972.313> 298 43<1357.4 1394.51> 313 44<1212.57 1257> 372 46.0004<780.543 893.764 954.804 1060.74> 414 55<1322.74 1376.26> 490 55<1323.69 1377.26> 573 47<654.753 719> 680 27<607.704 670.671> 787 28<675.906 708.601> 816 36<840.31 873.597> 837 33<911.809 944.227>
VStem: 100 46<180.453 316.412> 343 44<-36.6344 27.4167> 372 42<180.042 225.701> 487 41<2.88889 57 101.147 146 541.1 626> 492 45<-46.6018 -17.5556 274.682 403.6> 570 45<220 402> 578 44<57.2421 238.571 479.366 543.417> 645 28<743.112 783.906> 710 28<737.202 786.413> 719 43<518.889 573 616.306 662> 726 45<469.398 573> 809 31<852.512 903> 842 55<286.687 340.259> 846 44<110.724 182.478> 872 35<950 1061> 879 31<877.188 920> 887 46<552.667 772> 896 46<429.751 709.111> 913 55<-248.259 -194.687 288.109 338.734> 947 34<877.235 938.672> 986 42<53.561 182.314> 989 55<-248.259 -194.687> 1039 46<57.9 256> 1049 45<-85.3314 86.2 633 772> 1063 45<423.101 669.091> 1139 42<217.14 283.646> 1182 45<519.364 772> 1194 45<-49.2858 42.6523 375 606.583> 1257 39<258.667 313 351.191 401> 1264 41<209.239 313> 1322 55<414.687 468.259 490.687 544.259> 1483 42<419.189 560.112>
LayerCount: 2
Fore
SplineSet
1181 246 m 0xe009e408800238
 1181 211 1231 207 1264 210 c 1
 1259 313 l 1
 1209 301 1181 269 1181 246 c 0xe009e408800238
1447 203 m 1
 1468 170 1500 148 1523 148 c 0
 1546 148 1550 166 1543 182 c 0
 1512 265 1508 272 1496 272 c 0xe041e408800218
 1482 272 1459 238 1447 203 c 1
678 782 m 0
 674 778 673 773 673 768 c 0
 673 762 675 756 680 750 c 0
 684 745 690 740 697 737 c 1
 705 745 710 754 710 764 c 0xe001e40c800218
 710 771 708 776 705 780 c 0
 702 785 698 787 692 787 c 0
 686 787 682 785 678 782 c 0
702 706 m 0
 678 691 647 682 609 680 c 1
 604 707 l 1
 619 708 633 709 645 712 c 0
 657 715 667 718 675 722 c 1
 666 727 659 733 653 740 c 0
 647 748 645 757 645 768 c 0
 645 781 649 792 658 801 c 0
 667 810 679 815 693 815 c 0
 707 815 718 810 726 800 c 0xe001e409800218
 734 790 738 779 738 766 c 0
 738 741 726 721 702 706 c 0
907 950 m 1xe001e408900218
 872 950 l 1
 869 1061 l 1
 904 1061 l 1
 907 950 l 1xe001e408900218
881 825 m 0
 872 819 862 816 850 816 c 0
 833 816 822 822 817 833 c 0
 811 844 809 856 809 869 c 0
 809 874 809 879 809 884 c 0
 810 889 811 895 812 903 c 1
 843 911 l 1
 841 896 840 884 840 875 c 0
 840 860 845 852 856 852 c 0
 862 852 868 855 872 861 c 0xe001f408900218
 876 867 879 881 879 901 c 2
 879 920 l 1
 910 932 l 1
 910 893 l 2
 910 886 911 881 913 877 c 0xe001f408890218
 915 873 920 870 928 870 c 0
 936 870 941 873 943 877 c 0
 945 882 947 888 947 896 c 0
 947 903 946 910 944 917 c 0
 943 925 940 932 937 939 c 1
 966 948 l 1
 970 940 974 930 977 920 c 0
 980 910 981 901 981 893 c 0
 981 879 977 866 969 854 c 0
 961 843 949 837 933 837 c 0xe001ec08848218
 919 837 908 841 899 848 c 1
 895 839 889 831 881 825 c 0
387 -10 m 0xf001e688800218
 387 -45 450 -52 492 -44 c 1xf001e648800218
 487 57 l 1
 423 50 387 17 387 -10 c 0xf001e688800218
941 -249 m 0
 925 -249 913 -236 913 -221 c 0
 913 -206 925 -194 941 -194 c 0
 956 -194 968 -206 968 -221 c 0xe001e408810218
 968 -236 956 -249 941 -249 c 0
1017 -249 m 0
 1001 -249 989 -236 989 -221 c 0
 989 -206 1001 -194 1017 -194 c 0
 1032 -194 1044 -206 1044 -221 c 0xe001e408802218
 1044 -236 1032 -249 1017 -249 c 0
100 229 m 0
 100 255 107 287 123 327 c 1
 163 311 l 1
 152 280 146 255 146 232 c 0
 146 171 206 145 277 145 c 0
 302 145 372 178 372 218 c 0
 372 237 341 250 288 265 c 1
 298 311 l 1
 374.64377005 281.13879089 414.629099041 272.083724002 437.679687424 272.000583282 c 0
 499.992768058 272.108813419 498.992781087 287.202124942 497 343 c 2
 487 626 l 1
 532 626 l 1
 543 348 l 2
 546 269 532 226 432 226 c 2
 412 226 l 1
 413 220 414 217 414 210 c 0
 414 156 336 100 264 100 c 0xe881e588800218
 176 100 100 142 100 229 c 0
714 163 m 1
 743 140 765 119 795 87 c 1
 828 107 846 133 846 156 c 0
 846 171 833 188 793 188 c 0xe201e408a00218
 768 188 732 177 714 163 c 1
870 286 m 0xe021e408c00218
 854 286 842 298 842 313 c 0xe009e408c00218
 842 328 854 341 870 341 c 0xe021e408c00218
 885 341 897 328 897 313 c 0xe009e408c00218
 897 298 885 286 870 286 c 0xe021e408c00218
946 286 m 0xe021e408800218
 930 286 918 298 918 313 c 0xe009e408800218
 918 328 930 341 946 341 c 0xe021e408800218
 961 341 973 328 973 313 c 0xe009e408800218
 973 298 961 286 946 286 c 0xe021e408800218
622 506 m 0xe001e419800218
 622 471 685 464 726 472 c 1
 721 573 l 1
 657 566 622 533 622 506 c 0xe001e419800218
1193 375 m 1
 1182 772 l 1
 1227 772 l 1xe001e408800318
 1238 375 l 1
 1193 375 l 1
1323 517 m 0
 1323 533 1335 545 1350 545 c 0
 1365 545 1378 532 1378 517 c 0
 1378 502 1365 490 1350 490 c 0
 1335 490 1323 502 1323 517 c 0
1322 441 m 0
 1322 457 1335 469 1350 469 c 0
 1365 469 1377 456 1377 441 c 0
 1377 426 1364 414 1349 414 c 0xe003e408800218
 1334 414 1322 426 1322 441 c 0
1360 298 m 1xe011e408800218
 1344 341 l 1
 1456 376 1483 437 1483 486 c 0
 1483 517 1475 539 1445 594 c 1
 1486 614 l 1
 1513 566 1525 522 1525 489 c 0
 1525 372 1418 313 1360 298 c 1xe011e408800218
1352.63671875 111.000341807 m 0xe541e408800238
 1352.4248528 111.000341807 1352.21261453 111 1352 111 c 1
 1352.00030965 111.002601033 l 1
 1308.56063933 111.229521947 1279.91647616 126.341688454 1269 171 c 1
 1211 161 1139 177 1139 238 c 0
 1139 292 1189 339 1257 357 c 1
 1255 401 l 1
 1296 401 l 1xe509e408800258
 1305 218 l 2
 1307.98290114 165.302079842 1315.90896851 153.138122784 1357.2851561 153.001178242 c 0
 1379.10410309 153.182434723 1391.0995679 174.233764762 1414 228 c 0
 1440 287 1466 316 1503 316 c 0
 1534 316 1545 290 1569 228 c 0
 1585.94490143 183.145849163 1598.91568958 153.194623121 1630.68945311 153.000945517 c 0
 1701.16908403 153.194705478 1727.21407254 183.126496804 1793 222 c 1
 1754 248 1736 271 1695 271 c 0
 1677 271 1668 269 1656 266 c 1
 1647 301 l 1
 1662 307 1680 310 1695 310 c 0
 1775 310 1795 242 1847 242 c 2
 1854 242 l 1
 1858 202 l 1
 1779.40209803 200.010179697 1753.26604517 111.90373916 1626.94659485 111.006893771 c 0
 1626.63450307 111.002307318 1626.31898197 111 1626 111 c 0
 1625.88600265 111 1625.77207027 111.000782812 1625.65820305 111.000782812 c 0
 1625.43910201 111.000782812 1625.21970126 111 1625 111 c 1
 1625.0007956 111.006683029 l 1
 1605.40030761 111.269405366 1587.74978034 119.283582281 1573 136 c 1
 1562 118 1544 110 1521 110 c 0
 1499 110 1457 122 1428 166 c 1
 1403.44135663 113.935676054 1381.77772269 111.086512388 1353.52943096 111.002139623 c 0
 1353.35402256 111.002139623 1353.17754739 111 1353 111 c 0
 1352.8787924 111 1352.75769863 111.000341807 1352.63671875 111.000341807 c 0xe541e408800238
883 -98 m 1
 989 -98 l 2
 1052 -98 1050 -83 1049 -27 c 2xf001e448802a18
 1039 256 l 1
 1085 256 l 1xf001e408801218
 1094 -26 l 2
 1096 -83 1122 -98 1156 -98 c 0
 1226 -98 1243 -96 1250 -95 c 1
 1230 -84 1194 -55 1194 -3 c 0
 1194 60 1242 103 1308 103 c 0
 1325 103 1345 100 1363 94 c 1
 1354 51 l 1
 1339 55 1322 57 1308 57 c 0
 1268 57 1239 34 1239 -3 c 0
 1239 -51 1297 -80 1329 -79 c 1
 1347 -73 1355 -71 1398 -52 c 1
 1413 -93 l 1
 1339 -123 1266 -144 1150 -144 c 0
 1113 -144 1092 -127 1082 -106 c 1
 1069.67567447 -126.540542542 1047.90047786 -138.980338436 1010.57330667 -142.764741799 c 0
 1008.15599258 -143.570169664 1005.6496347 -144.000000113 1003 -144 c 2
 984 -144 l 1
 878 -144 l 1
 854 -144 l 1
 736 -144 l 1
 729 -144 l 1
 597 -144 l 1
 587 -144 l 1
 587.026871902 -143.793982083 l 1
 543.127596349 -141.92090705 511.032143313 -126.958164699 498 -86 c 1
 419 -105 343 -78 343 -17 c 0
 343 42 406 91 484 104 c 1
 483 146 l 1
 528 146 l 1xf001e688800a98
 537 -38 l 2xf001e448800218
 539 -90 562 -98 602 -98 c 2
 735 -98 l 1
 741 -98 l 1
 860 -98 l 1
 883 -98 l 1
677.010765769 2.26194015967 m 0
 672.713485302 2.08848695277 668.372543557 2.00000168712 664 2 c 1
 664.138438575 3.06136240754 l 1
 598.031542063 8.82848626207 582.780341014 38.3585760329 581 98 c 2
 570 402 l 1
 615 402 l 1
 626 116 l 2
 627.841864938 65.3487141945 632.228079715 50.318326127 682.897899413 48.2581502293 c 0
 716.702541217 49.6226542389 746.114664621 56.3375974526 755 67 c 1
 738 88 715 110 689 129 c 0
 681 135 674 158 674 166 c 0
 674 188 735 233 801 233 c 0
 864 233 890 201 890 168 c 0
 890 132 869 95 832 65 c 1
 864 53 871 49 908 49 c 0
 912.154221296 49 915.634319366 48.3258767744 918.510305639 47.1176530475 c 0
 969.658309906 47.9640952636 985.999999998 54.3232731002 986 95 c 0
 986 122 971 169 955 211 c 1
 1000 228 l 1
 1013 192 1028 137 1028 104 c 0
 1028 29 990 1 896 1 c 1xe201e428a24218
 896.225075283 3.07069260019 l 1
 850.747839697 4.043203548 827.196191276 15.0637846323 790 37 c 1
 774.111264417 21.1112644166 741.621382269 9.22970214175 702.925278875 4.38716580911 c 0
 699.346556423 2.87440027984 695.319011462 2.00000056333 691 2 c 0
 686.130244383 2 681.470060334 2.0868225064 677.010765769 2.26194015967 c 0
836.5390625 418.000357343 m 0xe005e409800218
 899.988736856 418.084798626 897.994368428 433.157683986 896 489 c 2xe005e409820218
 887 772 l 1
 933 772 l 1xe005e408840218
 942 490 l 2
 943 433 969 418 1003 418 c 0
 1066 418 1065 433 1063 489 c 2
 1052 772 l 1
 1097 772 l 1
 1108 494 l 2
 1112 415 1098 372 998 372 c 0
 960 372 939 389 929 410 c 1
 915 385 885 372 831 372 c 0
 783 372 747 386 733 430 c 1
 654 411 578 438 578 499 c 0
 578 558 641 607 719 620 c 1
 717 662 l 1
 762 662 l 1xe005e41a820618
 771 478 l 2
 773.988457685 426.200066799 796.823313887 418.062210338 836.5390625 418.000357343 c 0xe005e409800218
EndSplineSet
EndChar

StartChar: uniFBC6
Encoding: 64454 64454 10
Width: 1696
GlyphClass: 1
Flags: W
HStem: -212 45<791.718 885.103> -200 56<1075.69 1129.31 1151.74 1206.26> -101 44<495.322 575.439> -94 46<183.798 386.06 633.881 678.892 679 720.295 914.532 1029.97 1088.53 1227.42 1289.15 1429.53> -76 32<766.703 817.4> 64 44<166.661 291.249 486.242 551.745> 87.8516 44.3531<1128 1226.15> 95 46<805.991 853.856> 108 46<1435.95 1538.52> 155 45<716.748 798.91> 163 46<524.078 618.63 857.406 1026.67> 202 44<185.039 272.966> 254 40<1130.93 1200> 316 46<937.841 1080.17> 323 45<708.949 772.684> 365 46<397.753 462> 385 46<841.838 955.7 1016.95 1122.5> 437 45<687.142 787> 463 56<384.687 438.259> 540 55<384.687 438.259> 590 27<516.704 580.506> 697 28<585.446 617.903> 770 37<905.531 940.2> 792 35<978.311 1015.77>
VStem: 100 45<-148.459 51.8552> 292 41<106.059 181.707> 321 44<270.349 335.05> 384 55<463.741 518.259 540.687 594.31> 462 44<310.111 365 406.44 454> 470 45<260.398 365> 554 28<653.413 693.906> 619 28<647.202 696.437> 638 44<490.998 557.05> 780 44<628.44 676> 787 46<482.293 583.886> 857 46<-13.9645 94.6136> 872 33<807.303 860> 939 37<910 1025> 946 32<827.324 878> 949 46<554.778 736> 959 45<442.858 684.222> 1017 35<827.671 902.18> 1055 43<-8.14827 59.4651> 1075 55<-199.259 -144.741> 1115 45<591.333 736> 1126 46<436.655 632.667> 1151 56<-199.259 -144.741> 1220 47<150.331 307> 1227.72 45.7469<-33.375 87.8516 150.331 239.043> 1245 45<533 736> 1256 46<388 591> 1330 46<185.09 316> 1376 45<0.693884 93.0128>
LayerCount: 2
Fore
SplineSet
543 54 m 0x240804920040
 537 61 530 64 521 64 c 0
 513 64 504 60 494 51 c 0
 485 42 474 27 463 4 c 1
 476 -17 490 -33 505 -42 c 0
 520 -52 534 -57 546 -57 c 0
 559 -57 568 -52 574 -43 c 0
 580 -34 580 -21 574 -5 c 0
 569 6 564 17 560 28 c 0
 554 39 549 47 543 54 c 0x240804920040
580 -92 m 0
 570 -98 559 -101 547 -101 c 0x20080492004088
 528 -101 509 -95 490 -84 c 0
 471 -72 454 -56 441 -37 c 1
 424 -60 403 -75 378 -84 c 0
 353 -92 326 -96 297 -96 c 0
 277 -96 257 -95 236 -92 c 0
 216 -89 196 -86 177 -83 c 1
 183 -45 l 1
 200 -46 218 -48 238 -48 c 0x10080492004088
 256 -50 274 -50 290 -50 c 0
 309 -50 326 -48 344 -44 c 0
 360 -41 376 -34 390 -24 c 0
 404 -14 416 1 426 21 c 0
 437 44 448 62 460 75 c 0
 472 88 484 96 495 101 c 0
 506 106 516 108 525 108 c 0
 537 108 548 105 557 100 c 0
 566 95 575 86 584 73 c 0
 592 60 601 43 610 21 c 0
 618 1 626 -14 632 -24 c 0
 640 -34 647 -41 654 -44 c 0x0c080492004088
 660.740538525 -46.888802225 669.335561116 -48.8503624173 678.892194823 -48.9918076275 c 1
 679 -48 l 1
 693 -48 707 -48 720 -48 c 1
 726 64 786 141 839 141 c 0x11080492004088
 875 141 903 107 903 55 c 0
 903 23 895 -12 866 -36 c 1
 895 -43 926 -48 962 -48 c 0
 1036 -48 1036 -32 1055 67 c 1
 1098 58 l 1
 1094 38 1087 9 1087 -9 c 0
 1087 -32 1084 -48 1170 -48 c 0
 1233 -48 1232 -33 1230 23 c 2
 1227.71649283 87.8516037099 l 1x12080492106088
 1188.67263863 78.8030717288 1150.53628605 80.1569112671 1125 85 c 1
 1128 131 l 1
 1167.907371 125.201493103 1200.13620557 126.383473867 1226.15476549 132.204659994 c 1
 1220 307 l 1
 1267 307 l 1
 1271.9824093 150.330907511 l 1
 1294.31417019 164.101421761 1308.73097798 182.461955954 1318 201 c 0
 1331 229 1333 254 1330 316 c 1x120c0492004110
 1376 317 l 1
 1380 261 1371 216 1357 187 c 0
 1337.27955203 146.012402267 1306.79381499 119.827077018 1273.46343055 103.761017124 c 1
 1276 24 l 2
 1277 -33 1304 -48 1338 -48 c 0
 1408 -48 1425 -46 1432 -46 c 1
 1412 -34 1376 -5 1376 47 c 0
 1376 110 1424 154 1490 154 c 0
 1508 154 1528 150 1546 145 c 1
 1536 102 l 1
 1521 106 1504 108 1490 108 c 0
 1450 108 1421 84 1421 47 c 0
 1421 -1 1479 -30 1512 -29 c 1
 1529 -23 1537 -22 1580 -2 c 1
 1596 -43 l 1
 1521 -73 1448 -94 1332 -94 c 0x108c0492004088
 1294 -94 1273 -77 1263 -57 c 1x20080492004088
 1248 -81 1219 -94 1165 -94 c 0x10080492004088
 1092 -94 1072 -82 1064 -57 c 1x20080492004088
 1042 -88 1014 -94 957 -94 c 0
 943 -94 929 -93 914 -91 c 1
 947 -141 920 -212 845 -212 c 0
 780 -212 729 -172 721 -90 c 1
 706 -92 689 -94 674 -94 c 0x90080492004088
 660 -94 647 -92 635 -87 c 0
 623 -82 613 -75 606 -66 c 1
 599 -78 591 -87 580 -92 c 0
172 -169 m 1
 130 -180 l 1
 123 -156 118 -132 114 -109 c 0
 109 -86 106 -64 104 -45 c 0
 101 -26 100 -10 100 2 c 0
 100 25 104 43 112 58 c 0
 120 73 131 84 144 92 c 0
 158 101 173 106 190 110 c 0
 207 112 224 114 242 112 c 0
 259 112 276 109 292 106 c 1
 293 123 292 138 287 153 c 0
 282 168 275 180 266 188 c 0
 257 198 245 202 231 202 c 0
 204 202 181 184 162 147 c 1
 128 165 l 1
 142 195 158 216 177 228 c 0
 196 240 215 246 234 246 c 0x001804d20040
 253 246 268 242 281 234 c 0
 294 226 304 216 312 204 c 0
 319 191 325 178 328 163 c 0
 331 148 333 134 333 121 c 0x002804d20040
 333 108 331 94 326 81 c 0
 321 68 317 58 313 52 c 1
 280 62 250 67 225 68 c 0
 200 68 180 63 166 52 c 0
 152 41 145 24 145 0 c 0
 145 -14 146 -30 148 -49 c 0
 150 -68 153 -87 158 -108 c 0
 162 -129 167 -149 172 -169 c 1
1561 424 m 1
 1342 360 l 1
 1338 391 l 1
 1557 455 l 1
 1561 424 l 1
1556 228 m 1
 1433 192 l 1
 1433 223 l 1
 1556 259 l 1
 1556 228 l 1
683 381 m 1
 560 345 l 1
 560 376 l 1
 683 412 l 1
 683 381 l 1
588 692 m 0
 584 688 582 683 582 678 c 0
 582 672 584 666 589 660 c 0
 594 655 599 650 606 647 c 1
 615 655 619 664 619 674 c 0x000804930040
 619 681 618 686 614 690 c 0
 612 695 607 697 601 697 c 0
 596 697 591 695 588 692 c 0
612 616 m 0
 588 601 557 592 518 590 c 1
 513 617 l 1x00080c930040
 528 618 542 619 554 622 c 0
 566 625 576 628 584 632 c 1
 575 637 568 643 562 650 c 0
 557 658 554 667 554 678 c 0
 554 691 558 702 568 711 c 0
 576 720 588 725 602 725 c 0
 617 725 628 720 636 710 c 0
 643 700 647 689 647 676 c 0
 647 651 635 631 612 616 c 0
972 1025 m 1
 976 910 l 1
 939 910 l 1x000804920440
 935 1025 l 1
 972 1025 l 1
967 804 m 1
 958 781 941 770 916 770 c 0
 887 770 872 788 872 825 c 0
 872 834 873 846 876 860 c 1
 909 869 l 1
 907 854 905 841 905 831 c 0
 905 815 911 807 922 807 c 0
 929 807 934 810 939 817 c 0x000806920c40
 944 825 946 845 946 878 c 1
 978 890 l 1
 978 850 l 2
 978 834 984 827 997 827 c 0
 1010 827 1017 835 1017 853 c 0
 1017 868 1014 883 1007 898 c 1
 1037 908 l 1
 1047 888 1052 869 1052 849 c 0
 1052 811 1036 792 1002 792 c 0x000805920240
 988 792 976 796 967 804 c 1
846 -167 m 0x880804920040
 866 -167 889 -157 889 -128 c 0
 889 -100 871 -76 808 -76 c 0
 796 -76 781 -78 766 -82 c 1
 775 -155 818 -167 846 -167 c 0x880804920040
835 95 m 0x090804921040
 813 95 769 38 765 -44 c 1
 818 -37 857 -15 857 50 c 0
 857 67 852 95 835 95 c 0x090804921040
1103 -200 m 0x400804920050
 1087 -200 1075 -187 1075 -172 c 0
 1075 -157 1087 -144 1103 -144 c 0
 1118 -144 1130 -157 1130 -172 c 0
 1130 -187 1118 -200 1103 -200 c 0x400804920050
1179 -200 m 0
 1164 -200 1151 -187 1151 -172 c 0
 1151 -157 1164 -144 1179 -144 c 0
 1194 -144 1207 -157 1207 -172 c 0x400804920042
 1207 -187 1194 -200 1179 -200 c 0
682 519 m 0x00082492a040
 682 492 719 482 755 482 c 0x00084492a040
 766 482 777 483 787 485 c 1
 784 553 786 519 782 587 c 1
 718 580 682 547 682 519 c 0x00082492a040
1256 388 m 1x00080492004020
 1249 620 1253 504 1245 736 c 1
 1290 736 l 1x00080492004040
 1302 388 l 1
 1256 388 l 1x00080492004020
384 567 m 0
 384 583 396 595 411 595 c 0
 426 595 439 583 439 567 c 0
 439 552 426 540 411 540 c 0x000814920040
 396 540 384 552 384 567 c 0
384 491 m 0
 384 506 396 519 411 519 c 0
 426 519 439 506 439 491 c 0
 439 476 426 463 411 463 c 0x000824920040
 396 463 384 476 384 491 c 0
365 297 m 0x000904b60040
 365 262 428 255 470 263 c 1
 465 365 l 1
 400 358 365 325 365 297 c 0x000904b60040
683 262 m 1
 708 219 743 200 767 200 c 0
 793 200 809 220 795 253 c 0
 782 287 768 324 742 323 c 0x004a04920040
 726 322 707 309 683 262 c 1
898 431 m 0x0008c4922040
 951 431 959 441 959 478 c 0x0008c49220c0
 959 604 956 562 949 736 c 1
 995 736 l 1x0008c4920140
 1004 503 l 2
 1004.99660838 446.193322415 1031.81715153 431.10223177 1065.65429692 431.000515706 c 0
 1118.06593619 431.083037118 1126.00000001 441.148666339 1126 477 c 0x0008c49200c4
 1126 485 1126 493 1125 502 c 2
 1115 736 l 1
 1160 736 l 1x0008c4920048
 1172 488 l 2
 1172 421 1152 385 1060 385 c 0
 1022 385 1001 402 991 422 c 1
 976 398 947 385 893 385 c 0
 844 385 808 399 794 442 c 1
 777 438 761 437 745 437 c 0
 686 437 638 464 638 512 c 0
 638 572 701 620 780 633 c 1
 779 661 780 647 778 676 c 1
 824 676 l 1x0008c492c044
 833 491 l 2
 835 439 858 431 898 431 c 0x0008c4922040
581 209 m 0x002904960040
 611 209 619 227 645 280 c 0
 681 350 720 368 746 368 c 0x002a04960040
 783 368 805 346 832 280 c 0
 856.892362357 218.266941354 872.862056981 209.078481584 902.613281225 209.000505743 c 0
 979.39286685 209.127566415 1053.15931036 233.108860357 1113 274 c 1
 1084 300 1040 316 990 316 c 0
 972 316 960 315 940 310 c 1
 931 353 l 1
 951 359 971 362 990 362 c 0
 1088 362 1130 294 1188 294 c 2
 1200 294 l 1
 1204 254 l 1
 1108 254 1071 163 897 163 c 0x002c04960040
 868 163 843 172 829 191 c 1
 815 166 793 155 768 155 c 0x004804960040
 731 155 689 180 662 219 c 1
 633 168 611 163 575 163 c 0
 526 163 490 177 476 220 c 1
 397 201 321 229 321 290 c 0
 321 350 384 398 462 411 c 1
 461 454 l 1
 506 454 l 1x002904ba0040
 515 269 l 2
 518 217 540 209 581 209 c 0x002904960040
EndSplineSet
EndChar

StartChar: uniFBC7
Encoding: 64455 64455 11
Width: 1564
GlyphClass: 1
Flags: W
HStem: -211 45<660.189 753.296> -199 56<943.69 997.313 1020.69 1074.26> -101 45<363.101 444.936> -93 46<163.725 265.751 503.236 547.87 548 588.321 782.731 898.156 956.533 1095.75 1157.25 1297.53> -75 32<635.702 686.156> 66 45<355.016 418.684> 86 46<997 1094.54> 96 46<674.185 722.176> 109 46<1304.47 1406.52> 156 45<584.996 667.058> 164 46<392.434 487.08 726.247 895.239> 255 40<998.935 1068> 317 46<805.841 948.174> 324 45<577.016 640.684> 366 46<266.101 331> 386 46.0003<710.049 823.764 885.159 991.38> 464 56<252.69 306.313> 541 55<252.69 306.313> 588 46<583.753 648> 591 27<384.704 448.506> 698 28<450.917 484.332> 771 37<774.418 808.521> 793 35<846.331 882.48>
VStem: 100 46<124.364 307> 111 46<-40.2656 196.455> 189 44<271.349 336.05> 252 55<464.741 519.259 541.687 595.31> 331 43<311.111 366 408.323 455> 338 45<261.398 366> 422 28<655.044 697.146> 487 28<648.202 694.491> 507 44<493.349 558.05> 648 44<533.111 588 629.44 677> 656 45<483.398 588> 726 45<-12.9645 95.5834> 740 34<808.514 861> 807 37<911 1026> 814 32<828.259 879> 817 46<633 737> 826 46<444.779 685> 885 36<835.235 898.671> 943 55<-198.259 -143.741> 983 45<591.273 737> 994 45<437.101 651.909> 1020 55<-198.259 -143.741> 1094.54 45.4546<64.7941 88.8089 150.844 308> 1114 45<515.545 737> 1125 45<389 610.455> 1198 46<186.084 317> 1244 46<1.69388 94.0128>
LayerCount: 2
Fore
SplineSet
330 5 m 1x241088640080
 355 -37 389 -56 414 -56 c 0
 439 -56 455 -36 441 -3 c 0
 428 30 414 67 389 66 c 0
 372 66 353 52 330 5 c 1x241088640080
1429 425 m 1
 1210 361 l 1
 1206 392 l 1
 1425 456 l 1
 1429 425 l 1
1424 229 m 1
 1301 193 l 1
 1301 224 l 1
 1424 260 l 1
 1424 229 l 1
551 382 m 1x001088650080
 428 346 l 1
 428 377 l 1
 551 413 l 1
 551 382 l 1x001088650080
456 692 m 0
 452 689 450 684 450 679 c 0
 450 673 453 667 457 662 c 0
 462 656 468 651 474 648 c 1
 483 656 487 665 487 675 c 0x001088660080
 487 682 486 687 483 692 c 0
 480 696 475 698 469 698 c 0
 464 698 459 696 456 692 c 0
480 617 m 0
 456 602 425 593 386 591 c 1
 381 618 l 1x001098660080
 397 619 410 620 422 623 c 0
 434 626 444 629 452 633 c 1
 444 638 436 644 431 652 c 0
 425 659 422 668 422 679 c 0
 422 692 427 703 436 712 c 0
 445 721 456 726 470 726 c 0
 485 726 496 721 504 711 c 0
 511 701 515 690 515 677 c 0
 515 652 503 632 480 617 c 0
844 911 m 1x001088640880
 807 911 l 1
 803 1026 l 1
 840 1026 l 1
 844 911 l 1x001088640880
816 780 m 0
 807 774 796 771 784 771 c 0
 766 771 755 777 749 789 c 0
 743 800 740 813 740 826 c 0
 740 831 741 836 741 842 c 0
 742 847 743 854 744 861 c 1
 778 870 l 1
 775 855 774 842 774 832 c 0
 774 816 779 808 790 808 c 0
 797 808 802 811 807 818 c 0x00108c641880
 811 825 814 839 814 860 c 2
 814 879 l 1
 846 891 l 1
 846 851 l 2
 846 845 847 839 850 835 c 0
 852 830 857 828 865 828 c 0
 873 828 879 830 881 835 c 0
 884 840 885 846 885 854 c 0
 885 861 884 869 883 876 c 0
 881 884 878 892 875 899 c 1
 905 909 l 1
 910 900 913 891 916 880 c 0
 919 869 921 859 921 850 c 0
 921 836 916 822 908 811 c 0
 900 799 887 793 870 793 c 0x00108a640480
 856 793 844 797 835 805 c 1
 831 795 825 787 816 780 c 0
714 -166 m 0x881088640080
 734 -166 757 -156 757 -127 c 0
 757 -99 739 -75 676 -75 c 0
 664 -75 650 -77 635 -81 c 1
 643 -154 687 -166 714 -166 c 0x881088640080
703 96 m 0x091088642080
 681 96 637 39 633 -43 c 1
 687 -36 726 -14 726 51 c 0
 726 68 720 96 703 96 c 0x091088642080
971 -199 m 0x4010886400c0
 955 -199 943 -186 943 -171 c 0
 943 -156 955 -143 971 -143 c 0
 986 -143 998 -156 998 -171 c 0
 998 -186 986 -199 971 -199 c 0x4010886400c0
1047 -199 m 0
 1032 -199 1020 -186 1020 -171 c 0
 1020 -156 1032 -143 1047 -143 c 0
 1062 -143 1075 -156 1075 -171 c 0x401088640088
 1075 -186 1062 -199 1047 -199 c 0
551 520 m 0x0010a8654080
 551 485 614 478 656 486 c 1
 651 588 l 1
 586 581 551 548 551 520 c 0x0010a8654080
1125 389 m 1x001088640081
 1114 737 l 1
 1159 737 l 1x001088640082
 1170 389 l 1
 1125 389 l 1x001088640081
252 568 m 0
 252 584 264 596 280 596 c 0
 295 596 307 584 307 568 c 0
 307 553 295 541 280 541 c 0x0010c8640080
 264 541 252 553 252 568 c 0
252 492 m 0
 252 507 264 520 280 520 c 0
 295 520 307 507 307 492 c 0
 307 477 295 464 280 464 c 0
 264 464 252 477 252 492 c 0
233 298 m 0
 233 263 296 256 338 264 c 1
 333 366 l 1x0012886c0080
 269 359 233 326 233 298 c 0
551 263 m 1x005488650080
 577 220 611 201 636 201 c 0
 661 201 677 221 664 254 c 0
 650 288 636 325 611 324 c 0
 594 323 575 310 551 263 c 1x005488650080
993 86 m 1x121088e42080
 997 132 l 1
 1036.61511475 126.243957687 1068.6637467 127.366536089 1094.54331818 133.077515323 c 1
 1089 308 l 1
 1135 308 l 1
 1139.99788651 150.84423536 l 1
 1162.64329601 164.667134007 1177.04765236 183.242700191 1186 202 c 0
 1199 230 1202 255 1198 317 c 1x121888e4208480
 1244 318 l 1
 1248 262 1239 217 1225 188 c 0
 1205.22592561 146.900943428 1174.77826596 120.684773352 1141.46759162 104.630174722 c 1
 1144 25 l 2
 1146 -32 1172 -47 1206 -47 c 0
 1276 -47 1293 -45 1301 -45 c 1
 1281 -33 1244 -4 1244 48 c 0
 1244 111 1292 155 1359 155 c 0
 1376 155 1396 151 1414 146 c 1
 1404 103 l 1
 1389 107 1372 109 1359 109 c 0
 1318 109 1290 85 1290 48 c 0
 1290 0 1348 -29 1380 -28 c 1
 1398 -22 1406 -21 1448 -1 c 1
 1464 -42 l 1
 1389 -72 1316 -93 1200 -93 c 0x10988864008040
 1162 -93 1141 -76 1131 -56 c 1x20108864008040
 1117 -80 1087 -93 1033 -93 c 0x10108864008040
 960 -93 940 -81 932 -56 c 1x20108864008040
 910 -87 882 -93 825 -93 c 0
 811 -93 797 -92 782 -90 c 1
 815 -140 789 -211 713 -211 c 0
 649 -211 597 -171 589 -89 c 1
 574.525531116 -90.9299291845 559.119905568 -92.859858369 543.681656575 -92.9927215576 c 0
 543.455265684 -92.9975619881 543.228039102 -93 543 -93 c 0
 542.84624139 -93 542.692595227 -92.9992434653 542.539062559 -92.9992434653 c 0
 542.359375981 -92.9992434653 542.179687987 -93 542 -93 c 1x90108864008040
 542.000466538 -92.9964232055 l 1
 513.42609272 -92.7915448318 488.838898116 -83.7813617287 475 -65 c 1
 461 -90 439 -101 414 -101 c 0x20108864008040
 377 -101 335 -76 308 -37 c 1
 280 -88 258 -93 222 -93 c 0
 132 -93 113 -64 111 3 c 2x101088e4008040
 100 307 l 1
 146 307 l 1x101089640080
 157 20 l 2
 159 -34 163 -48 227 -48 c 0
 258 -48 265 -30 292 23 c 0
 327 94 366 111 392 111 c 0x141088e40080
 429 111 451 90 478 23 c 0
 502.684301994 -38.2170689447 518.594471373 -47.764245824 547.870138366 -47.9956058591 c 1
 548 -47 l 1
 562 -47 575 -47 588 -47 c 1
 594 65 655 142 707 142 c 0x111088e40080
 743 142 771 108 771 56 c 0
 771 24 763 -11 734 -35 c 1
 763 -42 795 -47 830 -47 c 0
 905 -47 904 -31 923 68 c 1
 967 59 l 1
 962 39 955 10 955 -8 c 0
 955 -31 952 -47 1038 -47 c 0
 1102 -47 1100 -32 1098 24 c 2
 1095.94619595 88.8089279482 l 1
 1057.04524429 79.8073448617 1018.93565487 81.1645389231 993 86 c 1x121088e42080
766.535156218 432.000349065 m 0x0011a8644080
 829.988818705 432.084176916 827.99440935 447.156534934 826 503 c 2x0011a8644180
 817 737 l 1
 863 737 l 1x0011a8640280
 872 504 l 2
 873.993101006 447.19662134 899.820911723 432.103984675 933.648437517 432.000535491 c 0
 995.999976299 432.103768786 995.993114552 447.192793702 994 503 c 2x0011a8640190
 983 737 l 1
 1028 737 l 1x0011a86400a0
 1039 508 l 2
 1043 429 1029 386 928 386 c 0
 890 386 869 403 859 423 c 1
 845 399 815 386 761 386 c 0
 712 386 676 400 662 443 c 1
 583 424 507 452 507 513 c 0
 507 573 570 621 648 634 c 1
 647 677 l 1
 692 677 l 1x0011a8658090
 701 492 l 2
 703.988642421 440.196864708 725.833694492 432.061204397 766.535156218 432.000349065 c 0x0011a8644080
449 210 m 0x0032886c0080
 480 210 487 228 514 281 c 0
 549 351 588 369 614 369 c 0x0034886c0080
 651 369 673 347 700 281 c 0
 726 219 742 210 771 210 c 0
 848 210 921 234 981 275 c 1
 952 301 908 317 858 317 c 0
 840 317 828 316 808 311 c 1
 799 354 l 1
 819 360 839 363 858 363 c 0
 956 363 998 295 1056 295 c 2
 1068 295 l 1
 1072 255 l 1
 977 255 940 164 766 164 c 0x0038886c2080
 737 164 712 173 697 192 c 1
 683 167 661 156 636 156 c 0x0050886c2080
 599 156 557 181 530 220 c 1
 501 169 480 164 443 164 c 0
 395 164 358 178 345 221 c 1
 265 202 189 230 189 291 c 0
 189 351 252 399 331 412 c 1
 329 455 l 1
 374 455 l 1x003288742080
 383 270 l 2
 386 218 409 210 449 210 c 0x0032886c0080
EndSplineSet
EndChar

StartChar: uniFBC8
Encoding: 64456 64456 12
Width: 1676
GlyphClass: 1
Flags: W
HStem: -266 45<792.454 880.364> -157 44<498.322 578.553 1094.48 1175.57> -150 45<186.798 387.926 638.037 723 914 961.999 962 999.219 1234.58 1403.65> -143 43<184.923 239.156 635.225 676.344 1231.44 1273.3> -60 40<1499.55 1572> -5 42<1315.57 1364.16 1366.17 1467.09> 8 44<489.708 554.87 1086.33 1151.7 1312.72 1444.04> 37 45<805.908 852.048> 84 27<481.704 545.385> 103 45<189.984 374.125 698.224 866.245 944.969 1131.4 1300 1391.61> 191 28<550.094 581.28> 233 45<467.479 535.621> 289 45<831.53 955.558> 387 55<1063.69 1117.26 1139.69 1193.26> 471 45<852.31 946.457 1013.43 1111.9> 522 45<688.431 787> 670 46<714.949 780> 671 27<461.704 525.385> 778 28<530.094 561.28> 807 31<921.409 949.494> 825 29<982.806 1010.98>
VStem: 100 45<190.612 316.298> 273 30<503 648> 428 42<187.979 232.818> 499 28<734.636 774.429> 519 28<147.413 187.906> 542 44<454 629> 552 45<284.19 529> 564 28<728.202 774.491> 584 28<141.202 187.014> 634 46<320 502> 641 43<576.43 640.564> 645 46<155.312 391.455> 723 45<-194.959 -146 -101 -10.7468> 732 30<261 406> 782 41<616.444 670 712.541 758> 787 45<567.594 670> 858 45<-71.4216 33.3405> 889 39<-213.994 -147.346> 894 27<838.233 882> 949 45<672.286 786> 949 30<923 1018> 955 26<860.142 897> 958 44<211.02 283.145 526.382 741.778> 1013 30<857.199 916.53> 1063 55<387.687 441.259> 1110 45<692 867> 1121 45<522.19 765.182> 1136 42<154.498 282.594> 1139 55<387.687 441.259> 1239 44<616.909 867> 1250 44<474 724.091> 1458 44<199.574 369.591>
LayerCount: 2
Fore
SplineSet
762 261 m 1x883f2700200808
 732 261 l 1
 729 406 l 1
 759 406 l 1
 762 261 l 1x883f2700200808
303 503 m 1
 273 503 l 1
 270 648 l 1
 300 648 l 1
 303 503 l 1
552 186 m 0x883f2710000808
 549 182 547 177 547 172 c 0
 547 166 549 160 554 154 c 0
 559 149 564 144 571 141 c 1
 580 149 584 158 584 168 c 0x883f2744000808
 584 175 582 180 580 184 c 0
 576 189 572 191 566 191 c 0
 561 191 556 189 552 186 c 0x883f2710000808
576 110 m 0
 553 95 522 86 483 84 c 1
 478 111 l 1x88bf2744000808
 493 112 507 113 519 116 c 0
 531 119 541 122 549 126 c 1
 540 131 533 137 528 144 c 0
 522 152 519 161 519 172 c 0
 519 185 524 196 532 205 c 0
 542 214 553 219 567 219 c 0
 582 219 593 214 600 204 c 0
 608 194 612 183 612 170 c 0
 612 145 600 125 576 110 c 0
532 772 m 0
 529 769 527 764 527 759 c 0
 527 753 529 747 534 742 c 0
 539 736 544 731 551 728 c 1
 560 736 564 745 564 755 c 0x883f2788000808
 564 762 562 767 560 772 c 0
 556 776 552 778 546 778 c 0
 541 778 536 776 532 772 c 0
556 697 m 0
 533 682 502 673 463 671 c 1
 458 698 l 1
 473 699 487 700 499 703 c 0
 511 706 521 709 529 713 c 1
 520 718 513 724 508 732 c 0
 502 739 499 748 499 759 c 0x883f6788000808
 499 772 504 783 512 792 c 0
 522 801 533 806 547 806 c 0x883f6740000808
 562 806 573 801 580 791 c 0
 588 781 592 770 592 757 c 0
 592 732 580 712 556 697 c 0
122 164 m 0
 107 184 100 207 100 235 c 0
 100 248 102 263 106 280 c 0
 109 296 115 314 123 333 c 1
 162 317 l 1
 157 302 152 288 150 275 c 0
 146 262 145 250 145 239 c 0
 145 219 151 203 162 190 c 0
 174 177 190 168 210 162 c 0
 229 156 251 153 274 153 c 0
 303 153 329 156 352 162 c 0
 375 169 394 178 408 188 c 0
 421 200 428 212 428 225 c 0
 428 234 421 242 406 250 c 0
 391 256 371 264 345 271 c 1
 355 317 l 1
 393 302 423 292 444 286 c 0
 465 281 482 278 493 278 c 0
 514 278 528 280 536 284 c 0
 545 288 550 295 551 306 c 0
 552 316 553 330 552 349 c 2x883f2710000808
 542 629 l 1
 586 629 l 1x883f2720000808
 597 354 l 2x883f2710000808
 598 328 597 306 592 288 c 0
 587 270 577 256 561 247 c 0
 545 238 521 233 488 233 c 2
 467 233 l 1
 468 230 468 227 469 225 c 0
 470 223 470 220 470 217 c 0
 470 199 462 182 445 165 c 0
 428 148 404 135 374 124 c 0
 342 113 305 108 262 108 c 0
 233 108 206 113 182 122 c 0
 156 131 137 146 122 164 c 0
1492 567 m 1
 1333 517 l 1
 1333 543 l 1
 1492 594 l 1
 1492 567 l 1
1422 280 m 1
 1263 230 l 1
 1263 256 l 1
 1422 307 l 1
 1422 280 l 1
944 412 m 1
 821 376 l 1
 821 402 l 1
 944 438 l 1
 944 412 l 1
1566 481 m 1
 1342 400 l 1
 1342 426 l 1
 1566 507 l 1
 1566 481 l 1
979 923 m 1x883f2700004808
 949 923 l 1
 946 1018 l 1
 976 1018 l 1
 979 923 l 1x883f2700004808
956 815 m 0
 949 810 940 807 930 807 c 0
 915 807 906 812 901 822 c 0
 896 831 894 842 894 853 c 0
 894 857 894 861 894 866 c 0
 895 870 896 875 897 882 c 1
 924 889 l 1
 922 876 921 866 921 858 c 0
 921 845 926 838 935 838 c 0x883f3700012808
 940 838 945 841 948 846 c 0
 952 851 954 863 955 880 c 2
 955 897 l 1
 981 907 l 1
 981 873 l 2
 981 868 982 863 984 860 c 0
 986 856 990 854 997 854 c 0
 1004 854 1008 856 1010 860 c 0
 1012 864 1013 869 1013 876 c 0
 1013 882 1012 888 1011 894 c 0
 1010 901 1008 907 1005 913 c 1
 1030 921 l 1
 1033 914 1036 906 1039 897 c 0
 1042 888 1043 880 1043 873 c 0
 1043 861 1040 850 1032 840 c 0
 1026 830 1015 825 1001 825 c 0x883f2f00012808
 989 825 979 828 972 835 c 1
 969 827 963 820 956 815 c 0
754 567 m 0
 766 567 777 568 787 570 c 1x883fa701080808
 782 670 l 1
 761 668 744 663 729 656 c 0
 714 649 703 640 696 631 c 0
 688 622 684 613 684 604 c 0x883fa701100808
 684 595 687 588 694 583 c 0
 701 578 709 574 720 571 c 0
 731 568 742 567 754 567 c 0
954 480 m 0
 939 474 918 471 891 471 c 0
 867 471 846 475 830 484 c 0
 812 492 801 507 794 528 c 1
 775 523 756 522 738 522 c 0
 719 524 703 527 688 533 c 0
 673 539 662 547 654 558 c 0
 645 569 641 582 641 597 c 0
 641 616 647 634 660 651 c 0
 672 668 688 682 710 693 c 0
 730 704 754 712 780 716 c 1
 779 758 l 1
 823 758 l 1x883fa701100908
 832 576 l 2
 833 559 836 546 841 538 c 0
 846 529 854 524 863 520 c 0
 872 518 884 516 897 516 c 0
 918 516 932 518 940 522 c 0
 949 526 954 533 955 544 c 0x883fa700082808
 956 554 957 568 956 587 c 2
 949 786 l 1
 994 786 l 1
 1001 588 l 2
 1002 569 1005 555 1010 544 c 0
 1015 533 1022 526 1032 522 c 0
 1040 518 1051 516 1062 516 c 0
 1083 516 1097 518 1106 522 c 0
 1114 526 1119 533 1120 544 c 0
 1121 554 1122 568 1121 587 c 2x883fa700008908
 1110 867 l 1
 1155 867 l 1x883fa700000a08
 1166 592 l 2x883fa700000908
 1167 566 1165 544 1160 526 c 0
 1156 508 1146 494 1130 485 c 0
 1114 476 1089 471 1056 471 c 0
 1037 471 1023 475 1012 482 c 0
 1001 489 993 498 988 508 c 1
 981 496 969 487 954 480 c 0
1294 474 m 1x883f2700000818
 1250 474 l 1x883f2700000818
 1239 867 l 1
 1283 867 l 1x883f2700000828
 1294 474 l 1x883f2700000818
546 -2 m 0
 540 5 533 8 524 8 c 0xca3f2700000808
 516 8 507 4 498 -5 c 0
 488 -14 477 -29 466 -52 c 1
 479 -73 493 -89 508 -98 c 0
 523 -108 537 -113 549 -113 c 0xcc3f2700000808
 562 -113 571 -108 577 -99 c 0
 583 -90 583 -77 577 -61 c 0
 572 -50 568 -39 562 -28 c 0
 558 -17 552 -9 546 -2 c 0
584 -148 m 0x983f2704420808
 573 -154 562 -157 550 -157 c 0xc83f2704420808
 531 -157 512 -151 493 -140 c 0
 474 -128 457 -112 444 -93 c 1
 427 -116 406 -131 381 -140 c 0
 356 -148 329 -152 300 -152 c 0
 280 -152 260 -151 240 -148 c 0
 219 -145 199 -142 180 -139 c 1
 186 -101 l 1
 203 -102 222 -104 240 -104 c 0
 260 -106 277 -106 293 -106 c 0
 312 -106 330 -104 346 -100 c 0
 364 -97 379 -90 393 -80 c 0
 407 -70 419 -55 429 -35 c 0
 440 -12 451 6 463 19 c 0
 475 32 487 40 498 45 c 0
 509 50 519 52 528 52 c 0
 540 52 551 49 560 44 c 0
 569 39 578 30 586 17 c 0
 595 4 604 -13 613 -35 c 0
 621 -55 628 -70 636 -80 c 0
 642 -90 650 -97 657 -100 c 0x9a3f2720000808
 664 -103 673 -105 683 -105 c 0
 690 -105 696 -105 703 -105 c 0
 710 -105 716 -105 723 -104 c 1
 724 -77 729 -52 736 -29 c 0
 743 -6 753 13 764 30 c 0
 775 47 788 60 800 68 c 0
 814 78 827 82 840 82 c 0
 858 82 873 74 885 59 c 0
 897 44 903 23 903 -2 c 0
 903 -18 900 -34 896 -50 c 0
 890 -66 881 -80 866 -93 c 1
 881 -96 896 -99 912 -102 c 0
 927 -104 944 -105 961 -105 c 0
 961.336423434 -105 961.669309971 -105.003536898 961.998585241 -105.010610693 c 1
 961.998585241 -105.007073795 962 -105.003536898 962 -105 c 1xa93f2720440808
 972 -105 980 -103 986 -98 c 0
 992 -93 998 -86 1004 -76 c 0
 1009 -66 1016 -52 1025 -35 c 0
 1037 -12 1049 6 1061 19 c 0
 1073 32 1084 40 1095 45 c 0
 1106 50 1115 52 1124 52 c 0
 1136 52 1147 49 1156 44 c 0
 1166 39 1175 30 1184 17 c 0
 1192 4 1201 -13 1210 -35 c 0
 1218 -55 1226 -70 1232 -80 c 0
 1240 -90 1247 -97 1254 -100 c 0x9a3f2720440808
 1261 -103 1270 -105 1279 -105 c 0
 1317 -105 1354 -99 1389 -88 c 0
 1424 -77 1457 -61 1486 -40 c 1
 1472 -27 1454 -17 1434 -10 c 0
 1412 -2 1390 2 1365 2 c 0
 1356 2 1348 2 1342 0 c 0
 1334 0 1326 -2 1316 -5 c 1xac3f2720440808
 1307 37 l 1
 1328 44 1347 47 1365 47 c 0
 1384 47 1402 45 1417 40 c 0
 1432 35 1446 30 1459 23 c 0
 1472 16 1484 10 1494 3 c 0
 1506 -4 1516 -9 1527 -14 c 0
 1538 -18 1549 -20 1561 -20 c 2
 1572 -20 l 1
 1576 -60 l 1
 1557 -60 1540 -63 1524 -69 c 0
 1509 -75 1493 -82 1478 -92 c 0
 1463 -100 1446 -110 1428 -118 c 0
 1409 -128 1388 -135 1362 -141 c 0
 1338 -147 1308 -150 1274 -150 c 0xa93f2720440808
 1259 -150 1246 -148 1234 -143 c 0x983f2720440808
 1223 -138 1213 -131 1206 -122 c 1
 1199 -134 1191 -143 1180 -148 c 0
 1169 -154 1158 -157 1146 -157 c 0xc83f2720440808
 1128 -157 1110 -151 1090 -140 c 0
 1072 -129 1055 -113 1042 -94 c 1
 1033 -111 1024 -123 1015 -131 c 0
 1006 -139 997 -144 988 -146 c 0
 979 -149 968 -150 956 -150 c 0
 943 -150 929 -149 914 -147 c 1
 922 -160 926 -173 928 -186 c 0
 928 -200 926 -213 920 -225 c 0
 914 -237 905 -247 892 -254 c 0
 880 -262 865 -266 846 -266 c 0
 814 -266 786 -256 764 -236 c 0
 740 -217 727 -187 723 -146 c 1
 716 -147 708 -148 700 -149 c 0
 693 -150 685 -150 677 -150 c 0xa83f2700420808
 663 -150 650 -148 638 -143 c 0
 626 -138 616 -131 609 -122 c 1
 602 -134 594 -143 584 -148 c 0x983f2704420808
824 -218 m 0
 833 -220 840 -221 847 -221 c 0
 856 -221 866 -218 875 -213 c 0
 884 -208 889 -198 889 -183 c 0x883f2700420808
 889 -174 887 -165 882 -158 c 0
 877 -150 869 -144 858 -139 c 0x883f2700040808
 847 -134 831 -132 810 -132 c 0
 803 -132 796 -132 790 -134 c 0
 782 -134 775 -136 768 -137 c 1
 770 -155 774 -170 780 -181 c 0
 786 -192 793 -201 800 -206 c 0
 808 -212 816 -216 824 -218 c 0
849 30 m 0
 846 34 841 37 836 37 c 0
 829 37 820 31 810 20 c 0
 799 8 790 -8 782 -29 c 0
 773 -50 768 -74 767 -101 c 1
 784 -98 800 -94 814 -88 c 0
 827 -81 838 -72 846 -59 c 0
 854 -46 858 -29 858 -7 c 0x893f2700140808
 858 -2 857 4 856 12 c 0
 855 18 852 24 849 30 c 0
1094 -5 m 0x8c3f2700000d08
 1085 -14 1074 -29 1063 -52 c 1
 1075 -73 1089 -89 1104 -98 c 0
 1120 -108 1134 -113 1146 -113 c 0
 1159 -113 1168 -108 1174 -99 c 0
 1180 -90 1180 -77 1173 -61 c 0
 1169 -50 1164 -39 1160 -28 c 0
 1154 -17 1149 -9 1143 -2 c 0
 1137 5 1130 8 1121 8 c 0xca3f2700000d08
 1113 8 1104 4 1094 -5 c 0x8c3f2700000d08
826 263 m 1
 854 240 877 219 907 187 c 1
 939 208 958 233 958 257 c 0x883f2700001808
 958 271 944 289 904 289 c 0
 879 289 844 278 826 263 c 1
1090 387 m 0
 1075 387 1063 399 1063 414 c 0
 1063 429 1075 442 1090 442 c 0
 1105 442 1118 429 1118 414 c 0x883f2700000c08
 1118 399 1105 387 1090 387 c 0
1166 387 m 0x883f2700000908
 1151 387 1139 399 1139 414 c 0x883f2700000848
 1139 429 1151 442 1166 442 c 0x883f2700000908
 1181 442 1194 429 1194 414 c 0x883f2700000848
 1194 399 1181 387 1166 387 c 0x883f2700000908
1300 104 m 1
 1295 149 l 1
 1413 155 1455 206 1467 253 c 0
 1475 284 1473 308 1458 368 c 1
 1502 378 l 1
 1517 324 1517 278 1508 247 c 0
 1479 133 1360 104 1300 104 c 1
761 148 m 0x887f2700800808
 800 148 836 155 867 167 c 1
 849 188 827 210 800 229 c 0
 793 235 786 258 786 266 c 0
 786 289 847 334 913 334 c 0
 976 334 1002 302 1002 269 c 0
 1002 232 980 195 944 165 c 1
 975 153 1014 148 1051 148 c 0
 1116 148 1136 151 1136 196 c 0
 1136 224 1120 270 1104 313 c 1
 1149 329 l 1
 1163 293 1178 238 1178 205 c 0
 1178 130 1139 103 1045 103 c 0
 996 103 941 114 901 138 c 1
 861 116 810 103 756 103 c 0
 666 103 648 132 645 198 c 2x887f2700801888
 634 502 l 1
 680 502 l 1x887f2702000808
 691 216 l 2
 693 162 698 148 761 148 c 0x887f2700800808
EndSplineSet
EndChar

StartChar: uniFBC9
Encoding: 64457 64457 13
Width: 1541
GlyphClass: 1
Flags: W
HStem: 52 45<657.69 745.343> 161 45<363.101 444.936 958.809 1040.57> 168 45<164.307 264.269 504.548 587.673 779 826.999 827 863.823 1100.02 1268.43> 258 40<1364.76 1437> 316 27<198.704 262.506> 320 45<1181.47 1319.7> 326 44<353.429 420.104 951.786 1016.88> 355 45<670.441 717.048> 407 45<966 1058.35> 423 28<267.446 299.903> 426 45<446.179 552.285 618.48 716.42> 478 44<293.704 392> 625 46<320.216 385> 762 31<526.409 555.153> 780 29<587.806 616.184>
VStem: 100 46<386.364 569> 111 46<221.734 458.455> 184 30<552 697> 236 28<379.413 419.906> 246 43<531.43 595.768> 301 28<373.202 422.437> 387 41<571.444 625 667.541 713> 392 45<522.589 625> 499 27<793.14 837> 554 45<627.286 741> 554 30<878 973> 560 26<814.188 852> 561 45<482.229 741> 588 44<217 305.531> 618 30<812.199 871.53> 715 45<647 822> 723 45<246.578 351.34 477.19 682> 754 38<105.238 170.391> 844 44<571.909 822> 855 44<429 679.091> 1124 44<502.574 672.591>
LayerCount: 2
Fore
SplineSet
330 267 m 1xd018490010
 355 225 389 206 414 206 c 0
 439 206 455 226 441 259 c 0
 428 292 414 329 389 328 c 0
 372 328 353 314 330 267 c 1xd018490010
214 552 m 1
 184 552 l 1
 181 697 l 1
 211 697 l 1
 214 552 l 1
270 418 m 0
 266 414 264 409 264 404 c 0
 264 398 266 392 271 386 c 0
 276 381 281 376 288 373 c 1
 297 381 301 390 301 400 c 0
 301 407 300 412 296 416 c 0
 294 421 289 423 283 423 c 0x9158690010
 278 423 273 421 270 418 c 0
294 342 m 0
 270 327 239 318 200 316 c 1
 195 343 l 1x9858690010
 210 344 224 345 236 348 c 0
 248 351 258 354 266 358 c 1
 257 363 250 369 244 376 c 0
 239 384 236 393 236 404 c 0
 236 417 240 428 250 437 c 0
 258 446 270 451 284 451 c 0
 299 451 310 446 318 436 c 0
 325 426 329 415 329 402 c 0
 329 377 317 357 294 342 c 0
1232 784 m 1
 1008 703 l 1
 1008 729 l 1
 1232 810 l 1
 1232 784 l 1
584 878 m 1x9018494010
 554 878 l 1
 551 973 l 1
 581 973 l 1
 584 878 l 1x9018494010
561 770 m 0x901a491410
 554 765 545 762 535 762 c 0
 520 762 511 767 506 776 c 0
 501 786 499 797 499 808 c 0
 499 812 499 816 500 820 c 0
 500 825 501 830 502 837 c 1
 529 844 l 1
 527 831 526 821 526 813 c 0
 526 800 531 793 540 793 c 0
 545 793 550 796 554 801 c 0x901c494010
 557 806 559 818 560 835 c 2
 560 852 l 1
 586 862 l 1
 586 828 l 2x901c492010
 586 823 587 818 589 814 c 0
 591 811 595 809 602 809 c 0
 609 809 613 811 615 815 c 0
 617 819 618 824 618 831 c 0
 618 837 617 843 616 850 c 0
 615 856 613 862 610 868 c 1
 635 876 l 1
 638 869 641 861 644 852 c 0
 647 843 648 835 648 828 c 0
 648 816 644 805 638 795 c 0
 630 785 620 780 606 780 c 0
 594 780 584 783 577 790 c 1
 574 782 568 775 561 770 c 0x901a491410
359 522 m 0
 371 522 382 523 392 525 c 1x90185b0010
 387 625 l 1
 366 623 349 618 334 611 c 0
 319 604 308 595 300 586 c 0
 293 577 289 568 289 559 c 0x90185d0010
 289 550 292 543 299 538 c 0
 306 533 314 529 325 526 c 0
 336 523 347 522 359 522 c 0
559 436 m 0
 544 429 523 426 496 426 c 0
 472 426 452 430 434 438 c 0
 418 447 406 462 399 483 c 1
 380 478 361 476 342 478 c 0
 324 478 308 482 293 488 c 0
 278 494 267 502 258 513 c 0
 250 524 246 537 246 552 c 0x9038591210
 246 571 252 589 264 606 c 0
 277 623 294 637 314 648 c 0
 336 659 359 667 385 671 c 1
 384 713 l 1
 428 713 l 1x90386d0010
 437 531 l 2
 438 514 441 501 446 492 c 0
 451 484 459 478 468 476 c 0
 477 472 489 471 502 471 c 0
 523 471 537 473 546 477 c 0
 554 481 559 488 560 498 c 0x90384b2010
 561 509 562 523 561 542 c 2x9038491010
 554 741 l 1
 599 741 l 1x9038498010
 606 543 l 2
 607 524 610 510 615 499 c 0
 620 488 628 481 636 477 c 0
 646 473 656 471 667 471 c 0
 688 471 702 473 710 477 c 0
 719 481 724 488 725 498 c 0
 726 509 727 523 726 542 c 2
 715 822 l 1
 760 822 l 1
 771 547 l 2
 772 521 770 499 766 481 c 0
 761 463 751 449 735 440 c 0
 719 431 694 426 661 426 c 0x9038491210
 642 426 628 430 617 437 c 0
 606 444 598 453 593 463 c 1
 586 451 574 442 559 436 c 0
899 429 m 1x9018490030
 855 429 l 1x9018490030
 844 822 l 1
 888 822 l 1x9018490050
 899 429 l 1x9018490030
690 100 m 0
 698 98 705 97 712 97 c 0
 721 97 731 100 740 105 c 0
 749 110 754 120 754 135 c 0x9018490090
 754 144 752 153 747 160 c 0
 742 168 734 174 723 179 c 0x9018490110
 712 184 696 186 675 186 c 0
 668 186 662 186 654 184 c 0
 648 184 640 182 633 181 c 1
 635 163 639 148 645 137 c 0
 651 126 658 117 666 112 c 0
 673 106 681 102 690 100 c 0
714 348 m 0
 711 352 706 355 701 355 c 0
 694 355 685 349 674 338 c 0
 664 326 655 310 646 289 c 0
 638 268 633 244 632 217 c 1
 649 220 665 224 678 230 c 0
 692 237 703 246 711 259 c 0
 719 272 723 289 723 311 c 0x9118490910
 723 316 722 322 721 330 c 0
 720 336 717 342 714 348 c 0
566 169 m 0
 558 168 550 168 542 168 c 1xb018490890
 542.133691407 169.00268555 l 1
 513.502525508 169.180478834 488.860400904 178.189455917 475 197 c 1
 461 172 439 161 414 161 c 0
 377 161 335 186 308 225 c 1
 280 174 258 169 222 169 c 0
 132 169 113 198 111 265 c 2xd018c90890
 100 569 l 1
 146 569 l 1xd019490010
 157 282 l 2
 159 228 163 214 227 214 c 0
 258 214 265 232 292 285 c 0
 327 356 366 373 392 373 c 0
 429 373 451 352 478 285 c 0
 503 223 519 214 549 214 c 0
 551.819247488 214 554.35589386 213.646748604 556.616578469 213 c 2
 568 213 l 2
 575 213 581 213 588 214 c 1
 589 241 594 266 601 289 c 0
 608 312 618 331 629 348 c 0
 640 365 652 378 666 386 c 0
 678 396 692 400 705 400 c 0
 723 400 738 392 750 377 c 0
 762 362 768 341 768 316 c 0xb918cb0910
 768 300 766 284 760 268 c 0
 756 252 746 238 731 225 c 1
 746 222 761 219 776 216 c 0
 792 214 809 213 826 213 c 0
 826.336423434 213 826.669309971 212.996463102 826.998585241 212.989389307 c 1
 826.998585241 212.992926205 827 212.996463102 827 213 c 1
 837 213 845 215 851 220 c 0
 857 225 863 232 868 242 c 0
 874 252 881 266 890 283 c 0
 902 306 914 324 926 337 c 0
 938 350 949 358 960 363 c 0
 971 368 980 370 989 370 c 0xb218490210
 1001 370 1012 367 1022 362 c 0
 1031 357 1040 348 1048 335 c 0
 1057 322 1066 305 1075 283 c 0
 1083 263 1090 248 1098 238 c 0
 1104 228 1112 221 1119 218 c 0
 1126 215 1135 213 1144 213 c 0
 1182 213 1219 219 1254 230 c 0
 1289 241 1322 257 1351 278 c 1
 1337 291 1320 301 1298 308 c 0
 1278 316 1255 320 1230 320 c 0xb418490210
 1221 320 1214 320 1206 318 c 0
 1200 318 1191 316 1181 313 c 1
 1172 355 l 1x9118490210
 1193 362 1212 365 1230 365 c 0
 1249 365 1267 363 1282 358 c 0
 1297 353 1311 348 1324 341 c 0
 1337 334 1348 328 1360 321 c 0
 1370 314 1381 309 1392 304 c 0
 1403 300 1414 298 1426 298 c 2
 1437 298 l 1
 1441 258 l 1
 1422 258 1405 255 1390 249 c 0
 1374 243 1358 236 1343 226 c 0
 1328 218 1311 208 1292 200 c 0
 1274 190 1252 183 1228 177 c 0
 1202 171 1173 168 1139 168 c 0xb418490210
 1124 168 1111 170 1100 175 c 0
 1088 180 1078 187 1071 196 c 1
 1064 184 1056 175 1045 170 c 0
 1034 164 1023 161 1011 161 c 0xd018490210
 993 161 974 167 956 178 c 0
 936 189 920 205 907 224 c 1
 898 207 889 195 880 187 c 0
 871 179 862 174 853 172 c 0
 844 169 833 168 821 168 c 0
 808 168 794 169 779 171 c 1
 787 158 792 145 792 132 c 0xb018490090
 794 118 791 105 785 93 c 0
 779 81 770 71 758 64 c 0
 745 56 730 52 711 52 c 0
 679 52 652 62 628 82 c 0
 606 101 592 131 588 172 c 1
 581 171 573 170 566 169 c 0
960 313 m 0
 950 304 939 289 928 266 c 1
 940 245 954 229 970 220 c 0
 985 210 999 205 1011 205 c 0
 1024 205 1033 210 1039 219 c 0
 1045 228 1045 241 1038 257 c 0
 1034 268 1030 279 1024 290 c 0
 1020 301 1014 309 1008 316 c 0x9818490010
 1002 323 995 326 986 326 c 0x9218490010
 978 326 969 322 960 313 c 0
966 407 m 1x9098490010
 961 452 l 1
 1079 458 1121 509 1133 556 c 0
 1141 587 1139 611 1124 671 c 1
 1168 681 l 1
 1183 627 1183 581 1174 550 c 0
 1145 436 1026 407 966 407 c 1x9098490010
EndSplineSet
EndChar

StartChar: uniFBCA
Encoding: 64458 64458 14
Width: 1676
GlyphClass: 1
Flags: W
HStem: -272 45<792.454 880.364> -164 45<497.101 578.936 1094.48 1175.57> -156 45<298.007 399.33 637.541 723 914 961.999 962 999.219 1234.58 1403.65> -66 40<1499.55 1572> -11 42<1315.57 1364.16 1366.17 1467.09> -4 45<1316.47 1454.69> 2 44<487.429 553.5 1086.33 1151.7> 31 45<805.908 852.048> 78 27<481.704 545.385> 97 45<286.752 373.992 698.224 866.245 944.969 1131.4> 185 28<550.094 581.28> 227 45<467.479 535.621> 283 45<831.53 955.558> 381 55<1063.69 1117.26 1139.69 1193.26> 465 45<852.31 946.457 1013.43 1111.9> 516 45<688.431 787> 664 46<714.949 780> 665 27<461.704 525.385> 772 28<530.094 561.28> 801 31<921.409 949.494> 819 29<982.806 1010.98>
VStem: 100 45<184.612 310.298> 240.451 46.301<94.0909 102.591 149.442 334> 273 30<497 642> 428 42<181.979 226.818> 499 28<728.636 768.429> 519 28<141.413 181.906> 542 44<448 623> 552 45<278.19 523> 564 28<722.202 768.491> 584 28<135.202 181.014> 634 46<314 496> 641 43<570.43 634.564> 645 46<149.312 385.455> 723 45<-200.959 -152 -107 -16.7468> 732 30<255 400> 782 41<610.444 664 706.541 752> 787 45<561.594 664> 858 45<-77.4216 27.3405> 889 39<-219.994 -153.346> 894 27<832.233 876> 949 45<666.286 780> 949 30<917 1012> 955 26<854.142 891> 958 44<205.02 277.145 520.382 647.333> 1013 30<851.199 910.53> 1063 55<381.687 435.259> 1110 45<686 861> 1121 45<516.19 759.182> 1136 42<148.498 276.594> 1139 55<381.687 435.259> 1239 44<610.909 861> 1250 44<468 718.091> 1458 44<193.574 363.591>
LayerCount: 2
Fore
SplineSet
464 -58 m 1xd03f2480000404
 489 -100 523 -119 548 -119 c 0
 573 -119 589 -99 575 -66 c 0
 562 -33 548 4 523 3 c 0
 506 3 487 -11 464 -58 c 1xd03f2480000404
762 255 m 1x903f2480100404
 732 255 l 1
 729 400 l 1
 759 400 l 1
 762 255 l 1x903f2480100404
303 497 m 1x903f2580000404
 273 497 l 1
 270 642 l 1
 300 642 l 1
 303 497 l 1x903f2580000404
552 180 m 0x903f2488000404
 549 176 547 171 547 166 c 0
 547 160 549 154 554 148 c 0
 559 143 564 138 571 135 c 1
 580 143 584 152 584 162 c 0x903f24a2000404
 584 169 582 174 580 178 c 0
 576 183 572 185 566 185 c 0
 561 185 556 183 552 180 c 0x903f2488000404
576 104 m 0
 553 89 522 80 483 78 c 1
 478 105 l 1x90bf24a2000404
 493 106 507 107 519 110 c 0
 531 113 541 116 549 120 c 1
 540 125 533 131 528 138 c 0
 522 146 519 155 519 166 c 0
 519 179 524 190 532 199 c 0
 542 208 553 213 567 213 c 0
 582 213 593 208 600 198 c 0
 608 188 612 177 612 164 c 0
 612 139 600 119 576 104 c 0
532 766 m 0
 529 763 527 758 527 753 c 0
 527 747 529 741 534 736 c 0
 539 730 544 725 551 722 c 1
 560 730 564 739 564 749 c 0x903f24c4000404
 564 756 562 761 560 766 c 0
 556 770 552 772 546 772 c 0
 541 772 536 770 532 766 c 0
556 691 m 0
 533 676 502 667 463 665 c 1
 458 692 l 1
 473 693 487 694 499 697 c 0
 511 700 521 703 529 707 c 1
 520 712 513 718 508 726 c 0
 502 733 499 742 499 753 c 0x903f64c4000404
 499 766 504 777 512 786 c 0
 522 795 533 800 547 800 c 0x903f64a0000404
 562 800 573 795 580 785 c 0
 588 775 592 764 592 751 c 0
 592 726 580 706 556 691 c 0
122 158 m 0
 107 178 100 201 100 229 c 0
 100 242 102 257 106 274 c 0
 109 290 115 308 123 327 c 1
 162 311 l 1
 157 296 152 282 150 269 c 0
 146 256 145 244 145 233 c 0
 145 213 151 197 162 184 c 0
 174 171 190 162 210 156 c 0
 219.102319329 153.12558337 228.893161238 150.93968932 239.152625644 149.44231785 c 1
 234 334 l 1
 280 334 l 1
 285.451555417 147.160327986 l 1
 309.886993395 147.854262207 332.069808256 150.800819545 352 156 c 0
 375 163 394 172 408 182 c 0
 421 194 428 206 428 219 c 0
 428 228 421 236 406 244 c 0
 391 250 371 258 345 265 c 1
 355 311 l 1
 393 296 423 286 444 280 c 0
 465 275 482 272 493 272 c 0
 514 272 528 274 536 278 c 0
 545 282 550 289 551 300 c 0
 552 310 553 324 552 343 c 2xb03f2688210404
 542 623 l 1
 586 623 l 1xb03f2490000404
 597 348 l 2xb03f2488000404
 598 322 597 300 592 282 c 0xb03f2484000404
 587 264 577 250 561 241 c 0
 545 232 521 227 488 227 c 2
 467 227 l 1
 468 224 468 221 469 219 c 0
 470 217 470 214 470 211 c 0
 470 193 462 176 445 159 c 0
 428 142 404 129 374 118 c 0
 348.311840237 109.169695081 319.401602582 104.205883632 286.751979215 102.591257828 c 1
 291 -43 l 2
 293 -97 297 -111 361 -111 c 0
 392 -111 399 -93 426 -40 c 0
 461 31 500 48 526 48 c 0
 563 48 585 27 612 -40 c 0
 637 -102 653 -111 683 -111 c 0
 690 -111 696 -111 703 -111 c 0
 710 -111 716 -111 723 -110 c 1
 724 -83 729 -58 736 -35 c 0
 743 -12 753 7 764 24 c 0
 775 41 788 54 800 62 c 0
 814 72 827 76 840 76 c 0xb13f2682200404
 858 76 873 68 885 53 c 0
 897 38 903 17 903 -8 c 0
 903 -24 900 -40 896 -56 c 0
 890 -72 881 -86 866 -99 c 1
 881 -102 896 -105 912 -108 c 0
 927 -110 944 -111 961 -111 c 0
 961.336423434 -111 961.669309971 -111.003536898 961.998585241 -111.010610693 c 1
 961.998585241 -111.007073795 962 -111.003536898 962 -111 c 1
 972 -111 980 -109 986 -104 c 0
 992 -99 998 -92 1004 -82 c 0
 1009 -72 1016 -58 1025 -41 c 0
 1037 -18 1049 0 1061 13 c 0
 1073 26 1084 34 1095 39 c 0
 1106 44 1115 46 1124 46 c 0xb23f2682220404
 1136 46 1147 43 1156 38 c 0
 1166 33 1175 24 1184 11 c 0
 1192 -2 1201 -19 1210 -41 c 0
 1218 -61 1226 -76 1232 -86 c 0
 1240 -96 1247 -103 1254 -106 c 0
 1261 -109 1270 -111 1279 -111 c 0
 1317 -111 1354 -105 1389 -94 c 0
 1424 -83 1457 -67 1486 -46 c 1
 1472 -33 1454 -23 1434 -16 c 0
 1412 -8 1390 -4 1365 -4 c 0xb43f2682220404
 1356 -4 1348 -4 1342 -6 c 0
 1334 -6 1326 -8 1316 -11 c 1x983f2682220404
 1307 31 l 1x913f2682220404
 1328 38 1347 41 1365 41 c 0
 1384 41 1402 39 1417 34 c 0
 1432 29 1446 24 1459 17 c 0
 1472 10 1484 4 1494 -3 c 0
 1506 -10 1516 -15 1527 -20 c 0
 1538 -24 1549 -26 1561 -26 c 2
 1572 -26 l 1
 1576 -66 l 1
 1557 -66 1540 -69 1524 -75 c 0
 1509 -81 1493 -88 1478 -98 c 0
 1463 -106 1446 -116 1428 -124 c 0
 1409 -134 1388 -141 1362 -147 c 0
 1338 -153 1308 -156 1274 -156 c 0
 1259 -156 1246 -154 1234 -149 c 0
 1223 -144 1213 -137 1206 -128 c 1
 1199 -140 1191 -149 1180 -154 c 0
 1169 -160 1158 -163 1146 -163 c 0
 1128 -163 1110 -157 1090 -146 c 0
 1072 -135 1055 -119 1042 -100 c 1
 1033 -117 1024 -129 1015 -137 c 0
 1006 -145 997 -150 988 -152 c 0
 979 -155 968 -156 956 -156 c 0
 943 -156 929 -155 914 -153 c 1
 922 -166 926 -179 928 -192 c 0
 928 -206 926 -219 920 -231 c 0
 914 -243 905 -253 892 -260 c 0
 880 -268 865 -272 846 -272 c 0
 814 -272 786 -262 764 -242 c 0
 740 -223 727 -193 723 -152 c 1
 716 -153 708 -154 700 -155 c 0
 693 -156 685 -156 677 -156 c 0xb43f2480210404
 648 -156 623 -147 609 -128 c 1
 595 -153 573 -164 548 -164 c 0xd03f2480210404
 511 -164 469 -139 442 -100 c 1
 414 -151 392 -156 356 -156 c 0
 266 -156 247 -127 245 -60 c 2
 240.450955602 102.938499348 l 1xb03f2680210404
 219.568685129 104.77718169 199.945677604 109.270370898 182 116 c 0
 156 125 137 140 122 158 c 0
1492 561 m 1
 1333 511 l 1
 1333 537 l 1
 1492 588 l 1
 1492 561 l 1
1422 274 m 1
 1263 224 l 1
 1263 250 l 1
 1422 301 l 1
 1422 274 l 1
944 406 m 1
 821 370 l 1
 821 396 l 1
 944 432 l 1
 944 406 l 1
1566 475 m 1
 1342 394 l 1
 1342 420 l 1
 1566 501 l 1
 1566 475 l 1
979 917 m 1x903f2480002404
 949 917 l 1
 946 1012 l 1
 976 1012 l 1
 979 917 l 1x903f2480002404
956 809 m 0
 949 804 940 801 930 801 c 0
 915 801 906 806 901 816 c 0
 896 825 894 836 894 847 c 0
 894 851 894 855 894 860 c 0
 895 864 896 869 897 876 c 1
 924 883 l 1
 922 870 921 860 921 852 c 0
 921 839 926 832 935 832 c 0x903f3480009404
 940 832 945 835 948 840 c 0
 952 845 954 857 955 874 c 2
 955 891 l 1
 981 901 l 1
 981 867 l 2
 981 862 982 857 984 854 c 0
 986 850 990 848 997 848 c 0
 1004 848 1008 850 1010 854 c 0
 1012 858 1013 863 1013 870 c 0
 1013 876 1012 882 1011 888 c 0
 1010 895 1008 901 1005 907 c 1
 1030 915 l 1
 1033 908 1036 900 1039 891 c 0
 1042 882 1043 874 1043 867 c 0
 1043 855 1040 844 1032 834 c 0
 1026 824 1015 819 1001 819 c 0x903f2c80009404
 989 819 979 822 972 829 c 1
 969 821 963 814 956 809 c 0
754 561 m 0
 766 561 777 562 787 564 c 1x903fa480840404
 782 664 l 1
 761 662 744 657 729 650 c 0
 714 643 703 634 696 625 c 0
 688 616 684 607 684 598 c 0x903fa480880404
 684 589 687 582 694 577 c 0
 701 572 709 568 720 565 c 0
 731 562 742 561 754 561 c 0
954 474 m 0
 939 468 918 465 891 465 c 0
 867 465 846 469 830 478 c 0
 812 486 801 501 794 522 c 1
 775 517 756 516 738 516 c 0
 719 518 703 521 688 527 c 0
 673 533 662 541 654 552 c 0
 645 563 641 576 641 591 c 0
 641 610 647 628 660 645 c 0
 672 662 688 676 710 687 c 0
 730 698 754 706 780 710 c 1
 779 752 l 1
 823 752 l 1x903fa480880484
 832 570 l 2
 833 553 836 540 841 532 c 0
 846 523 854 518 863 514 c 0
 872 512 884 510 897 510 c 0
 918 510 932 512 940 516 c 0
 949 520 954 527 955 538 c 0x903fa480041404
 956 548 957 562 956 581 c 2
 949 780 l 1
 994 780 l 1
 1001 582 l 2
 1002 563 1005 549 1010 538 c 0
 1015 527 1022 520 1032 516 c 0
 1040 512 1051 510 1062 510 c 0
 1083 510 1097 512 1106 516 c 0
 1114 520 1119 527 1120 538 c 0
 1121 548 1122 562 1121 581 c 2x903fa480004484
 1110 861 l 1
 1155 861 l 1x903fa480000504
 1166 586 l 2x903fa480000484
 1167 560 1165 538 1160 520 c 0
 1156 502 1146 488 1130 479 c 0
 1114 470 1089 465 1056 465 c 0
 1037 465 1023 469 1012 476 c 0
 1001 483 993 492 988 502 c 1
 981 490 969 481 954 474 c 0
1294 468 m 1x903f248000040c
 1250 468 l 1x903f248000040c
 1239 861 l 1
 1283 861 l 1x903f2480000414
 1294 468 l 1x903f248000040c
824 -224 m 0
 833 -226 840 -227 847 -227 c 0
 856 -227 866 -224 875 -219 c 0
 884 -214 889 -204 889 -189 c 0xd03f2480210404
 889 -180 887 -171 882 -164 c 0
 877 -156 869 -150 858 -145 c 0
 847 -140 831 -138 810 -138 c 0
 803 -138 796 -138 790 -140 c 0
 782 -140 775 -142 768 -143 c 1xd03f2480220404
 770 -161 774 -176 780 -187 c 0
 786 -198 793 -207 800 -212 c 0
 808 -218 816 -222 824 -224 c 0
849 24 m 0
 846 28 841 31 836 31 c 0
 829 31 820 25 810 14 c 0
 799 2 790 -14 782 -35 c 0
 773 -56 768 -80 767 -107 c 1
 784 -104 800 -100 814 -94 c 0
 827 -87 838 -78 846 -65 c 0
 854 -52 858 -35 858 -13 c 0x913f24800a0404
 858 -8 857 -2 856 6 c 0
 855 12 852 18 849 24 c 0
1094 -11 m 0x983f2480000684
 1085 -20 1074 -35 1063 -58 c 1
 1075 -79 1089 -95 1104 -104 c 0
 1120 -114 1134 -119 1146 -119 c 0
 1159 -119 1168 -114 1174 -105 c 0
 1180 -96 1180 -83 1173 -67 c 0
 1169 -56 1164 -45 1160 -34 c 0
 1154 -23 1149 -15 1143 -8 c 0
 1137 -1 1130 2 1121 2 c 0xd23f2480000684
 1113 2 1104 -2 1094 -11 c 0x983f2480000684
826 257 m 1
 854 234 877 213 907 181 c 1
 939 202 958 227 958 251 c 0x903f2480000c04
 958 265 944 283 904 283 c 0
 879 283 844 272 826 257 c 1
1090 381 m 0
 1075 381 1063 393 1063 408 c 0
 1063 423 1075 436 1090 436 c 0
 1105 436 1118 423 1118 408 c 0x903f2480000604
 1118 393 1105 381 1090 381 c 0
1166 381 m 0x903f2480000484
 1151 381 1139 393 1139 408 c 0x903f2480000424
 1139 423 1151 436 1166 436 c 0x903f2480000484
 1181 436 1194 423 1194 408 c 0x903f2480000424
 1194 393 1181 381 1166 381 c 0x903f2480000484
1300 98 m 1
 1295 143 l 1
 1413 149 1455 200 1467 247 c 0
 1475 278 1473 302 1458 362 c 1
 1502 372 l 1
 1517 318 1517 272 1508 241 c 0
 1479 127 1360 98 1300 98 c 1
761 142 m 0x907f2480400404
 800 142 836 149 867 161 c 1
 849 182 827 204 800 223 c 0
 793 229 786 252 786 260 c 0
 786 283 847 328 913 328 c 0
 976 328 1002 296 1002 263 c 0
 1002 226 980 189 944 159 c 1
 975 147 1014 142 1051 142 c 0
 1116 142 1136 145 1136 190 c 0
 1136 218 1120 264 1104 307 c 1
 1149 323 l 1
 1163 287 1178 232 1178 199 c 0
 1178 124 1139 97 1045 97 c 0
 996 97 941 108 901 132 c 1
 861 110 810 97 756 97 c 0
 666 97 648 126 645 192 c 2x907f2480400c44
 634 496 l 1
 680 496 l 1x907f2481000404
 691 210 l 2
 693 156 698 142 761 142 c 0x907f2480400404
EndSplineSet
EndChar

StartChar: uniFBCB
Encoding: 64459 64459 15
Width: 2153
GlyphClass: 1
Flags: W
HStem: -195 44<786.322 866.553> -188 46<474.798 677.06 925.441 970.87 971 1174.3 1232.02 1399.58> -177 38<473.053 527.156 925.441 970.404> -30 44<777.708 842.87> -20 45<1561 1701.26> 13 45<1404.73 1507.45> 27 55<1179.24 1217.76> 45 45<189.984 374.125 698.224 866.245 944.969 1131.4> 125 45<1285.59 1490.13> 175 45<467.479 535.621> 231 45<831.53 955.558> 243 46<1781 1975.31> 329 55<1063.69 1117.26 1139.69 1193.26> 414 45<865.217 970.808 1037.43 1135.9 1887.34 1998.12> 466 44<712.704 811> 516 55<1910.74 1964.31> 613 46<738.949 804> 651 27<563.704 627.385> 750 31<945.409 973.494> 758 28<632.094 663.28> 768 29<1006.81 1034.98>
VStem: 100 45<132.612 258.298> 273 30<445 590> 428 42<129.979 174.818> 542 44<396 571> 544 30<-26 119> 552 45<226.19 471> 601 28<714.636 754.429> 634 46<262 444> 645 46<97.3125 333.455> 665 43<519.43 583.564> 666 28<708.202 754.491> 732 30<203 348> 806 41<559.444 613 655.541 701> 811 45<510.589 613> 918 27<781.14 825> 958 44<153.02 225.145> 973 45<615.286 729> 973 30<866 961> 979 26<802.188 840> 980 45<470.229 729> 1037 30<800.199 859.53> 1063 55<329.687 383.259> 1136 42<96.4977 224.594 654.444 810> 1139 55<329.687 383.259 465.19 586> 1171 55<35.2358 73.718> 1203 45<204.786 340.957> 1263 44<559.909 810> 1274 44<417 667.091> 1345 45<-94.7495 -2.07434> 1535 42<206.488 250.753> 1759 45<80.2872 213> 1910 55<516.687 570.259> 2010 43<319.56 401.821>
LayerCount: 2
Fore
SplineSet
1003 866 m 1x00cf071092007c
 973 866 l 1
 970 961 l 1
 1000 961 l 1
 1003 866 l 1x00cf071092007c
980 758 m 0x00cf171090c07c
 973 753 964 750 954 750 c 0
 939 750 930 755 925 764 c 0
 920 774 918 785 918 796 c 0
 918 800 918 804 918 808 c 0
 919 813 920 818 921 825 c 1
 948 832 l 1
 946 819 945 809 945 801 c 0
 945 788 950 781 959 781 c 0x00cf271090c07c
 964 781 969 784 972 789 c 0
 976 794 978 806 979 823 c 2
 979 840 l 1
 1005 850 l 1
 1005 816 l 2
 1005 811 1006 806 1008 802 c 0
 1010 799 1014 797 1021 797 c 0
 1028 797 1032 799 1034 803 c 0
 1036 807 1037 812 1037 819 c 0x00cf0f1091407c
 1037 825 1036 831 1035 838 c 0
 1034 844 1032 850 1029 856 c 1
 1054 864 l 1
 1057 857 1060 849 1063 840 c 0x00cf0f1090207c
 1066 831 1067 823 1067 816 c 0
 1067 804 1064 793 1056 783 c 0
 1050 773 1039 768 1025 768 c 0x00cf0f1090c07c
 1013 768 1003 771 996 778 c 1
 993 770 987 763 980 758 c 0x00cf171090c07c
778 510 m 0
 790 510 801 511 811 513 c 1x00cf8712b0007c
 806 613 l 1
 785 611 768 606 753 599 c 0
 738 592 727 583 720 574 c 0
 712 565 708 556 708 547 c 0x00cf8712d0007c
 708 538 711 531 718 526 c 0
 725 521 733 517 744 514 c 0
 755 511 766 510 778 510 c 0
978 424 m 0
 963 417 942 414 915 414 c 0
 891 414 870 418 854 426 c 0
 836 435 825 450 818 471 c 1
 799 466 780 464 762 466 c 0
 743 466 727 470 712 476 c 0
 697 482 686 490 678 501 c 0
 669 512 665 525 665 540 c 0
 665 559 671 577 684 594 c 0
 696 611 712 625 734 636 c 0
 754 647 778 655 804 659 c 1
 803 701 l 1
 847 701 l 1x00cf8712d0807c
 856 519 l 2
 857 502 860 489 865 480 c 0
 870 472 878 466 887 464 c 0
 896 460 908 459 921 459 c 0
 942 459 956 461 964 465 c 0
 973 469 978 476 979 486 c 0x00cf8710b1007c
 980 497 981 511 980 530 c 2x00cf871090807c
 973 729 l 1
 1018 729 l 1x00cf871094007c
 1025 531 l 2x00cf871090807c
 1026 512 1029 498 1034 487 c 0
 1039 476 1046 469 1056 465 c 0
 1064 461 1075 459 1086 459 c 0
 1107 459 1121 461 1130 465 c 0
 1138 469 1143 476 1144 486 c 0
 1145 497 1146 511 1145 530 c 2
 1134 810 l 1
 1179 810 l 1
 1190 535 l 2
 1191 509 1189 487 1184 469 c 0
 1180 451 1170 437 1154 428 c 0
 1138 419 1113 414 1080 414 c 0
 1061 414 1047 418 1036 425 c 0
 1025 432 1017 441 1012 451 c 1
 1005 439 993 430 978 424 c 0
1318 417 m 1x00cf07109000fc
 1274 417 l 1x00cf07109000fc
 1263 810 l 1
 1307 810 l 1x00cf071090017c
 1318 417 l 1x00cf07109000fc
1586 471 m 1
 1427 421 l 1
 1427 447 l 1
 1586 498 l 1
 1586 471 l 1
1218 35 m 0
 1213 30 1206 27 1199 27 c 0
 1191 27 1184 30 1179 35 c 0
 1174 40 1171 47 1171 54 c 0
 1171 61 1174 68 1179 74 c 0
 1184 79 1191 82 1199 82 c 0
 1206 82 1213 79 1218 74 c 0
 1223 68 1226 61 1226 54 c 0x02cf071090047c
 1226 47 1223 40 1218 35 c 0
577 -26 m 1
 547 -26 l 1
 544 119 l 1
 574 119 l 1x00cf075090007c
 577 -26 l 1
762 203 m 1
 732 203 l 1
 729 348 l 1
 759 348 l 1
 762 203 l 1
303 445 m 1
 273 445 l 1
 270 590 l 1
 300 590 l 1
 303 445 l 1
634 752 m 0x00cf171890007c
 631 749 629 744 629 739 c 0
 629 733 631 727 636 722 c 0
 641 716 646 711 653 708 c 1
 662 716 666 725 666 735 c 0x00cf171190007c
 666 742 664 747 662 752 c 0
 658 756 654 758 648 758 c 0
 643 758 638 756 634 752 c 0x00cf171890007c
658 677 m 0
 635 662 604 653 565 651 c 1
 560 678 l 1x00cf571190007c
 575 679 589 680 601 683 c 0
 613 686 623 689 631 693 c 1
 622 698 615 704 610 712 c 0
 604 719 601 728 601 739 c 0
 601 752 606 763 614 772 c 0
 624 781 635 786 649 786 c 0
 664 786 675 781 682 771 c 0
 690 761 694 750 694 737 c 0
 694 712 682 692 658 677 c 0
122 106 m 0
 107 126 100 149 100 177 c 0
 100 190 102 205 106 222 c 0
 109 238 115 256 123 275 c 1
 162 259 l 1
 157 244 152 230 150 217 c 0
 146 204 145 192 145 181 c 0
 145 161 151 145 162 132 c 0
 174 119 190 110 210 104 c 0
 229 98 251 95 274 95 c 0
 303 95 329 98 352 104 c 0
 375 111 394 120 408 130 c 0
 421 142 428 154 428 167 c 0
 428 176 421 184 406 192 c 0
 391 198 371 206 345 213 c 1
 355 259 l 1
 393 244 423 234 444 228 c 0
 465 223 482 220 493 220 c 0
 514 220 528 222 536 226 c 0
 545 230 550 237 551 248 c 0
 552 258 553 272 552 291 c 2x00cf073090007c
 542 571 l 1
 586 571 l 1x00cf079090007c
 597 296 l 2x00cf073090007c
 598 270 597 248 592 230 c 0
 587 212 577 198 561 189 c 0
 545 180 521 175 488 175 c 2
 467 175 l 1
 468 172 468 169 469 167 c 0
 470 165 470 162 470 159 c 0
 470 141 462 124 445 107 c 0
 428 90 404 77 374 66 c 0
 342 55 305 50 262 50 c 0
 233 50 206 55 182 64 c 0
 156 73 137 88 122 106 c 0
826 205 m 1
 854 182 877 161 907 129 c 1
 939 150 958 175 958 199 c 0
 958 213 944 231 904 231 c 0x00ef071098007c
 879 231 844 220 826 205 c 1
1090 329 m 0
 1075 329 1063 341 1063 356 c 0
 1063 371 1075 384 1090 384 c 0
 1105 384 1118 371 1118 356 c 0x00cf071090207c
 1118 341 1105 329 1090 329 c 0
1166 329 m 0
 1151 329 1139 341 1139 356 c 0
 1139 371 1151 384 1166 384 c 0
 1181 384 1194 371 1194 356 c 0x00cf071090087c
 1194 341 1181 329 1166 329 c 0
834 -40 m 0
 828 -33 821 -30 812 -30 c 0
 804 -30 795 -34 786 -43 c 0
 776 -52 765 -67 754 -90 c 1
 767 -111 781 -127 796 -136 c 0
 811 -146 825 -151 837 -151 c 0x90cf071090007c
 850 -151 859 -146 865 -137 c 0
 871 -128 871 -115 865 -99 c 0
 860 -88 856 -77 850 -66 c 0
 846 -55 840 -47 834 -40 c 0
872 -186 m 0
 861 -192 850 -195 838 -195 c 0x80cf071890017c
 819 -195 800 -189 781 -178 c 0
 762 -166 745 -150 732 -131 c 1
 715 -154 694 -169 669 -178 c 0
 644 -186 617 -190 588 -190 c 0
 568 -190 548 -189 528 -186 c 0
 507 -183 487 -180 468 -177 c 1
 474 -139 l 1x20cf071890017c
 491 -140 510 -142 528 -142 c 0
 548 -144 565 -144 581 -144 c 0
 600 -144 618 -142 634 -138 c 0
 652 -135 667 -128 681 -118 c 0
 695 -108 707 -93 717 -73 c 0
 728 -50 739 -32 751 -19 c 0
 763 -6 775 2 786 7 c 0
 797 12 807 14 816 14 c 0x50cf071890017c
 828 14 839 11 848 6 c 0
 857 1 866 -8 874 -21 c 0
 883 -34 892 -51 901 -73 c 0
 909 -93 916 -108 924 -118 c 0
 930 -128 938 -135 945 -138 c 0
 951.969555409 -140.986952318 960.92175174 -142.982584175 970.86958001 -142.999886588 c 1
 971 -142 l 1
 1119 -142 l 2
 1121.94211691 -142 1124.47848139 -142.270501623 1126.70857436 -142.811504904 c 0
 1179.06520739 -140.773295512 1180.08338959 -121.041357223 1197 -28 c 1
 1241 -37 l 1
 1236 -57 1229 -86 1229 -104 c 0
 1229 -126 1237 -143 1307 -143 c 0
 1377 -143 1394 -141 1401 -140 c 1
 1381 -129 1345 -99 1345 -48 c 0
 1345 15 1392 58 1459 58 c 0
 1476 58 1496 55 1514 49 c 1
 1505 7 l 1
 1490 11 1472 13 1459 13 c 0
 1419 13 1390 -11 1390 -48 c 0
 1390 -96 1448 -124 1480 -123 c 1
 1498 -118 1506 -116 1549 -97 c 1
 1564 -137 l 1
 1490 -168 1417 -188 1301 -188 c 0x44cf071890017c
 1243 -188 1218 -176 1207 -151 c 1x80cf071890017c
 1186.54683701 -181.192764421 1161.35068221 -187.670569857 1114.78138974 -187.987459176 c 0
 1114.52229084 -187.995802283 1114.26184504 -188.000000007 1114 -188 c 2
 1111 -188 l 1
 965 -188 l 2x40cf071890017c
 951 -188 938 -186 926 -181 c 0
 914 -176 904 -169 897 -160 c 1
 890 -172 882 -181 872 -186 c 0
1203 253 m 0x00df071090027c
 1203 280 1210 312 1226 351 c 1x00df071090047c
 1266 336 l 1
 1254 305 1248 279 1248 257 c 0
 1248 195 1308 170 1379 170 c 0
 1465 170 1535 202 1535 242 c 0
 1535 262 1504 274 1450 289 c 1
 1461 335 l 1
 1528.87809085 308.553990579 1568.00342355 298.427114158 1591.39178085 296.398879624 c 0
 1635.16197239 300.012353185 1643.31707406 328.753532153 1661 406 c 1
 1702 396 l 1
 1695 370 1690 347 1690 337 c 0
 1690 316 1699 303 1735 296 c 1
 1783 371 1868 458 1954 458 c 0
 2015 458 2053 418 2053 365 c 0
 2053 299 2001 243 1845 243 c 0
 1726 243 1682 258 1668 292 c 1
 1648.93164334 265.163053584 1627.86821273 255.783004157 1605.16195616 252.587916466 c 0
 1602.04172675 251.564149091 1598.62343594 250.999999998 1595 251 c 2
 1576 251 l 1
 1574 251 l 1
 1575 244 1577 241 1577 235 c 0
 1577 180 1498 125 1367 125 c 0
 1279 125 1203 166 1203 253 c 0x00df071090027c
1938 516 m 0
 1923 516 1910 528 1910 543 c 0
 1910 558 1923 571 1938 571 c 0
 1953 571 1965 558 1965 543 c 0
 1965 528 1953 516 1938 516 c 0
1951 413 m 0
 1884 413 1813 335 1781 291 c 1
 1801 290 1825 289 1855 289 c 0
 1953 289 2010 313 2010 360 c 0
 2010 384 1993 413 1951 413 c 0
1558 -20 m 1x08cf071090007c
 1561 25 l 1
 1678 11 1728 54 1748 99 c 0
 1761 127 1763 151 1759 213 c 1
 1804 215 l 1
 1809 159 1801 114 1788 85 c 0
 1739 -22 1617 -30 1558 -20 c 1x08cf071090007c
761 90 m 0x01ef071490007c
 800 90 836 97 867 109 c 1
 849 130 827 152 800 171 c 0
 793 177 786 200 786 208 c 0
 786 231 847 276 913 276 c 0
 976 276 1002 244 1002 211 c 0
 1002 174 980 137 944 107 c 1
 975 95 1014 90 1051 90 c 0
 1116 90 1136 93 1136 138 c 0
 1136 166 1120 212 1104 255 c 1
 1149 271 l 1
 1163 235 1178 180 1178 147 c 0
 1178 72 1139 45 1045 45 c 0
 996 45 941 56 901 80 c 1
 861 58 810 45 756 45 c 0
 666 45 648 74 645 140 c 2x01ef071498107c
 634 444 l 1
 680 444 l 1x01ef071890007c
 691 158 l 2
 693 104 698 90 761 90 c 0x01ef071490007c
EndSplineSet
EndChar

StartChar: uniFBCC
Encoding: 64460 64460 16
Width: 1428
GlyphClass: 1
Flags: W
HStem: 61 45<303.062 401.751 437 623.582 681.631 830.705 943.367 1151.65> 151 40<1254.98 1324> 213 46<1062.84 1204.42> 223 45<536.72 651.749> 248 46<851.37 923.42> 262 46<176.753 241> 326 55<551.69 605.313> 351 55<857.69 911.313> 400 27<224.704 288.106> 429 45<581.3 686.433 753.367 851.419> 480 45<428.409 527> 507 28<293.183 325.468> 628 46<454.985 520> 765 31<661.339 689.483> 783 29<722.806 751.171>
VStem: 100 44<167.848 232.132> 241 43<207.667 262 304.323 350> 248 45<157.464 262> 262 28<463.112 503.906> 327 28<457.202 506.413> 381 43<534.43 598.768> 395 45<268.2 460> 406 44<186 341.091> 522 41<574.444 628 670.541 716> 527 45<525.594 628> 551 55<326.687 380.259> 634 27<796.233 840> 662 42<136.447 211.574> 689 45<630.286 744> 689 30<881 976> 695 26<818.142 855> 696 45<484.942 744> 753 30<818.188 870.719> 793 45<139.902 235.154> 850 45<650 825> 857 55<351.687 405.259 480.19 663.235> 936 45<143.53 236.556> 979 44<574.909 825> 990 44<432 682.091>
LayerCount: 2
Fore
SplineSet
295 502 m 0xc0593020c0
 292 498 290 493 290 488 c 0
 290 482 292 476 297 470 c 0
 301 465 307 460 314 457 c 1
 322 465 327 474 327 484 c 0
 327 491 325 496 322 500 c 0
 319 505 315 507 309 507 c 0
 303 507 299 505 295 502 c 0xc0593020c0
319 426 m 0
 296 411 264 402 226 400 c 1
 221 427 l 1xc0d93020c0
 236 428 250 429 262 432 c 0
 274 435 284 438 292 442 c 1
 283 447 276 453 270 460 c 0
 265 468 262 477 262 488 c 0
 262 501 266 512 275 521 c 0
 284 530 296 535 310 535 c 0
 324 535 336 530 343 520 c 0
 351 510 355 499 355 486 c 0
 355 461 343 441 319 426 c 0
1191 394 m 1
 942 332 l 1
 942 377 l 1
 1191 440 l 1
 1191 394 l 1
828 -4 m 1
 579 -66 l 1
 579 -21 l 1
 828 42 l 1
 828 -4 l 1
719 881 m 1xc0491024c0
 689 881 l 1
 686 976 l 1
 716 976 l 1
 719 881 l 1xc0491024c0
696 773 m 0xc04b1021c0
 688 768 680 765 670 765 c 0
 655 765 645 770 641 780 c 0
 636 789 634 800 634 811 c 0
 634 815 634 819 634 824 c 0
 635 828 635 833 637 840 c 1
 664 847 l 1
 662 834 661 824 661 816 c 0
 661 803 665 796 675 796 c 0
 680 796 685 799 688 804 c 0
 692 809 694 821 695 838 c 2
 695 855 l 1
 721 865 l 1
 721 831 l 2xc04d1022c0
 721 826 722 821 724 818 c 0
 726 814 730 812 737 812 c 0
 743 812 748 814 750 818 c 0
 752 822 753 827 753 834 c 0
 753 840 752 846 751 852 c 0
 749 859 747 865 745 871 c 1
 770 879 l 1
 773 872 776 864 779 855 c 0
 781 846 783 838 783 831 c 0
 783 819 779 808 772 798 c 0
 765 788 755 783 741 783 c 0
 729 783 719 786 712 793 c 1
 708 785 703 778 696 773 c 0xc04b1021c0
494 525 m 0xc0691920c0
 506 525 517 526 527 528 c 1xc06918a0c0
 522 628 l 1
 501 626 483 621 469 614 c 0
 454 607 443 598 435 589 c 0
 428 580 424 571 424 562 c 0
 424 553 427 546 434 541 c 0
 440 536 449 532 460 529 c 0
 470 526 482 525 494 525 c 0xc0691920c0
694 438 m 0
 678 432 657 429 631 429 c 0
 607 429 586 433 569 442 c 0
 552 450 540 465 534 486 c 1
 514 481 496 480 477 480 c 0
 459 482 442 485 428 491 c 0
 413 497 402 505 393 516 c 0
 385 527 381 540 381 555 c 0
 381 574 387 592 399 609 c 0
 412 626 428 640 449 651 c 0
 470 662 494 670 520 674 c 1
 519 716 l 1
 563 716 l 1xc0691921e0
 572 534 l 2
 572 517 575 504 581 496 c 0
 586 487 593 482 603 478 c 0
 612 476 623 474 637 474 c 0
 657 474 672 476 680 480 c 0
 689 484 693 491 695 502 c 0xc06910a2c0
 696 512 696 526 696 545 c 2xc0691021c0
 689 744 l 1
 734 744 l 1xc0691028c0
 741 546 l 2
 741 527 744 513 750 502 c 0
 755 491 762 484 771 480 c 0
 780 476 790 474 802 474 c 0
 822 474 837 476 845 480 c 0
 854 484 858 491 860 502 c 0
 861 512 861 526 861 545 c 2
 850 825 l 1
 895 825 l 1xc0691021e0
 906 550 l 2
 906 524 905 502 900 484 c 0
 896 466 886 452 870 443 c 0
 854 434 829 429 796 429 c 0
 777 429 762 433 752 440 c 0
 741 447 733 456 728 466 c 1
 720 454 709 445 694 438 c 0
1034 432 m 1xc0491020c2
 990 432 l 1xc0491020c2
 979 825 l 1
 1023 825 l 1xc0491020c4
 1034 432 l 1xc0491020c2
144 195 m 0
 144 160 207 152 248 160 c 1
 243 262 l 1xc4495020c0
 179 255 144 222 144 195 c 0
579 326 m 0xc2491060c0
 563 326 551 338 551 353 c 0
 551 368 563 381 579 381 c 0
 594 381 606 368 606 353 c 0
 606 338 594 326 579 326 c 0xc2491060c0
603 223 m 0xd0491030c0
 538 223 471 151 437 106 c 1
 475 106 l 2
 604 106 662 128 662 175 c 0
 662 194 644 223 603 223 c 0xd0491030c0
885 351 m 0xc1491020d0
 869 351 857 363 857 378 c 0
 857 393 869 406 885 406 c 0
 900 406 912 393 912 378 c 0
 912 363 900 351 885 351 c 0xc1491020d0
838 187 m 0
 838 158 859 136 882 123 c 1
 912 136 936 158 936 190 c 0
 936 215 916 248 888 248 c 0xc8491020c8
 862 248 838 217 838 187 c 0
359 106 m 2
 387 106 l 1
 392 115 399 125 406 133 c 1xe4495220c0
 395 460 l 1
 440 460 l 1xe4491420c0
 450 186 l 1
 495 232 551 268 606 268 c 0xd0491260c0
 667 268 704 228 704 175 c 0
 704 155 697 135 681 117 c 1
 705 108 731 106 753 106 c 0
 778 106 807 107 832 110 c 1
 814 126 793 152 793 188 c 0
 793 248 839 294 890 294 c 0
 944 294 981 242 981 193 c 0xc8491270c8
 981 158 966 131 942 110 c 1
 972 108 1006 106 1028 106 c 0
 1104 106 1178 130 1237 171 c 1
 1208 197 1165 213 1115 213 c 0
 1097 213 1085 212 1065 207 c 1
 1056 250 l 1
 1076 256 1096 259 1115 259 c 0
 1212 259 1254 191 1312 191 c 2
 1324 191 l 1
 1328 151 l 1
 1233 151 1196 61 1023 61 c 0
 978 61 924 68 888 79 c 0
 882 77 876 75 869 73 c 0
 836 63 788 61 748 61 c 0
 722 61 672 66 639 88 c 1
 634 85 627 83 621 81 c 0
 573 65 509 61 412 61 c 2
 353 61 l 2
 305 61 269 75 255 118 c 1
 176 99 100 127 100 187 c 0
 100 247 163 295 241 308 c 1
 239 350 l 1
 284 350 l 1xe4499020c4
 293 167 l 2xe4495020c0
 296 115 319 106 359 106 c 2
EndSplineSet
EndChar

StartChar: uniFBCD
Encoding: 64461 64461 17
Width: 1428
GlyphClass: 1
Flags: W
HStem: -289 45<221.986 437.994 438 587.994 588 1204.72> -138.663 44.667<315.985 349.666> -129 45<522.509 587.993 588 691.23 768.705 874.999 875 939.763> 56 44<656.859 774.382> 153 54<875.406 921.719 950.406 996.719> 235 45<312.427 356.786 437 461.149 506.147 626.305 681.989 831.064 943.197 1152.2> 325 40<1254.44 1324> 387 46<1062.88 1205.26> 397 45<536.713 649.748> 422 46<851.199 923.06> 436 46<176.944 241> 500 55<552.201 604.517> 525 55<858.201 910.594 1191.12 1208> 574 27<224.704 288.106> 591 45<581.3 686.433 753.367 851.419> 642 45<428.409 526.559> 681 28<293.183 325.468> 790 46<454.985 520> 927 31<661.339 689.483> 945 29<722.806 751.171>
VStem: 100 44<340.13 406.411> 173 44<-234.87 -168.589> 241 43<381.667 436 477.765 524> 241 30<59 195> 248 45<332.043 436> 262 28<637.112 677.906> 327 28<631.202 680.413> 356.786 44.0943<60 235> 366 45<-87.8103 157> 381 43<696.43 760.768> 395 45<442.2 634> 406 44<360 515.091> 461.149 44.9985<56.6543 235.569> 471 45<-77.4971 157.545> 522 41<736.444 790 832.541 878> 527 45<687.594 790> 551 55<501.2 553.264> 634 27<958.233 1002> 662 42<309.975 382.663> 686 30<1043 1138> 689 45<792.286 906> 695 26<980.142 1017 1043 1116.89> 696 45<646.942 906> 753 30<980.188 1032.72> 782 44<-21.2689 47.7407> 793 45<313.463 410.107> 850 45<812 987> 857 55<526.2 578.551 642.19 825.235> 875 55<161.236 198.764> 936 45<-27.4829 78.0156 317.75 411.11> 948 41<-71.5652 46.494> 950 55<161.236 198.764> 979 44<736.909 987> 990 44<594 844.091>
LayerCount: 2
Fore
SplineSet
1186 -289 m 2xde004c6104
 1037 -289 l 1
 1037.02507923 -288.811905743 l 1
 1036.03620745 -288.935184811 1035.02890626 -289 1034 -289 c 2
 885 -289 l 1
 885.011062596 -288.917030527 l 1
 884.34952075 -288.971733792 883.67947141 -289 883 -289 c 2
 734 -289 l 1
 734.025079234 -288.811905743 l 1
 733.036207449 -288.935184811 732.028906256 -289 731 -289 c 2
 582 -289 l 1
 582 -288.993140577 582.002743769 -288.986281154 582.002743769 -288.97942173 c 1
 581.670732939 -288.993066505 581.336522052 -289 581 -289 c 2
 432 -289 l 1
 432 -288.993140577 432.002743769 -288.986281154 432.002743769 -288.97942173 c 1
 431.670732939 -288.993066505 431.336522052 -289 431 -289 c 2
 290 -289 l 2
 265 -291 242 -287 221 -278 c 0
 189 -265 173 -243 173 -214 c 0
 173 -185 187 -159 214 -136 c 0
 239.400516185 -115.303283109 270.11120704 -101.686799111 306.964672428 -94.3179481455 c 1
 307 -94 l 2
 307.537254291 -94 308.070900556 -93.9956703448 308.60090002 -93.9956703448 c 0
 310.38626479 -93.649320642 312.185933692 -93.3174616273 314 -93 c 1
 314.039655713 -93.912081391 l 1
 330.528928165 -93.4864938136 342.968399967 -91.5158000166 350 -88 c 0
 359 -84 363 -77 365 -66 c 0
 366 -56 366 -42 366 -23 c 2xde004c68048004
 356.785714286 235 l 1
 353 235 l 2
 300 235 267 254 255 292 c 1
 214 282 179 284 148 297 c 0
 116 310 100 332 100 361 c 0
 100 390 114 416 141 439 c 0
 168 461 201 475 241 482 c 1
 239 524 l 1
 284 524 l 1xde204e3004
 293 341 l 2
 295 316 301 300 312 291 c 0
 321 284 337 280 359 280 c 2
 387 280 l 1
 392 288 398 297 406 307 c 1xde204ca104
 395 634 l 1
 440 634 l 1xde204c2204
 450 360 l 1
 504 415 556 442 606 442 c 0x9e804c210c
 636 442 660 433 678 415 c 0
 696 398 704 376 704 349 c 0
 704 327 696 308 681 291 c 1
 700 284 724 280 753 280 c 0
 786 280 812 281 832 284 c 1
 806 307 793 333 793 362 c 0
 793 392 803 417 822 437 c 0
 842 458 864 468 890 468 c 0x9e404c210e14
 916 468 938 457 956 436 c 0
 973 416 981 393 981 367 c 0x9e204c210e1440
 981 334 968 307 942 284 c 1
 977 281 1005 280 1028 280 c 0
 1105 280 1175 302 1237 345 c 1
 1205 373 1165 387 1115 387 c 0
 1100 387 1083 385 1065 381 c 1
 1056 424 l 1
 1077 430 1096 433 1115 433 c 0
 1139 433 1163 429 1186 420 c 0
 1199 415 1217 406 1240 393 c 0
 1271 374 1295 365 1312 365 c 2
 1324 365 l 1
 1328 325 l 1
 1310 325 1292 322 1273 315 c 0
 1262 310 1245 302 1223 290 c 0
 1191 272 1164 260 1143 253 c 0
 1107 241 1067 235 1023 235 c 0
 975 235 930 241 888 253 c 1
 869 247 l 2
 842 239 801 235 748 235 c 0
 703 235 667 244 639 262 c 0
 636 260 629 258 621 255 c 0
 594.626543358 245.994429439 556.253552367 240.299075251 506.147191197 237.381609094 c 1x9f204c20840008
 516 -17 l 2
 516 -34 518 -48 521 -58 c 0
 523 -68 530 -75 539 -78 c 0
 549 -82 564 -84 586 -84 c 0
 586.674061873 -84 587.338851106 -84.018545282 587.992581887 -84.055635846 c 1
 587.992581887 -84.037090564 588 -84.018545282 588 -84 c 1
 607 -84 625 -82 643 -79 c 0
 660 -76 676 -71 692 -65 c 1
 683 -54 673 -44 662 -34 c 0
 651 -23 639 -13 626 -3 c 0
 623 -2 621 2 619 6 c 0
 617 12 615 16 614 22 c 0
 612 26 612 30 612 33 c 0
 612 38 615 45 622 52 c 0
 628 60 638 68 650 75 c 0
 662 82 675 88 690 93 c 0
 705 98 721 100 737 100 c 0
 757 100 774 97 788 90 c 0
 801 84 811 76 817 66 c 0
 823 57 826 47 826 36 c 0
 826 18 821 0 810 -18 c 0
 800 -35 786 -52 768 -67 c 1
 783 -73 800 -77 819 -80 c 0
 837 -83 856 -84 874 -84 c 0
 874.338166972 -84 874.670973465 -84.0035736532 874.998570539 -84.0107209595 c 1
 874.998570539 -84.0071473063 875 -84.0035736532 875 -84 c 1
 892 -84 906 -83 917 -80 c 0
 927 -78 935 -74 940 -67 c 0
 945 -60 948 -50 948 -36 c 0
 948 -23 944 -5 938 16 c 0
 931 37 924 58 916 79 c 1
 961 96 l 1
 965 84 970 70 974 56 c 0
 979 40 982 26 985 11 c 0
 987 -4 989 -17 989 -28 c 0
 989 -65 979 -91 959 -106 c 0
 940 -121 909 -129 869 -129 c 0
 844 -129 819 -126 794 -120 c 0
 768 -115 746 -106 726 -94 c 1
 706 -105 684 -113 659 -120 c 0
 635 -126 609 -129 582 -129 c 1
 582 -128.978503031 582.008598788 -128.957006061 582.008598788 -128.935509092 c 1
 581.352842261 -128.978086848 580.683725515 -129 580 -129 c 0
 550 -129 528 -126 512 -119 c 0
 497 -112 486 -102 480 -88 c 0
 475 -74 471 -56 471 -34 c 2xbf204c204608a0
 461.14864961 235.568769771 l 1
 445.637182431 235.185952573 429.252480553 235 412 235 c 2
 400.88 235 l 1xbf204c3084
 411 -18 l 2xbf204c2804
 412 -44 410 -66 406 -84 c 0xbf204c2104
 401 -102 391 -116 375 -125 c 0
 361.411539311 -132.643509138 341.331608407 -137.401920402 315.985333508 -138.662670683 c 1
 316 -139 l 1
 286 -143 262 -151 243 -165 c 0
 225 -178 217 -192 217 -206 c 0
 217 -223 229 -234 253 -240 c 0
 265 -243 277 -244 290 -244 c 2
 436 -244 l 2
 436.686365434 -244 437.350648172 -244.014721797 437.994111281 -244.044165391 c 1
 437.994111281 -244.029443594 438 -244.014721797 438 -244 c 1
 586 -244 l 2
 586.686365434 -244 587.350648172 -244.014721797 587.994111281 -244.044165391 c 1
 587.994111281 -244.029443594 588 -244.014721797 588 -244 c 1
 736 -244 l 2
 737.415175918 -244 738.736474202 -244.06258509 739.974965964 -244.18775527 c 2
 740 -244 l 1
 888 -244 l 2
 889.045166857 -244 890.039128695 -244.03413668 890.986345328 -244.10241004 c 2
 891 -244 l 1
 1039 -244 l 2
 1040.41517592 -244 1041.7364742 -244.06258509 1042.97496596 -244.18775527 c 2
 1043 -244 l 1
 1191 -244 l 2
 1199 -244 1204 -246 1208 -250 c 0
 1211 -254 1213 -259 1213 -265 c 0
 1213 -271 1210 -276 1205 -282 c 0
 1199 -286 1193 -289 1186 -289 c 2xde004c6104
144 369 m 0
 144 352 156 341 180 335 c 0
 202 330 224 330 248 334 c 1
 243 436 l 1x9e204ca004
 213 432 189 424 170 410 c 0
 152 397 144 383 144 369 c 0
838 361 m 0x9e404c20040440
 838 336 853 314 882 297 c 1
 918 313 936 335 936 364 c 0
 936 377 931 390 922 402 c 0
 912 416 901 422 888 422 c 0
 875 422 864 416 853 403 c 0
 843 391 838 377 838 361 c 0x9e404c20040440
885 525 m 0x9e084c200401
 869 525 860 534 857 552 c 0
 857 567 866 577 885 580 c 0
 900 580 909 571 912 552 c 0
 912 537 903 528 885 525 c 0x9e084c200401
603 397 m 0x9e804c2006
 574 397 543 383 508 355 c 0
 483 335 459 310 437 280 c 1
 475 280 l 2
 539 280 587 286 617 297 c 0
 647 308 662 325 662 349 c 0
 662 360 657 371 648 380 c 0
 637 391 622 397 603 397 c 0x9e804c2006
579 500 m 0x9e104c200c
 563 500 554 509 551 527 c 0
 551 542 560 551 579 555 c 0
 594 555 603 545 606 527 c 0
 606 512 597 503 579 500 c 0x9e104c200c
1034 594 m 1x9e004c20040004
 990 594 l 1x9e004c20040004
 979 987 l 1
 1023 987 l 1x9e004c20040008
 1034 594 l 1x9e004c20040004
694 600 m 0
 678 594 657 591 631 591 c 0
 607 591 586 595 569 604 c 0
 552 612 540 627 534 648 c 1
 514 643 496 642 477 642 c 0
 459 644 442 647 428 653 c 0
 413 659 402 667 393 678 c 0
 385 689 381 702 381 717 c 0
 381 736 387 754 399 771 c 0
 412 788 428 802 449 813 c 0
 470 824 494 832 520 836 c 1
 519 878 l 1
 563 878 l 1x9e034c242422
 572 696 l 2
 572 679 575 666 581 658 c 0
 586 649 593 644 603 640 c 0
 612 638 623 636 637 636 c 0
 657 636 672 638 680 642 c 0
 689 646 693 653 695 664 c 0x9e034c201440
 696 674 696 688 696 707 c 2x9e034c200420
 689 906 l 1
 734 906 l 1x9e034c200480
 741 708 l 2
 741 689 744 675 750 664 c 0
 755 653 762 646 771 642 c 0
 780 638 790 636 802 636 c 0
 822 636 837 638 845 642 c 0
 854 646 858 653 860 664 c 0
 861 674 861 688 861 707 c 2
 850 987 l 1
 895 987 l 1
 906 712 l 2
 906 686 905 664 900 646 c 0
 896 628 886 614 870 605 c 0
 854 596 829 591 796 591 c 0x9e034c200422
 777 591 762 595 752 602 c 0
 741 609 733 618 728 628 c 1
 720 616 709 607 694 600 c 0
494 687 m 0
 506 687 517 688 527 690 c 1x9e014c2414
 522 790 l 1
 501 788 483 783 469 776 c 0
 454 769 443 760 435 751 c 0
 428 742 424 733 424 724 c 0
 424 715 427 708 434 703 c 0
 440 698 449 694 460 691 c 0
 470 688 482 687 494 687 c 0
696 935 m 0x9e005c200430
 688 930 680 927 670 927 c 0
 655 927 645 932 641 942 c 0
 636 951 634 962 634 973 c 0
 634 977 634 981 634 986 c 0
 635 990 635 995 637 1002 c 1
 664 1009 l 1
 662 996 661 986 661 978 c 0
 661 965 665 958 675 958 c 0
 680 958 685 961 688 966 c 0
 692 971 694 983 695 1000 c 2
 695 1017 l 1
 721 1027 l 1
 721 993 l 2x9e006c200440
 721 988 722 983 724 980 c 0
 726 976 730 974 737 974 c 0
 743 974 748 976 750 980 c 0
 752 984 753 989 753 996 c 0
 753 1002 752 1008 751 1014 c 0
 749 1021 747 1027 745 1033 c 1
 770 1041 l 1
 773 1034 776 1026 779 1017 c 0
 781 1008 783 1000 783 993 c 0
 783 981 779 970 772 960 c 0
 765 950 755 945 741 945 c 0
 729 945 719 948 712 955 c 1
 708 947 703 940 696 935 c 0x9e005c200430
719 1043 m 1
 689 1043 l 1x9e004c200480
 686 1138 l 1
 716 1138 l 1x9e004c2005
 719 1043 l 1
828 170 m 1
 579 108 l 1
 579 153 l 1
 828 216 l 1
 828 170 l 1
1208 528 m 1
 959 466 l 1
 959 511 l 1
 1208 574 l 1x9e044c2004
 1208 528 l 1
319 600 m 0
 296 585 264 576 226 574 c 1
 221 601 l 1
 236 602 250 603 262 606 c 0
 274 609 284 612 292 616 c 1
 283 621 276 627 270 634 c 0
 265 642 262 651 262 662 c 0
 262 675 266 686 275 695 c 0
 284 704 296 709 310 709 c 0x9e04cc6004
 324 709 336 704 343 694 c 0
 351 684 355 673 355 660 c 0
 355 635 343 615 319 600 c 0
295 676 m 0
 292 672 290 667 290 662 c 0
 290 656 292 650 297 644 c 0
 301 639 307 634 314 631 c 1
 322 639 327 648 327 658 c 0
 327 665 325 670 322 674 c 0
 319 679 315 681 309 681 c 0
 303 681 299 679 295 676 c 0
997 161 m 0
 991 156 985 153 978 153 c 0
 970 153 963 156 958 161 c 0
 952 166 950 173 950 180 c 0
 950 187 952 194 958 199 c 0
 963 204 970 207 978 207 c 0
 985 207 991 204 997 199 c 0
 1002 194 1005 187 1005 180 c 0x9e004c20040010
 1005 173 1002 166 997 161 c 0
922 161 m 0
 916 156 910 153 903 153 c 0
 895 153 888 156 883 161 c 0
 877 166 875 173 875 180 c 0
 875 187 877 194 883 199 c 0
 888 204 895 207 903 207 c 0
 910 207 916 204 922 199 c 0
 927 194 930 187 930 180 c 0x9e004c20040080
 930 173 927 166 922 161 c 0
687 48 m 0
 672 44 660 37 651 30 c 1
 665 19 678 7 690 -4 c 0
 703 -15 716 -29 732 -45 c 1
 747 -35 759 -24 768 -12 c 0
 777 0 782 12 782 24 c 0x9e004c200408
 782 31 778 38 770 45 c 0
 763 52 749 56 729 56 c 0
 716 56 702 54 687 48 c 0
271 59 m 1x9e004d2004
 241 59 l 1
 238 195 l 1
 268 195 l 1
 271 59 l 1x9e004d2004
EndSplineSet
EndChar

StartChar: uniFBCE
Encoding: 64462 64462 18
Width: 1947
GlyphClass: 1
Flags: W
HStem: -307 45<708.332 801.109> -196 44<418.322 498.553> -189 45<105.471 307.926 558.037 636.481 830.759 920.751 956 1142.59 1200.75 1349.96 1462.57 1670.91> -178 38<104.895 212.249 213.89 219.062 221.358 309.06 683 737.777> -99 40<1774.42 1843> -94 27<197.704 261.385> -37 46<1581.84 1723.78> -31 44<409.708 474.87 1050.53 1173.45> -2 27<551.704 615.385> -1 46<722.46 770.176 1372.39 1442.29> 13 28<266.094 297.28> 46 55<1167.74 1221.31> 62 45<287.927 491.777> 101 55<1376.74 1430.31> 105 28<620.094 651.28> 116 45<890.295 915.622 962.384 1042.23 1119.97 1226 1226 1291.72 1763.03 1773> 187 45<574.479 643.574> 301 44<1007.91 1125.76> 398 54<1234.24 1272.76 1309.24 1347.76> 479 45<940.31 1034.46 1101.43 1199.9> 530 45<776.431 874.704> 678 46<802.949 868> 683 27<646.704 710.506> 790 28<712.729 747.903> 815 31<1009.41 1037.49> 833 29<1070.81 1098.98>
VStem: 207 45<139.877 270.298> 235 28<-30.5868 9.90589> 300 28<-36.7976 9.0144> 473 30<398 543> 535 42<142.103 186.818> 589 28<61.4132 101.906> 638 45<-235.761 -185> 649 44<408 583> 654 28<55.2024 101.014> 659 45<238.19 483> 684 28<746.636 789.146> 729 43<584.43 648.564> 749 28<740.202 789.444> 774 45<-109.282 -1.23097> 811 45<331.273 512> 822 45<166.762 402.545> 868 43<624.444 678 719.698 766> 875 45<575.594 678> 914 45<31.4313 116.249 161.827 210> 914 30<286 431> 925 44<-64 91.0909> 982 27<846.233 890> 1034 30<931 1026> 1037 45<596 794> 1043 26<868.142 905 931 1004.89> 1044 45<535.229 794> 1101 30<865.199 924.53> 1133 44<223.456 292.792> 1167 55<46.6869 100.259> 1181 43<-114.717 -38.03> 1198 45<700 875> 1209 45<530.19 773.182> 1226 55<406.236 443.764> 1299 41<173.435 291.771> 1301 55<406.236 443.764> 1312 46<-110.696 -14.8463> 1327 44<624.909 875> 1338 44<482 732.091> 1376 55<101.687 155.259> 1455 45<-106.47 -13.4441>
LayerCount: 2
Fore
SplineSet
1132 406 m 1x8000f80f0001080040
 1009 370 l 1
 1009 401 l 1
 1132 437 l 1
 1132 406 l 1x8000f80f0001080040
944 286 m 1x8000f80f0025080040
 914 286 l 1
 911 431 l 1
 941 431 l 1
 944 286 l 1x8000f80f0025080040
1590 279 m 1
 1420 237 l 1
 1420 282 l 1
 1590 325 l 1
 1590 279 l 1
1115 -287 m 1
 866 -349 l 1
 866 -304 l 1
 1115 -241 l 1
 1115 -287 l 1
646 24 m 0
 623 9 592 0 553 -2 c 1
 548 25 l 1
 563 26 577 27 589 30 c 0
 601 33 611 36 619 40 c 1
 610 45 603 51 598 58 c 0
 592 66 589 75 589 86 c 0
 589 99 594 110 602 119 c 0
 612 128 623 133 637 133 c 0
 652 133 663 128 670 118 c 0
 678 108 682 97 682 84 c 0x8082f80f2001080040
 682 59 670 39 646 24 c 0
622 100 m 0
 619 96 617 91 617 86 c 0
 617 80 619 74 624 68 c 0
 629 63 634 58 641 55 c 1
 650 63 654 72 654 82 c 0
 654 89 652 94 650 98 c 0
 646 103 642 105 636 105 c 0
 631 105 626 103 622 100 c 0
292 -68 m 0
 269 -83 238 -92 199 -94 c 1
 194 -67 l 1
 209 -66 223 -65 235 -62 c 0
 247 -59 257 -56 265 -52 c 1
 256 -47 249 -41 244 -34 c 0
 238 -26 235 -17 235 -6 c 0
 235 7 240 18 248 27 c 0
 258 36 269 41 283 41 c 0x8420f81f0001080040
 298 41 309 36 316 26 c 0
 324 16 328 5 328 -8 c 0
 328 -33 316 -53 292 -68 c 0
268 8 m 0
 265 4 263 -1 263 -6 c 0
 263 -12 265 -18 270 -24 c 0
 275 -29 280 -34 287 -37 c 1x8220f81f0001080040
 296 -29 300 -20 300 -10 c 0
 300 -3 298 2 296 6 c 0
 292 11 288 13 282 13 c 0
 277 13 272 11 268 8 c 0
763 -262 m 0
 782 -262 805 -252 805 -223 c 0
 805 -195 788 -172 725 -172 c 0
 713 -172 698 -174 683 -177 c 1x8000f80f8001080040
 691 -250 735 -262 763 -262 c 0
751 -1 m 0x9040f80f0101080040
 730 -1 685 -58 681 -140 c 1
 735 -132 774 -110 774 -45 c 0
 774 -29 768 -1 751 -1 c 0x9040f80f0101080040
1195 46 m 0x8010f80f00010a0040
 1180 46 1167 58 1167 73 c 0
 1167 88 1180 101 1195 101 c 0
 1210 101 1222 88 1222 73 c 0
 1222 58 1210 46 1195 46 c 0x8010f80f00010a0040
1122 -27 m 0
 1058 -27 990 -99 956 -144 c 1
 994 -144 l 2
 1123 -144 1181 -122 1181 -75 c 0xa000f80f0001090040
 1181 -56 1164 -27 1122 -27 c 0
1404 101 m 0x8004f80f00010800c0
 1389 101 1376 113 1376 128 c 0
 1376 143 1389 156 1404 156 c 0
 1419 156 1431 143 1431 128 c 0
 1431 113 1419 101 1404 101 c 0x8004f80f00010800c0
1358 -63 m 0x8080f80f0001080440
 1358 -92 1379 -114 1401 -127 c 1
 1431 -114 1455 -92 1455 -60 c 0
 1455 -35 1435 -2 1408 -2 c 0
 1381 -2 1358 -33 1358 -63 c 0x8080f80f0001080440
466 -41 m 0
 460 -34 453 -31 444 -31 c 0
 436 -31 427 -35 418 -44 c 0
 408 -53 397 -68 386 -91 c 1
 399 -112 413 -128 428 -138 c 0
 443 -147 457 -152 469 -152 c 0
 482 -152 491 -147 497 -138 c 0
 503 -129 503 -116 497 -100 c 0
 492 -89 488 -78 482 -67 c 0xc500f80f0001080040
 478 -56 472 -48 466 -41 c 0
504 -188 m 0
 493 -193 482 -196 470 -196 c 0xc000f80f8003090440
 451 -196 432 -190 413 -178 c 0
 394 -167 377 -151 364 -132 c 1
 347 -155 326 -170 301 -178 c 0
 276 -187 249 -191 220 -191 c 0
 200 -191 180 -190 160 -187 c 0
 139 -184 119 -181 100 -178 c 1
 106 -140 l 1x9000f80f8003090440
 123 -141 142 -142 160 -144 c 0xa000f80f8003090440
 180 -144 197 -145 213 -145 c 0
 232 -145 250 -143 266 -140 c 0
 284 -136 299 -129 313 -119 c 0
 327 -109 339 -94 349 -74 c 0
 360 -51 371 -33 383 -20 c 0
 395 -7 407 1 418 6 c 0
 429 11 439 13 448 13 c 0x9100f80f8003090440
 460 13 471 10 480 5 c 0
 489 0 498 -9 506 -22 c 0
 515 -35 524 -52 533 -74 c 0
 541 -94 548 -109 556 -119 c 0
 562 -129 570 -136 577 -139 c 0
 583.833917435 -141.928821758 592.574056402 -143.904532751 602.289919717 -143.996635788 c 0
 614.17307057 -143.977547953 625.947921218 -143.850159913 637 -143 c 1
 643 -32 703 45 755 45 c 0
 791 45 819 11 819 -40 c 0
 819 -73 811 -107 782 -132 c 1
 811 -139 843 -144 878 -144 c 2
 906 -144 l 1
 911 -135 918 -125 925 -117 c 1
 917.153698227 116.249152715 l 1
 894.632979788 117.098025629 876.526791861 120.154163798 864 126 c 0
 848 133 837 143 832 157 c 0
 826 171 823 189 822 211 c 2xa040f80f8143090440
 811 512 l 1
 856 512 l 1xa040f80f0081080040
 867 228 l 2
 868 211 869 197 872 187 c 0
 875 177 881 170 890 166 c 0
 896.266517599 164.12004472 904.889189767 162.632781869 915.621935103 161.784292847 c 1
 914 210 l 1
 959 210 l 1
 960.758143056 161.826880263 l 1
 972.28629421 162.682044724 983.522967874 164.151111978 994 166 c 0
 1011 169 1028 174 1043 180 c 1
 1034 191 1024 201 1014 212 c 0
 1002 222 990 232 977 242 c 0
 974 243 972 246 970 252 c 0
 968 256 966 262 965 266 c 0
 964 272 963 275 963 278 c 0
 963 283 966 290 973 298 c 0
 980 305 989 313 1001 320 c 0
 1013 327 1026 333 1042 338 c 0
 1056 343 1072 345 1088 345 c 0
 1109 345 1126 342 1139 336 c 0
 1152 329 1162 321 1168 312 c 0
 1174 302 1177 292 1177 281 c 0
 1177 263 1172 245 1162 228 c 0
 1151 210 1137 193 1119 178 c 1
 1134 172 1151 168 1170 165 c 0
 1189 162 1207 161 1225 161 c 0
 1225.33642343 161 1225.66930997 160.996463102 1225.99858524 160.989389307 c 1
 1225.99858524 160.992926205 1226 160.996463102 1226 161 c 1
 1243 161 1257 162 1268 164 c 0
 1279 167 1286 171 1292 178 c 0
 1296 185 1299 195 1299 209 c 0xa041f80f00492c3040
 1299 222 1296 240 1289 261 c 0
 1282 282 1275 303 1267 324 c 1
 1312 341 l 1xa041f80f0001080440
 1317 329 1321 316 1326 300 c 0
 1330 286 1333 271 1336 256 c 0
 1339 241 1340 228 1340 217 c 0
 1340 180 1330 154 1310 139 c 0
 1291 124 1261 116 1220 116 c 0
 1195 116 1170 119 1145 124 c 0
 1120 130 1097 139 1077 151 c 1
 1057 140 1035 132 1010 126 c 0
 994.841907471 121.578889679 978.886010189 118.753388866 962.384249784 117.27155593 c 1
 969 -64 l 1
 1014 -18 1070 18 1125 18 c 0
 1186 18 1224 -22 1224 -75 c 0
 1224 -95 1216 -115 1200 -133 c 1
 1224 -142 1250 -144 1273 -144 c 0xa041f80f0003091040
 1298 -144 1326 -143 1351 -140 c 1
 1333 -124 1312 -98 1312 -62 c 0
 1312 -2 1359 44 1409 44 c 0
 1464 44 1500 -8 1500 -57 c 0
 1500 -92 1485 -119 1461 -140 c 1x9000f80f0003090440
 1490.7799811 -141.985332073 1524.50150564 -143.970664147 1547.49218748 -143.999675598 c 0
 1624.31105046 -143.897641209 1697.12572416 -119.912634829 1756 -79 c 1
 1728 -53 1684 -37 1634 -37 c 0
 1616 -37 1604 -38 1584 -43 c 1
 1575 0 l 1
 1595 6 1615 9 1634 9 c 0
 1731 9 1774 -59 1831 -59 c 2
 1843 -59 l 1
 1847 -99 l 1
 1752 -99 1715 -189 1542 -189 c 0
 1497 -189 1444 -182 1407 -171 c 0
 1401 -173 1395 -175 1389 -177 c 0
 1355 -187 1308 -189 1267 -189 c 0
 1241 -189 1191 -184 1159 -162 c 1
 1153 -165 1146 -167 1140 -169 c 0
 1093 -185 1029 -189 931 -189 c 2
 873 -189 l 2
 859 -189 845 -188 830 -187 c 1
 863 -237 836 -307 761 -307 c 0
 697 -307 646 -267 638 -185 c 1
 625.836020023 -187.432795995 612.356818633 -188.550370579 599.695506085 -188.886001234 c 0
 598.810987488 -188.961012796 597.911991626 -189.000000079 597 -189 c 0
 596.204334309 -189 595.411898638 -188.99353996 594.622692987 -188.980436317 c 0
 593.403773892 -188.993647535 592.19553449 -188.999999992 591 -189 c 1xaa00f80f8003090440
 591.014156027 -188.872595754 l 1
 579.276703515 -188.361785855 568.271984839 -186.279993683 558 -182 c 0
 546 -177 536 -170 529 -161 c 1
 522 -173 514 -182 504 -188 c 0
503 398 m 1
 473 398 l 1
 470 543 l 1
 500 543 l 1
 503 398 l 1
229 118 m 0
 214 138 207 161 207 189 c 0
 207 202 209 217 212 234 c 0
 216 250 222 268 230 287 c 1
 269 271 l 1
 264 256 260 242 256 229 c 0
 254 216 252 204 252 193 c 0
 252 173 258 157 270 144 c 0
 281 131 297 122 316 116 c 0
 336 110 358 107 381 107 c 0
 410 107 436 110 459 116 c 0
 482 123 501 132 514 142 c 0
 528 154 535 166 535 179 c 0
 535 188 528 196 513 204 c 0
 498 210 478 218 452 225 c 1
 462 271 l 1
 500 256 530 246 551 240 c 0
 572 235 589 232 600 232 c 0
 621 232 635 234 644 238 c 0
 652 242 657 249 658 260 c 0
 659 270 660 284 659 303 c 2x8009f82f1001080040
 649 583 l 1
 693 583 l 1x8009f80f4001080040
 704 308 l 2
 705 282 704 260 699 242 c 0
 694 224 684 210 668 201 c 0
 652 192 628 187 595 187 c 2
 574 187 l 1
 575 184 575 181 576 179 c 0
 577 177 577 174 577 171 c 0
 577 153 569 136 552 119 c 0
 535 102 512 89 480 78 c 0
 450 67 412 62 369 62 c 0x8009f80f1001080040
 340 62 314 67 288 76 c 0
 264 85 244 100 229 118 c 0
1044 823 m 0x8000f84f0001180040
 1037 818 1028 815 1018 815 c 0
 1003 815 994 820 989 830 c 0
 984 839 982 850 982 861 c 0
 982 865 982 869 982 874 c 0
 983 878 984 883 985 890 c 1
 1012 897 l 1
 1010 884 1009 874 1009 866 c 0
 1009 853 1014 846 1023 846 c 0
 1028 846 1033 849 1036 854 c 0
 1040 859 1042 871 1043 888 c 2
 1043 905 l 1
 1069 915 l 1
 1069 881 l 2x8000f88f0001280040
 1069 876 1070 871 1072 868 c 0
 1074 864 1078 862 1085 862 c 0
 1092 862 1096 864 1098 868 c 0
 1100 872 1101 877 1101 884 c 0
 1101 890 1100 896 1099 902 c 0
 1098 909 1096 915 1093 921 c 1
 1118 929 l 1
 1121 922 1124 914 1127 905 c 0
 1130 896 1131 888 1131 881 c 0
 1131 869 1128 858 1120 848 c 0
 1114 838 1103 833 1089 833 c 0
 1077 833 1067 836 1060 843 c 1
 1057 835 1051 828 1044 823 c 0x8000f84f0001180040
1067 931 m 1
 1037 931 l 1x8000f80f0001480040
 1034 1026 l 1
 1064 1026 l 1x8000f80f0001880040
 1067 931 l 1
1382 482 m 1x8000f80f0001080140
 1338 482 l 1x8000f80f0001080140
 1327 875 l 1
 1371 875 l 1x8000f80f0001080240
 1382 482 l 1x8000f80f0001080140
1042 488 m 0
 1027 482 1006 479 979 479 c 0
 955 479 934 483 918 492 c 0
 900 500 889 515 882 536 c 1
 863 531 844 530 826 530 c 0
 807 532 791 535 776 541 c 0
 761 547 750 555 742 566 c 0
 733 577 729 590 729 605 c 0
 729 624 735 642 748 659 c 0
 760 676 776 690 798 701 c 0
 818 712 842 720 868 724 c 1
 867 766 l 1
 911 766 l 1x8000fc0f0461084040
 920 584 l 2
 921 567 924 554 929 546 c 0
 934 537 942 532 951 528 c 0
 960 526 972 524 985 524 c 0
 1006 524 1020 526 1028 530 c 0
 1037 534 1042 541 1043 552 c 0x8000fc0f0011280040
 1044 562 1045 576 1044 595 c 2x8000fc0f0001180040
 1037 794 l 1
 1082 794 l 1x8000fc0f0001480040
 1089 596 l 2
 1090 577 1093 563 1098 552 c 0
 1103 541 1110 534 1120 530 c 0
 1128 526 1139 524 1150 524 c 0
 1171 524 1185 526 1194 530 c 0
 1202 534 1207 541 1208 552 c 0
 1209 562 1210 576 1209 595 c 2x8000fc0f0001184040
 1198 875 l 1
 1243 875 l 1x8000fc0f0001088040
 1254 600 l 2x8000fc0f0001084040
 1255 574 1253 552 1248 534 c 0
 1244 516 1234 502 1218 493 c 0
 1202 484 1177 479 1144 479 c 0
 1125 479 1111 483 1100 490 c 0
 1089 497 1081 506 1076 516 c 1
 1069 504 1057 495 1042 488 c 0
842 575 m 0
 854 575 865 576 875 578 c 1x8000fc0f0411080040
 870 678 l 1
 849 676 832 671 817 664 c 0
 802 657 791 648 784 639 c 0
 776 630 772 621 772 612 c 0
 772 603 775 596 782 591 c 0
 789 586 797 582 808 579 c 0
 819 576 830 575 842 575 c 0
1773 115 m 1
 1459 53 l 1
 1459 98 l 1
 1773 161 l 1x8001f80f0001080040
 1773 115 l 1
742 709 m 0
 718 694 687 685 648 683 c 1
 643 710 l 1
 658 711 672 712 684 715 c 0
 696 718 706 721 714 725 c 1
 705 730 698 736 692 744 c 0
 687 751 684 760 684 771 c 0
 684 784 688 795 698 804 c 0
 706 813 718 818 732 818 c 0
 747 818 758 813 766 803 c 0
 773 793 777 782 777 769 c 0x8000fb0f0a01080040
 777 744 765 724 742 709 c 0
718 784 m 0
 714 781 712 776 712 771 c 0
 712 765 714 759 719 754 c 0
 724 748 729 743 736 740 c 1
 745 748 749 757 749 767 c 0
 749 774 748 779 744 784 c 0
 742 788 737 790 731 790 c 0
 726 790 721 788 718 784 c 0
1348 406 m 0
 1343 401 1336 398 1329 398 c 0
 1321 398 1314 401 1309 406 c 0
 1304 411 1301 418 1301 425 c 0
 1301 432 1304 439 1309 444 c 0
 1314 449 1321 452 1329 452 c 0
 1336 452 1343 449 1348 444 c 0
 1353 439 1356 432 1356 425 c 0x8000f80f0001080840
 1356 418 1353 411 1348 406 c 0
1273 406 m 0
 1268 401 1261 398 1254 398 c 0x8000f80f0001084040
 1246 398 1239 401 1234 406 c 0
 1229 411 1226 418 1226 425 c 0x8000f80f0001082040
 1226 432 1229 439 1234 444 c 0
 1239 449 1246 452 1254 452 c 0x8000f80f0001084040
 1261 452 1268 449 1273 444 c 0
 1278 439 1281 432 1281 425 c 0x8000f80f0001082040
 1281 418 1278 411 1273 406 c 0
1038 294 m 0
 1024 288 1011 282 1002 275 c 1
 1016 264 1029 252 1042 241 c 0
 1054 230 1068 216 1083 200 c 1
 1098 210 1110 221 1120 233 c 0
 1128 245 1133 257 1133 269 c 0x8000f80f00010c0040
 1133 276 1129 283 1122 290 c 0
 1114 297 1100 301 1080 301 c 0
 1067 301 1054 298 1038 294 c 0
EndSplineSet
EndChar

StartChar: uniFBCF
Encoding: 64463 64463 19
Width: 2066
GlyphClass: 1
Flags: W
HStem: -314 45<756.332 849.109> -204 45<465.101 546.936> -196 45<266.007 367.33 605.996 684.478 878.759 968.751 1004 1190.59 1248.75 1397.96 1510.57 1718.91> -179 32<731 780.293> -106 40<1822.42 1891> -44 46<1629.84 1771.78> -34 45<257.482 378.179 458.594 519.139 1103.94 1219> -9 27<572.704 636.506> -8 46<770.46 818.176 1420.39 1490.29> 39 55<1215.74 1269.31> 98 46<467.479 535.621 796.34 829.9 830 963.985 1010.83 1403.3 1480.97 1587.99 1588 1653.72> 98 28<638.729 673.903> 248 55<1081.74 1135.31> 283 44<1368.91 1486.28> 380 54<1367.24 1405.76 1442.24 1480.76> 472 45<977.217 1082.81 1149.43 1247.9> 524 44<824.704 922.531> 622 27<661.704 725.385> 671 46<850.949 916> 729 28<730.094 761.28> 808 31<1057.41 1085.49> 826 29<1118.81 1146.98>
VStem: 100 45<51.6116 177.298> 202 46<54.0909 294> 213 46<-143.266 -30.9594 23.132 192.407> 366 30<305 450> 428 42<49.3214 93.8983> 542 44<315 490> 552 45<145.19 390> 610 28<54.6358 97.1455> 675 28<48.2024 97.4437> 686 45<-242.761 -192> 699 28<685.413 725.906> 716 45<338.727 564> 727 45<149.503 429.091> 764 28<679.202 725.014> 777 43<577.43 641.564> 822 45<-116.282 -8.23097> 916 43<617.444 671 712.698 759> 923 45<568.589 671> 962 30<242 387> 973 44<-71 84.0909> 1030 27<839.14 883> 1081 55<248.687 302.259 660.364 787> 1082 30<924 1019> 1091 26<860.188 898 924 997.889> 1092 45<528.229 787> 1149 30<858.199 917.53> 1215 55<39.6869 93.2593> 1229 43<-121.717 -45.03> 1246 45<693 868> 1257 45<523.19 766.182> 1359 55<388.236 425.764> 1360 46<-117.696 -21.8463> 1375 44<617.909 868> 1386 44<475 725.091> 1434 55<388.236 425.764> 1494 44<205.456 274.792> 1503 45<-113.47 -20.4441> 1593 30<434 579> 1661 41<155.435 273.771>
LayerCount: 2
Fore
SplineSet
1287 98 m 2x8867f2642ca100d8
 1138 98 l 1
 1138.04493715 98.3445181784 l 1
 1136.73060265 98.1174205412 1135.38487142 98 1134 98 c 2
 1010.83211679 98 l 1
 1017 -71 l 1
 1062 -25 1118 11 1173 11 c 0
 1234 11 1272 -29 1272 -82 c 0
 1272 -102 1264 -122 1248 -140 c 1
 1272 -149 1298 -151 1321 -151 c 0xaa67f264046140d8
 1346 -151 1374 -150 1399 -147 c 1
 1381 -131 1360 -105 1360 -69 c 0
 1360 -9 1407 37 1457 37 c 0
 1512 37 1548 -15 1548 -64 c 0
 1548 -99 1533 -126 1509 -147 c 1x9843f264046144b8
 1538.7799811 -148.985332073 1572.50150564 -150.970664147 1595.49218748 -150.999675598 c 0
 1672.31105046 -150.897641209 1745.12572416 -126.912634829 1804 -86 c 1
 1776 -60 1732 -44 1682 -44 c 0
 1664 -44 1652 -45 1632 -50 c 1
 1623 -7 l 1
 1643 -1 1663 2 1682 2 c 0
 1779 2 1822 -66 1879 -66 c 2
 1891 -66 l 1
 1895 -106 l 1
 1800 -106 1763 -196 1590 -196 c 0
 1545 -196 1492 -189 1455 -178 c 0
 1449 -180 1443 -182 1437 -184 c 0
 1403 -194 1356 -196 1315 -196 c 0
 1289 -196 1239 -191 1207 -169 c 1
 1201 -172 1194 -174 1188 -176 c 0
 1141 -192 1077 -196 979 -196 c 2
 921 -196 l 2
 907 -196 893 -195 878 -194 c 1
 911 -244 884 -314 809 -314 c 0
 745 -314 694 -274 686 -192 c 1
 673.831987055 -194.433602589 660.34788043 -195.551111498 647.682912842 -195.886335618 c 0
 646.80245493 -195.961381132 645.907663792 -195.999999272 645 -196 c 0
 644.213792263 -196 643.430524468 -195.993385133 642.650336095 -195.980135516 c 0
 641.422040683 -195.993551101 640.204571486 -195.999999956 639 -196 c 1xac43f265046144b8
 639.014524555 -195.869279003 l 1
 612.578537462 -194.700859397 590.027116894 -185.679658642 577 -168 c 1
 563 -193 541 -204 516 -204 c 0xc843f265046144b8
 479 -204 437 -179 410 -140 c 1
 382 -191 360 -196 324 -196 c 0
 234 -196 215 -167 213 -100 c 2xa843f2e5046144b8
 210.921237704 -25.5425141267 l 1
 200.876135286 -23.3227004462 191.216843169 -20.4563161884 182 -17 c 0
 156 -8 137 6 122 26 c 0
 107 44 100 68 100 96 c 0
 100 109 102 124 106 140 c 0
 109 157 115 175 123 194 c 1
 162 178 l 1
 157 163 152 149 150 136 c 0
 146 123 145 111 145 100 c 0
 145 80 151 64 162 51 c 0
 173.912332926 38.0949726636 189.766434622 29.1317140976 209.562305089 23.1319813458 c 1
 202 294 l 1
 248 294 l 1
 256.151710355 14.6186542098 l 1
 262.008371258 14.2062180699 267.969815951 14 274 14 c 0
 303 14 329 17 352 24 c 0
 375 30 394 38 408 50 c 0
 421 60 428 73 428 86 c 0
 428 95 421 104 406 110 c 0
 391 118 371 125 345 132 c 1
 355 178 l 1
 393 163 423 153 444 148 c 0
 465 142 482 139 493 139 c 0
 514 139 528 141 536 145 c 0
 545 149 550 156 551 166 c 0
 552 177 553 191 552 210 c 2xa843f36c04210098
 542 490 l 1
 586 490 l 1xa843f27404210098
 597 215 l 2
 598 189 597 167 592 149 c 0
 587 131 577 117 561 108 c 0
 545 99 521 94 488 94 c 2
 467 94 l 1
 468 91 468 88 469 86 c 0
 470 84 470 81 470 78 c 0
 470 60 462 43 445 26 c 0
 428 9 404 -4 374 -15 c 0
 342 -26 305 -31 262 -31 c 0
 260.488376643 -31 258.982187305 -30.9864149514 257.481573611 -30.9593864782 c 1
 259 -83 l 2
 261 -137 265 -151 329 -151 c 0
 360 -151 367 -133 394 -80 c 0
 429 -9 468 8 494 8 c 0
 531 8 553 -13 580 -80 c 0
 604.73820081 -141.35073801 620.663910078 -150.805692492 650.062102313 -150.996988595 c 0
 662.022555627 -150.979146482 673.877297103 -150.85559253 685 -150 c 1
 691 -39 751 38 803 38 c 0
 839 38 867 4 867 -47 c 0
 867 -80 859 -114 830 -139 c 1
 859 -146 891 -151 926 -151 c 2
 954 -151 l 1
 959 -142 966 -132 973 -124 c 1
 965.532110092 98 l 1xa8d3f2ec04610098
 836 98 l 1
 824 98 l 1
 824.023993492 98.1839501032 l 1
 800.615698142 98.9315940894 781.730381164 101.992958241 768 108 c 0
 753 115 742 125 736 139 c 0
 731 153 728 171 727 193 c 2x8863f2ec24610098
 716 564 l 1
 761 564 l 1x8863f26444210098
 772 210 l 2
 773 193 774 179 777 169 c 0
 780 159 786 152 796 148 c 0
 803.181665054 145.606111649 814.820542339 143.848967902 829.900434859 143.236667256 c 1
 830 144 l 1
 963.98470948 144 l 1
 962 203 l 1
 1007 203 l 1
 1009.15328467 144 l 1
 1139 144 l 2
 1140.79736966 144 1142.44330787 143.899045697 1143.96049614 143.697137091 c 1
 1144 144 l 1
 1292 144 l 2
 1295.26542171 144 1298.03101628 143.666781908 1300.43279588 143.000345601 c 0
 1319.28841588 143.030429476 1338.12907976 145.022778898 1355 148 c 0
 1372 151 1389 156 1404 162 c 1
 1395 173 1386 183 1374 194 c 0
 1364 204 1351 214 1338 224 c 0
 1335 225 1333 228 1331 234 c 0
 1329 238 1327 244 1326 248 c 0x886bf2642ca10098
 1325 254 1324 257 1324 260 c 0
 1324 265 1327 272 1334 280 c 0
 1341 287 1350 295 1362 302 c 0
 1374 309 1388 315 1402 320 c 0
 1418 325 1433 327 1449 327 c 0
 1470 327 1487 324 1500 318 c 0
 1513 311 1523 303 1529 294 c 0
 1535 284 1538 274 1538 263 c 0
 1538 245 1533 227 1522 210 c 0
 1512 192 1498 175 1480 160 c 1
 1495 154 1512 150 1531 147 c 0
 1550 144 1568 143 1586 143 c 0
 1586.67937098 143 1587.34431869 142.985576721 1587.99423069 142.956730163 c 1
 1587.99423069 142.971153442 1588 142.985576721 1588 143 c 1
 1605 143 1619 144 1630 146 c 0
 1641 149 1648 153 1654 160 c 0
 1658 167 1661 177 1661 191 c 0
 1661 204 1658 222 1651 243 c 0
 1644 264 1637 285 1629 306 c 1
 1674 323 l 1
 1679 311 1683 298 1688 282 c 0
 1692 268 1695 253 1698 238 c 0
 1701 223 1702 210 1702 199 c 0
 1702 162 1692 136 1672 121 c 0
 1653 106 1623 98 1582 98 c 1
 1582 98.0035692159 1582.00142769 98.0071384318 1582.00142769 98.0107076477 c 1
 1581.6694769 98.003519992 1581.33561845 98 1581 98 c 0
 1556 98 1531 101 1506 106 c 0
 1481 112 1458 121 1438 133 c 1
 1418 122 1396 114 1372 108 c 0
 1347 101 1321 98 1294 98 c 1
 1294.14629234 99.0971925367 l 1
 1291.86098048 98.3808056593 1289.49395785 98 1287 98 c 2x8867f2642ca100d8
1109 248 m 0x884bf26404310098
 1094 248 1081 260 1081 275 c 0
 1081 290 1094 303 1109 303 c 0
 1124 303 1136 290 1136 275 c 0
 1136 260 1124 248 1109 248 c 0x884bf26404310098
1623 434 m 1
 1593 434 l 1
 1590 579 l 1
 1620 579 l 1
 1623 434 l 1
432 -98 m 1
 457 -140 491 -159 516 -159 c 0xc843f26404210098
 541 -159 557 -139 543 -106 c 0
 530 -73 516 -36 491 -37 c 0
 474 -37 455 -51 432 -98 c 1
1164 356 m 1
 1041 320 l 1
 1041 351 l 1
 1164 387 l 1
 1164 356 l 1
992 242 m 1x8843f26406a10098
 962 242 l 1
 959 387 l 1
 989 387 l 1
 992 242 l 1x8843f26406a10098
1779 405 m 1
 1559 353 l 1
 1559 398 l 1
 1779 451 l 1
 1779 405 l 1
1163 -294 m 1
 914 -356 l 1
 914 -311 l 1
 1163 -248 l 1
 1163 -294 l 1
668 17 m 0
 644 2 613 -7 574 -9 c 1
 569 18 l 1
 584 19 598 20 610 23 c 0
 622 26 632 29 640 33 c 1
 631 38 624 44 618 52 c 0
 613 59 610 68 610 79 c 0
 610 92 614 103 624 112 c 0
 632 121 644 126 658 126 c 0
 673 126 684 121 692 111 c 0
 699 101 703 90 703 77 c 0x8953f26604210098
 703 52 691 32 668 17 c 0
644 92 m 0
 640 89 638 84 638 79 c 0
 638 73 640 67 645 62 c 0
 650 56 655 51 662 48 c 1
 671 56 675 65 675 75 c 0
 675 82 674 87 670 92 c 0
 668 96 663 98 657 98 c 0
 652 98 647 96 644 92 c 0
811 -269 m 0
 830 -269 853 -259 853 -230 c 0
 853 -202 836 -179 773 -179 c 0
 761 -179 746 -181 731 -184 c 1x9843f26504210098
 739 -257 783 -269 811 -269 c 0
799 -8 m 0x98c3f26404210098
 778 -8 733 -65 729 -147 c 1
 783 -139 822 -117 822 -52 c 0
 822 -36 816 -8 799 -8 c 0x98c3f26404210098
1243 39 m 0
 1228 39 1215 51 1215 66 c 0
 1215 81 1228 94 1243 94 c 0
 1258 94 1270 81 1270 66 c 0x8843f26404218098
 1270 51 1258 39 1243 39 c 0
1170 -34 m 0xaa43f26404214098
 1106 -34 1038 -106 1004 -151 c 1
 1042 -151 l 2
 1171 -151 1229 -129 1229 -82 c 0
 1229 -63 1212 -34 1170 -34 c 0xaa43f26404214098
1406 -70 m 0x8943f264042104b8
 1406 -99 1427 -121 1449 -134 c 1
 1479 -121 1503 -99 1503 -67 c 0
 1503 -42 1483 -9 1456 -9 c 0
 1429 -9 1406 -40 1406 -70 c 0x8943f264042104b8
396 305 m 1
 366 305 l 1
 363 450 l 1
 393 450 l 1
 396 305 l 1
1092 816 m 0x8843f66404230098
 1085 811 1076 808 1066 808 c 0
 1051 808 1042 813 1037 822 c 0
 1032 832 1030 843 1030 854 c 0
 1030 858 1030 862 1030 866 c 0
 1031 871 1032 876 1033 883 c 1
 1060 890 l 1
 1058 877 1057 867 1057 859 c 0
 1057 846 1062 839 1071 839 c 0
 1076 839 1081 842 1084 847 c 0
 1088 852 1090 864 1091 881 c 2
 1091 898 l 1
 1117 908 l 1
 1117 874 l 2x8843fa6404250098
 1117 869 1118 864 1120 860 c 0
 1122 857 1126 855 1133 855 c 0
 1140 855 1144 857 1146 861 c 0
 1148 865 1149 870 1149 877 c 0
 1149 883 1148 889 1147 896 c 0
 1146 902 1144 908 1141 914 c 1
 1166 922 l 1
 1169 915 1172 907 1175 898 c 0
 1178 889 1179 881 1179 874 c 0
 1179 862 1176 851 1168 841 c 0
 1162 831 1151 826 1137 826 c 0
 1125 826 1115 829 1108 836 c 1
 1105 828 1099 821 1092 816 c 0x8843f66404230098
1115 924 m 1
 1085 924 l 1
 1082 1019 l 1
 1112 1019 l 1x8843f26404290098
 1115 924 l 1
1430 475 m 1x8843f26404210198
 1386 475 l 1x8843f26404210198
 1375 868 l 1
 1419 868 l 1x8843f26404210298
 1430 475 l 1x8843f26404210198
1090 482 m 0
 1075 475 1054 472 1027 472 c 0
 1003 472 982 476 966 484 c 0
 948 493 937 508 930 529 c 1
 911 524 892 522 874 524 c 0
 855 524 839 528 824 534 c 0
 809 540 798 548 790 559 c 0
 781 570 777 583 777 598 c 0
 777 617 783 635 796 652 c 0
 808 669 824 683 846 694 c 0
 866 705 890 713 916 717 c 1
 915 759 l 1
 959 759 l 1x8843f2640e211098
 968 577 l 2
 969 560 972 547 977 538 c 0
 982 530 990 524 999 522 c 0
 1008 518 1020 517 1033 517 c 0
 1054 517 1068 519 1076 523 c 0
 1085 527 1090 534 1091 544 c 0x8843f26405250098
 1092 555 1093 569 1092 588 c 2
 1085 787 l 1
 1130 787 l 1
 1137 589 l 2
 1138 570 1141 556 1146 545 c 0
 1151 534 1158 527 1168 523 c 0
 1176 519 1187 517 1198 517 c 0
 1219 517 1233 519 1242 523 c 0
 1250 527 1255 534 1256 544 c 0
 1257 555 1258 569 1257 588 c 2x8843f26404231098
 1246 868 l 1
 1291 868 l 1x8843f26404212098
 1302 593 l 2x8843f26404211098
 1303 567 1301 545 1296 527 c 0
 1292 509 1282 495 1266 486 c 0
 1250 477 1225 472 1192 472 c 0
 1173 472 1159 476 1148 483 c 0
 1137 490 1129 499 1124 509 c 1
 1117 497 1105 488 1090 482 c 0
890 568 m 0
 902 568 913 569 923 571 c 1x8843f2640d210098
 918 671 l 1
 897 669 880 664 865 657 c 0
 850 650 839 641 832 632 c 0
 824 623 820 614 820 605 c 0
 820 596 823 589 830 584 c 0
 837 579 845 575 856 572 c 0
 867 569 878 568 890 568 c 0
1966 90 m 1
 1652 28 l 1
 1652 73 l 1
 1966 136 l 1
 1966 90 l 1
756 648 m 0
 733 633 702 624 663 622 c 1
 658 649 l 1
 673 650 687 651 699 654 c 0
 711 657 721 660 729 664 c 1
 720 669 713 675 708 682 c 0
 702 690 699 699 699 710 c 0
 699 723 704 734 712 743 c 0
 722 752 733 757 747 757 c 0
 762 757 773 752 780 742 c 0
 788 732 792 721 792 708 c 0x8843f26494210098
 792 683 780 663 756 648 c 0
732 724 m 0
 729 720 727 715 727 710 c 0
 727 704 729 698 734 692 c 0
 739 687 744 682 751 679 c 1
 760 687 764 696 764 706 c 0
 764 713 762 718 760 722 c 0
 756 727 752 729 746 729 c 0
 741 729 736 727 732 724 c 0
1481 388 m 0
 1476 383 1469 380 1462 380 c 0
 1454 380 1447 383 1442 388 c 0
 1437 393 1434 400 1434 407 c 0
 1434 414 1437 421 1442 426 c 0
 1447 431 1454 434 1462 434 c 0
 1469 434 1476 431 1481 426 c 0
 1486 421 1489 414 1489 407 c 0
 1489 400 1486 393 1481 388 c 0
1406 388 m 0x8843f26404210498
 1401 383 1394 380 1387 380 c 0
 1379 380 1372 383 1367 388 c 0
 1362 393 1359 400 1359 407 c 0x8843f26404210898
 1359 414 1362 421 1367 426 c 0
 1372 431 1379 434 1387 434 c 0
 1394 434 1401 431 1406 426 c 0x8843f26404210498
 1411 421 1414 414 1414 407 c 0x8843f26404210898
 1414 400 1411 393 1406 388 c 0x8843f26404210498
1400 276 m 0
 1384 270 1372 264 1363 257 c 1
 1377 246 1390 234 1402 223 c 0
 1415 212 1429 198 1444 182 c 1
 1459 192 1472 203 1480 215 c 0
 1490 227 1494 239 1494 251 c 0
 1494 258 1490 265 1482 272 c 0
 1475 279 1461 283 1441 283 c 0x8847f264042100d8
 1428 283 1414 280 1400 276 c 0
EndSplineSet
EndChar

StartChar: uniFBD0
Encoding: 64464 64464 20
Width: 2284
GlyphClass: 1
Flags: W
HStem: -279 45<1313.44 1386.55> -161 44<501.322 581.439> -154 45<189.798 390.926 640.797 742.441 803.804 903.534 960.216 1055.24 1109.77 1206.13 1364.16 1448.62> -79 55<1583.69 1637.31 1659.74 1713.31> -10 46<1374.5 1439.71> 7 45<180.781 385.474 494.727 555.558> 26 45<1496.95 1620.21 1678.47 1816.76 1878.2 2019.48> 71 45<718.379 739.984 787.546 884.62 963.969 1150.4> 132 45<467.479 535.621> 227 45<1370.75 1435 2024.47 2126.95> 257 45<850.53 974.558> 324 45<1126.24 1330.97> 342 55<864.687 918.259 940.687 994.259> 442 46<1807 2001.75> 450 45<1415.52 1497.62 1559.2 1657.98> 572 45<924.179 1030.28 1096.48 1194.42> 612 45<1912.01 2024.71> 624 44<771.704 870> 771 46<798.216 863> 786 31<1627.41 1655.49> 804 29<533 547.5 1688.81 1716.98> 850 31<699.435 707 748.409 777.153> 868 29<809.806 838.184> 908 31<1004.41 1033.15> 926 29<1065.81 1094.18>
VStem: 100 45<89.6116 215.298> 366 30<343 488> 428 42<87.3214 131.898> 542 44<425.727 728> 552 45<183.19 555.273> 653 46<397.091 770> 664 46<124.451 550.364> 721 27<881.14 925> 724 43<677.43 741.768> 736 46<119.732 245> 745 46<-97.2265 71.2342 119.732 216.346> 782 26<902.188 940> 840 30<900.199 959.53> 864 55<342.687 396.259 668.589 771> 865 41<717.444 771 813.541 859> 930 41<-73.8601 -8.12195> 940 55<342.687 396.259> 977 44<179.02 251.145> 977 27<939.14 983> 1032 45<773.286 887> 1032 30<1024 1119> 1038 26<960.188 998> 1043 46<403.786 539.056 624.868 804.5> 1077 42<-78.0963 -1.66667> 1096 30<958.199 1017.53> 1155 42<122.498 250.594> 1193 45<793 968> 1204 45<623.19 866.182> 1212 43<-102.787 28.6652> 1294 44<132.458 197.132> 1318 44<-107.783 -21.3073 784.6 968> 1333 44<575 825.091> 1376 41<406.248 449.753> 1435 43<172.667 227 269.323 315> 1442 45<122.464 227> 1457 43<-110.157 -26.8906> 1491 46<650.9 849> 1501 45<507.669 764.1> 1583 55<-78.3131 -24.7407> 1600 27<817.14 861> 1645 43<110.852 178.465> 1659 55<-78.3131 -24.7407> 1661 26<838.188 876> 1688 40<536.478 596.75> 1719 30<836.199 895.53> 1810 46<205.667 425> 1819 46<83.6686 362.111> 1964 46<119.25 211.926> 2036 43<518.56 600.821>
LayerCount: 2
Fore
SplineSet
2119 392 m 1x908000700000000000c0
 1945 341 l 1
 1945 367 l 1
 2119 418 l 1
 2119 392 l 1x908000700000000000c0
1662 794 m 0
 1655 789 1646 786 1636 786 c 0
 1621 786 1612 791 1607 800 c 0
 1602 810 1600 821 1600 832 c 0
 1600 836 1600 840 1600 844 c 0
 1601 849 1602 854 1603 861 c 1
 1630 868 l 1
 1628 855 1627 845 1627 837 c 0
 1627 824 1632 817 1641 817 c 0x908012700000000094c0
 1646 817 1651 820 1654 825 c 0
 1658 830 1660 842 1661 859 c 2
 1661 876 l 1
 1687 886 l 1
 1687 852 l 2
 1687 847 1688 842 1690 838 c 0
 1692 835 1696 833 1703 833 c 0
 1710 833 1714 835 1716 839 c 0
 1718 843 1719 848 1719 855 c 0
 1719 861 1718 867 1717 874 c 0
 1716 880 1714 886 1711 892 c 1
 1736 900 l 1
 1739 893 1742 885 1745 876 c 0
 1748 867 1749 859 1749 852 c 0
 1749 840 1746 829 1738 819 c 0
 1732 809 1721 804 1707 804 c 0x908008700000000094c0
 1695 804 1685 807 1678 814 c 1
 1675 806 1669 799 1662 794 c 0
2012 772 m 1
 1661 671 l 1
 1661 697 l 1
 2012 798 l 1
 2012 772 l 1
783 858 m 0
 776 853 767 850 757 850 c 0
 742 850 733 855 728 864 c 0
 723 874 721 885 721 896 c 0x908004708c00000000c0
 721 900 721 904 722 908 c 0
 722 913 723 918 724 925 c 1x908005704000000000c0
 751 932 l 1
 749 919 748 909 748 901 c 0
 748 888 753 881 762 881 c 0x908005708000000000c0
 767 881 772 884 776 889 c 0
 779 894 781 906 782 923 c 2
 782 940 l 1
 808 950 l 1
 808 916 l 2
 808 911 809 906 811 902 c 0
 813 899 817 897 824 897 c 0
 831 897 835 899 837 903 c 0
 839 907 840 912 840 919 c 0
 840 925 839 931 838 938 c 0
 837 944 835 950 832 956 c 1
 857 964 l 1
 860 957 863 949 866 940 c 0
 869 931 870 923 870 916 c 0x908002708c00000000c0
 870 904 866 893 860 883 c 0
 852 873 842 868 828 868 c 0
 816 868 806 871 799 878 c 1
 796 870 790 863 783 858 c 0
707 855 m 1
 533 804 l 1x90800c700000000000c0
 533 830 l 1
 707 881 l 1
 707 855 l 1
1062 1024 m 1x908000700004000000c0
 1032 1024 l 1
 1029 1119 l 1
 1059 1119 l 1
 1062 1024 l 1x908000700004000000c0
1039 916 m 0
 1032 911 1023 908 1013 908 c 0
 998 908 989 913 984 922 c 0
 979 932 977 943 977 954 c 0
 977 958 977 962 978 966 c 0
 978 971 979 976 980 983 c 1
 1007 990 l 1
 1005 977 1004 967 1004 959 c 0
 1004 946 1009 939 1018 939 c 0
 1023 939 1028 942 1032 947 c 0x908001700014400000c0
 1035 952 1037 964 1038 981 c 2
 1038 998 l 1
 1064 1008 l 1
 1064 974 l 2
 1064 969 1065 964 1067 960 c 0
 1069 957 1073 955 1080 955 c 0
 1087 955 1091 957 1093 961 c 0
 1095 965 1096 970 1096 977 c 0
 1096 983 1095 989 1094 996 c 0
 1093 1002 1091 1008 1088 1014 c 1
 1113 1022 l 1
 1116 1015 1119 1007 1122 998 c 0
 1125 989 1126 981 1126 974 c 0
 1126 962 1122 951 1116 941 c 0
 1108 931 1098 926 1084 926 c 0x908000f00002400000c0
 1072 926 1062 929 1055 936 c 1
 1052 928 1046 921 1039 916 c 0
837 668 m 0x908060704100000000c0
 849 668 860 669 870 671 c 1x908060704400000000c0
 865 771 l 1
 844 769 827 764 812 757 c 0
 797 750 786 741 778 732 c 0
 771 723 767 714 767 705 c 0
 767 696 770 689 777 684 c 0
 784 679 792 675 803 672 c 0
 814 669 825 668 837 668 c 0x908060704100000000c0
1037 582 m 0
 1022 575 1001 572 974 572 c 0
 950 572 930 576 912 584 c 0
 896 593 884 608 877 629 c 1
 858 624 839 622 820 624 c 0
 802 624 786 628 771 634 c 0
 756 640 745 648 736 659 c 0x908160702000080000c0
 728 670 724 683 724 698 c 0
 724 717 730 735 742 752 c 0
 755 769 772 783 792 794 c 0
 814 805 837 813 863 817 c 1
 862 859 l 1
 906 859 l 1
 915 677 l 2
 916 660 919 647 924 638 c 0
 929 630 937 624 946 622 c 0
 955 618 967 617 980 617 c 0
 1001 617 1015 619 1024 623 c 0
 1032 627 1037 634 1038 644 c 0x908160704102000000c0
 1039 655 1040 669 1039 688 c 2
 1032 887 l 1
 1077 887 l 1
 1084 689 l 2
 1085 670 1088 656 1093 645 c 0
 1098 634 1106 627 1114 623 c 0
 1124 619 1134 617 1145 617 c 0
 1166 617 1180 619 1188 623 c 0
 1197 627 1202 634 1203 644 c 0
 1204 655 1205 669 1204 688 c 2x908160700008080000c0
 1193 968 l 1
 1238 968 l 1x908160700000100000c0
 1249 693 l 2
 1250 667 1248 645 1244 627 c 0
 1239 609 1229 595 1213 586 c 0
 1197 577 1172 572 1139 572 c 0x908160700000080000c0
 1120 572 1106 576 1095 583 c 0
 1084 590 1076 599 1071 609 c 1
 1064 597 1052 588 1037 582 c 0
1377 575 m 1x908000700000008000c0
 1333 575 l 1
 1322 968 l 1
 1366 968 l 1
 1377 575 l 1x908000700000008000c0
1734 -173 m 1
 1560 -224 l 1
 1560 -198 l 1
 1734 -147 l 1
 1734 -173 l 1
617 -199 m 1
 443 -250 l 1
 443 -224 l 1
 617 -173 l 1
 617 -199 l 1
396 343 m 1
 366 343 l 1
 363 488 l 1
 393 488 l 1x908400700000000000c0
 396 343 l 1
122 64 m 0
 107 82 100 106 100 134 c 0
 100 147 102 162 106 178 c 0
 109 195 115 213 123 232 c 1
 162 216 l 1
 157 201 152 187 150 174 c 0
 146 161 145 149 145 138 c 0
 145 118 151 102 162 89 c 0
 174 76 190 67 210 61 c 0
 229 55 251 52 274 52 c 0
 303 52 329 55 352 62 c 0
 375 68 394 76 408 88 c 0
 421 98 428 111 428 124 c 0
 428 133 421 142 406 148 c 0
 391 156 371 163 345 170 c 1
 355 216 l 1
 393 201 423 191 444 186 c 0
 465 180 482 177 493 177 c 0
 514 177 528 179 536 183 c 0
 545 187 550 194 551 204 c 0
 552 215 553 229 552 248 c 2x958000740000000000c0
 542 728 l 1
 586 728 l 1x958000780000000000c0
 597 253 l 2
 598 227 597 205 592 187 c 0
 587 169 577 155 561 146 c 0
 545 137 521 132 488 132 c 2
 467 132 l 1
 468 129 468 126 469 124 c 0
 470 122 470 119 470 116 c 0
 470 98 462 81 445 64 c 0
 428 47 404 34 374 23 c 0
 342 12 305 7 262 7 c 0x958000740000000000c0
 233 7 206 12 182 21 c 0
 156 30 137 44 122 64 c 0
549 -6 m 0
 543 1 536 4 527 4 c 0
 519 4 510 0 500 -9 c 0
 491 -18 480 -33 469 -56 c 1
 482 -77 496 -93 511 -102 c 0
 526 -112 540 -117 552 -117 c 0xd08000740000000000c0
 565 -117 574 -112 580 -103 c 0
 586 -94 586 -81 580 -65 c 0
 575 -54 570 -43 566 -32 c 0
 560 -21 555 -13 549 -6 c 0
586 -152 m 0xb080007810a2a40000c0
 576 -158 565 -161 553 -161 c 0
 534 -161 515 -155 496 -144 c 0
 477 -132 460 -116 447 -97 c 1
 430 -120 409 -135 384 -144 c 0
 359 -152 332 -156 303 -156 c 0
 283 -156 263 -155 242 -152 c 0
 222 -149 202 -146 183 -143 c 1
 189 -105 l 1
 206 -106 224 -108 244 -108 c 0
 262 -110 280 -110 296 -110 c 0
 315 -110 332 -108 350 -104 c 0
 366 -101 382 -94 396 -84 c 0
 410 -74 422 -59 432 -39 c 0
 443 -16 454 2 466 15 c 0
 478 28 490 36 501 41 c 0
 512 46 522 48 531 48 c 0
 543 48 554 45 563 40 c 0
 572 35 581 26 590 13 c 0
 598 0 607 -17 616 -39 c 0
 624 -59 632 -74 638 -84 c 0
 646 -94 653 -101 660 -104 c 0
 666.928833665 -106.969500142 675.817207572 -108.959230162 685.695312542 -108.999382973 c 0
 747.992600896 -108.888656679 746.992614532 -93.7932045733 745 -38 c 2
 741.479388639 72.7036683421 l 1
 680.284192974 79.7803569688 666.582847119 109.177363378 664 166 c 2xd080007910a2a40000c0
 653 770 l 1
 699 770 l 1xd08000720000000000c0
 710 184 l 2
 711.448937729 144.878681326 714.472440863 126.751568068 739.983775617 119.732388924 c 1
 736 245 l 1
 782 245 l 1xd08000712000000000c0
 786.115184575 116.057549987 l 1
 822.764851462 116.748503395 856.626906983 123.629770445 886 135 c 1
 868 156 846 178 819 197 c 0
 812 203 805 226 805 234 c 0
 805 257 866 302 932 302 c 0
 995 302 1021 270 1021 237 c 0
 1021 200 999 163 963 133 c 1
 994 121 1033 116 1070 116 c 0
 1135 116 1155 119 1155 164 c 0
 1155 192 1139 238 1123 281 c 1
 1168 297 l 1
 1182 261 1197 206 1197 173 c 0
 1197 98 1158 71 1064 71 c 0
 1015 71 960 82 920 106 c 1
 883.112089787 85.7116493831 836.869243876 73.0773370654 787.545717322 71.234190575 c 1
 791 -37 l 2
 792 -94 818 -109 852 -109 c 0
 900 -109 906 -105 930 1 c 1
 971 -10 l 1
 967 -29 959 -58 959 -79 c 0
 959 -98 971 -109 1008 -109 c 0
 1052 -109 1060 -104 1077 5 c 1
 1119 -3 l 1
 1116 -23 1109 -60 1109 -79 c 0
 1109 -95 1116 -109 1160 -109 c 0
 1192 -109 1212 -99 1212 -61 c 0
 1212 -33 1197 13 1181 56 c 1
 1226 72 l 1
 1240 36 1255 -19 1255 -52 c 0
 1255 -121 1218 -154 1159 -154 c 0
 1118 -154 1096 -144 1086 -121 c 1
 1068 -149 1047 -154 1001 -154 c 0xb9a0007010a2a40000c0
 978 -154 947 -148 935 -117 c 1xd080007010a2a40000c0
 916 -149 888 -154 847 -154 c 0xb080007010a2a40000c0
 809 -154 788 -138 778 -117 c 1xd080007010a2a40000c0
 763 -142 734 -154 680 -154 c 0
 666 -154 653 -152 641 -147 c 0
 629 -142 619 -135 612 -126 c 1
 605 -138 597 -147 586 -152 c 0xb080007810a2a40000c0
1362 -74 m 0x988000700000010800c0
 1362 -98 1375 -112 1411 -112 c 0
 1426 -112 1443 -110 1457 -105 c 0
 1457 -103 1457 -100 1457 -98 c 0
 1457 -52 1438 -10 1407 -10 c 0
 1381 -10 1362 -44 1362 -74 c 0x988000700000010800c0
1315 -279 m 1
 1305 -234 l 1
 1375 -224 1429 -207 1449 -150 c 1
 1436 -154 1421 -156 1406 -156 c 0
 1350 -156 1318 -133 1318 -85 c 0
 1318 -29 1355 36 1411 36 c 0
 1471 36 1500 -31 1500 -101 c 0
 1500 -205 1437 -265 1315 -279 c 1
1338 160 m 0x90c000700000021000c0
 1338 125 1400 117 1442 125 c 1
 1437 227 l 1
 1373 220 1338 187 1338 160 c 0x90c000700000021000c0
1611 -79 m 0
 1595 -79 1583 -67 1583 -52 c 0
 1583 -37 1595 -24 1611 -24 c 0
 1626 -24 1638 -37 1638 -52 c 0x908000700000000100c0
 1638 -67 1626 -79 1611 -79 c 0
1687 -79 m 0x908000700000000010c0
 1672 -79 1659 -67 1659 -52 c 0x908000700000000020c0
 1659 -37 1672 -24 1687 -24 c 0x908000700000000010c0
 1702 -24 1714 -37 1714 -52 c 0x908000700000000020c0
 1714 -67 1702 -79 1687 -79 c 0x908000700000000010c0
845 231 m 1
 873 208 896 187 926 155 c 1
 958 176 977 201 977 225 c 0
 977 239 963 257 923 257 c 0x90a000700020000000c0
 898 257 863 246 845 231 c 1
891 342 m 0x908800700200000000c0
 876 342 864 354 864 369 c 0x909000700200000000c0
 864 384 876 397 891 397 c 0x908800700200000000c0
 906 397 919 384 919 369 c 0x909000700200000000c0
 919 354 906 342 891 342 c 0x908800700200000000c0
967 342 m 0x908800700040000000c0
 952 342 940 354 940 369 c 0x909000700040000000c0
 940 384 952 397 967 397 c 0x908800700040000000c0
 982 397 995 384 995 369 c 0x909000700040000000c0
 995 354 982 342 967 342 c 0x908800700040000000c0
1043 452 m 0x909200700001004208c0
 1043 479 1051 511 1067 550 c 1
 1107 535 l 1
 1095 504 1089 478 1089 456 c 0
 1089 394 1149 369 1220 369 c 0
 1306 369 1376 401 1376 441 c 0
 1376 461 1344 473 1291 488 c 1x909400700001004208c0
 1302 534 l 1
 1378 504 1418 495 1441 495 c 0
 1504 495 1502 510 1501 566 c 2x908200700001004208c0
 1491 849 l 1
 1537 849 l 1x908200700000000400c0
 1546 567 l 2
 1548 510 1574 495 1608 495 c 0
 1660 495 1668 522 1688 605 c 1
 1728 595 l 1
 1721 569 1717 546 1717 536 c 0
 1717 515 1725 502 1761 495 c 1x908200700000000208c0
 1809 570 1894 657 1981 657 c 0
 2041 657 2079 617 2079 564 c 0
 2079 498 2028 442 1871 442 c 0x908480700000000208c0
 1752 442 1708 457 1694 491 c 1
 1667 453 1637 450 1602 450 c 0
 1564 450 1543 466 1533 487 c 1
 1519 462 1489 450 1436 450 c 2
 1415 450 l 1
 1416 443 1417 440 1417 434 c 0
 1417 379 1339 324 1208 324 c 0
 1119 324 1043 365 1043 452 c 0x909200700001004208c0
1977 612 m 0x908480700000000000c0
 1910 612 1839 534 1807 490 c 1
 1828 489 1852 488 1881 488 c 0
 1979 488 2036 512 2036 559 c 0
 2036 583 2019 612 1977 612 c 0x908480700000000000c0
1553 71 m 0x92c000700000001000c0
 1627 71 1626 87 1645 186 c 1
 1688 177 l 1
 1684 157 1677 128 1677 110 c 0
 1677 88.0474045663 1674.01291459 71.0732848172 1759.44531248 71.0002401155 c 0
 1822.99070037 71.0699653362 1820.99535019 86.1301912693 1819 142 c 2x92c000700000001041c0
 1810 425 l 1
 1856 425 l 1x92c000700000000002c0
 1865 143 l 2
 1867 86 1893 71 1927 71 c 0
 1997 71 2014 73 2021 74 c 1
 2001 85 1964 115 1964 166 c 0
 1964 229 2012 272 2079 272 c 0
 2096 272 2116 269 2134 263 c 1
 2124 221 l 1
 2109 225 2092 227 2079 227 c 0
 2038 227 2010 203 2010 166 c 0
 2010 118 2068 90 2100 91 c 1
 2118 96 2125 98 2168 117 c 1
 2184 77 l 1
 2109 46 2037 26 1921 26 c 0
 1883 26 1862 42 1852 63 c 1
 1838 38 1808 26 1754 26 c 0
 1682 26 1662 38 1654 62 c 1
 1632 32 1604 26 1547 26 c 0
 1499 26 1463 40 1449 83 c 1
 1370 64 1294 92 1294 152 c 0
 1294 212 1357 260 1435 273 c 1
 1433 315 l 1
 1478 315 l 1x92c000700000022001c0
 1487 132 l 2
 1490 80 1513 71 1553 71 c 0x92c000700000001000c0
EndSplineSet
EndChar

StartChar: uniFBD1
Encoding: 64465 64465 21
Width: 2208
GlyphClass: 1
Flags: W
HStem: -327 42<1080.33 1116.18> -306 55<782.741 836.313 859.687 913.259> -210 45<454.431 779.161> -201 45<892.526 1058.51 1260.58 1357.74 1414.42 1509.06 1563.89 1661.6 1725.55 1835.77> -14 46<802.266 871.517> 43 55<1475.69 1529.31 1550.74 1604.31> 50 42<592.167 625.751> 75 55<481.687 535.259> 89 55<766.69 820.313> 104 55<1513.69 1567.26> 133 45<1182.39 1341.12> 176 45.0004<302.918 482.23 771.799 953.018> 191 55<1634.69 1688.26> 259 45.0006<585.975 654 903.167 985.663 1448.22 1621.01 1775.12 1943.58> 328 46<393.84 535.422> 335 37<1215.53 1249.82> 349 40<1765.05 1793> 357 35<1289.83 1324.28> 377 46<176.753 241> 411 46<909.723 975.472 1531.84 1673.42> 457 55<801.741 855.313> 460 45<1948.73 2051.45> 508 27<334.704 398.106> 524 46.0004<880.543 994.119 1055.16 1161.75> 615 28<403.183 435.468> 704 37<1428.53 1462.82> 726 46<754.101 819> 726 35<555.833 621.855 1502.83 1537.28> 836 28<624.183 654.585> 909 37<944.527 978.818> 931 35<1018.83 1053.28>
VStem: 100 44<282.848 347.132> 241 43<322.667 377 419.323 465> 248 45<272.464 377> 372 28<571.112 611.906> 379 46<-138.125 -17.1979> 437 28<565.202 614.413> 481 55<75.6869 129.259> 593 28<792.347 832.429> 658 28<786.202 832.491> 677 44<631.349 696.05> 743 45<-121.507 -26.4758> 766 55<89.6869 143.259> 782 55<-305.313 -251.741> 801 55<457.687 511.259> 819 43<671.111 726 768.323 815> 826 45<621.398 726> 853 44<313.802 399.693> 859 55<-305.313 -251.741> 885 46<-119.798 -25.2136> 911 33<946.514 999> 978 37<1049 1164> 985 32<973.189 1017> 987 47<758 875> 992 44<310.732 396.739 589.044 734.6> 1056 35<973.235 1036.67> 1063 42<-149.502 -21.406> 1103 45<210.279 348.957> 1153 46<729.273 875> 1164 46<575.101 789.909> 1182 33<372.514 425> 1256 32<399.189 443> 1284 45<653.545 875> 1295 45<527 748.455> 1327 35<399.235 462.671> 1384 41<-120.86 -55.3902 544 658> 1393 42<316.781 421.231> 1395 33<741.514 794> 1469 32<768.189 812> 1475 55<43.6869 97.2593> 1513 55<104.687 158.259> 1531 42<-125.096 -48.6667> 1540 35<768.235 831.671> 1550 55<43.6869 97.2593> 1634 55<191.687 245.259> 1660 40<-107.78 -9.475> 1828 45<21.0909 198> 1838 46<-150.604 96.9091> 1889 45<352.25 444.926> 1958 45<-54.6364 198> 1969 45<-199 53.6364>
LayerCount: 2
Fore
SplineSet
604 475 m 1x080400890e0000000002
 481 439 l 1
 481 470 l 1
 604 506 l 1
 604 475 l 1x080400890e0000000002
1715 670 m 1
 1496 606 l 1
 1492 637 l 1
 1711 701 l 1
 1715 670 l 1
1629 532 m 1
 1506 496 l 1
 1506 527 l 1
 1629 563 l 1
 1629 532 l 1
1470 713 m 0
 1461 707 1451 704 1439 704 c 0
 1421 704 1409 710 1403 722 c 0
 1398 733 1395 746 1395 759 c 0
 1395 764 1395 769 1396 775 c 0
 1396 780 1397 787 1399 794 c 1
 1432 803 l 1
 1429 788 1428 775 1428 765 c 0
 1428 749 1434 741 1445 741 c 0
 1451 741 1457 744 1461 751 c 0
 1466 758 1468 772 1469 793 c 2
 1469 812 l 1
 1501 824 l 1
 1501 784 l 2x080400c90e0000001882
 1501 778 1502 772 1504 768 c 0
 1507 763 1512 761 1520 761 c 0
 1528 761 1533 763 1536 768 c 0
 1538 773 1540 779 1540 787 c 0
 1540 794 1539 802 1537 809 c 0
 1535 817 1533 825 1530 832 c 1
 1560 842 l 1
 1564 833 1568 824 1571 813 c 0
 1574 802 1575 792 1575 783 c 0
 1575 769 1571 755 1563 744 c 0
 1555 732 1542 726 1524 726 c 0x080400990e0000000482
 1510 726 1499 730 1490 738 c 1
 1486 728 1479 720 1470 713 c 0
1257 344 m 0
 1248 338 1238 335 1226 335 c 0
 1208 335 1196 341 1190 353 c 0
 1185 364 1182 377 1182 390 c 0
 1182 395 1182 400 1183 406 c 0
 1183 411 1184 418 1186 425 c 1
 1219 434 l 1
 1216 419 1215 406 1215 396 c 0
 1215 380 1221 372 1232 372 c 0x080500890e00000c8002
 1238 372 1244 375 1248 382 c 0
 1253 389 1255 403 1256 424 c 2
 1256 443 l 1
 1288 455 l 1
 1288 415 l 2
 1288 409 1289 403 1291 399 c 0
 1294 394 1299 392 1307 392 c 0
 1315 392 1320 394 1323 399 c 0
 1325 404 1327 410 1327 418 c 0
 1327 425 1326 433 1324 440 c 0
 1322 448 1320 456 1317 463 c 1
 1347 473 l 1
 1351 464 1355 455 1358 444 c 0
 1361 433 1362 423 1362 414 c 0
 1362 400 1358 386 1350 375 c 0
 1342 363 1329 357 1311 357 c 0x080440890e00000c8002
 1297 357 1286 361 1277 369 c 1
 1273 359 1266 351 1257 344 c 0
405 610 m 0
 402 606 400 601 400 596 c 0x080400892e0000000002
 400 590 402 584 407 578 c 0
 411 573 417 568 424 565 c 1
 432 573 437 582 437 592 c 0
 437 599 435 604 432 608 c 0
 429 613 425 615 419 615 c 0
 413 615 409 613 405 610 c 0
429 534 m 0
 406 519 374 510 336 508 c 1
 331 535 l 1x080402892e0000000002
 346 536 360 537 372 540 c 0
 384 543 394 546 402 550 c 1
 393 555 386 561 380 568 c 0
 375 576 372 585 372 596 c 0
 372 609 376 620 385 629 c 0
 394 638 406 643 420 643 c 0
 434 643 446 638 453 628 c 0
 461 618 465 607 465 594 c 0
 465 569 453 549 429 534 c 0
626 830 m 0
 623 827 621 822 621 817 c 0
 621 811 623 805 628 800 c 0
 632 794 638 789 645 786 c 1
 653 794 658 803 658 813 c 0x080400890f0000000002
 658 820 656 825 653 830 c 0
 650 834 646 836 640 836 c 0
 634 836 630 834 626 830 c 0
650 755 m 0
 627 740 595 731 557 729 c 1
 552 756 l 1
 567 757 581 758 593 761 c 0x080400990f0000000002
 605 764 615 767 623 771 c 1
 614 776 607 782 601 790 c 0
 596 797 593 806 593 817 c 0
 593 830 597 841 606 850 c 0
 615 859 627 864 641 864 c 0
 655 864 667 859 674 849 c 0
 682 839 686 828 686 815 c 0
 686 790 674 770 650 755 c 0
1015 1049 m 1x080400890e0010000002
 978 1049 l 1
 974 1164 l 1
 1011 1164 l 1
 1015 1049 l 1x080400890e0010000002
986 918 m 0
 977 912 967 909 955 909 c 0
 937 909 925 915 919 927 c 0
 914 938 911 951 911 964 c 0
 911 969 911 974 912 980 c 0
 912 985 913 992 915 999 c 1
 948 1008 l 1
 945 993 944 980 944 970 c 0
 944 954 950 946 961 946 c 0
 967 946 973 949 977 956 c 0
 982 963 984 977 985 998 c 2
 985 1017 l 1
 1017 1029 l 1
 1017 989 l 2x0804008d0e0029000002
 1017 983 1018 977 1020 973 c 0
 1023 968 1028 966 1036 966 c 0
 1044 966 1049 968 1052 973 c 0
 1054 978 1056 984 1056 992 c 0
 1056 999 1055 1007 1053 1014 c 0
 1051 1022 1049 1030 1046 1037 c 1
 1076 1047 l 1
 1080 1038 1084 1029 1087 1018 c 0
 1090 1007 1091 997 1091 988 c 0
 1091 974 1087 960 1079 949 c 0
 1071 937 1058 931 1040 931 c 0x0804008b0e0003000002
 1026 931 1015 935 1006 943 c 1
 1002 933 995 925 986 918 c 0
721 658 m 0x080400990ea200000002
 721 623 784 616 826 624 c 1
 821 726 l 1
 757 719 721 686 721 658 c 0x080400990ea200000002
1295 527 m 1x080400890e0000010002
 1284 875 l 1
 1329 875 l 1x080400890e0000020002
 1340 527 l 1
 1295 527 l 1x080400890e0000010002
794 89 m 0x088400890e2000000002
 778 89 766 101 766 116 c 0
 766 131 778 144 794 144 c 0
 809 144 821 131 821 116 c 0
 821 101 809 89 794 89 c 0x088400890e2000000002
788 -76 m 0x080400890e4040000002
 788 -106 811 -126 834 -139 c 1
 863 -126 885 -105 885 -74 c 0
 885 -49 865 -14 838 -14 c 0
 811 -14 788 -46 788 -76 c 0x080400890e4040000002
579 -210 m 0x280400891e4450800002
 447 -210 379 -179 379 -97 c 0
 379 -70 387 -38 395 -10 c 1
 436 -21 l 1
 432 -37 425 -66 425 -85 c 0
 425 -142 461 -165 594 -165 c 0x280400891e4450800002
 675 -165 741 -159 781 -152 c 1
 764 -137 743 -112 743 -75 c 0
 743 -16 789 32 840 32 c 0
 894 32 931 -21 931 -71 c 0
 931 -106 915 -132 891 -152 c 1
 921 -155 955 -156 978 -156 c 0
 1043 -156 1063 -153 1063 -108 c 0
 1063 -80 1048 -34 1031 9 c 1
 1076 25 l 1
 1090 -11 1105 -66 1105 -99 c 0
 1105 -174 1066 -201 973 -201 c 0x180400891e4450800002
 926 -201 879 -195 838 -183 c 0
 832 -185 826 -187 819 -189 c 0
 785 -199 686 -210 579 -210 c 0x280400891e4450800002
810 -306 m 0x480400890e1000000002
 795 -306 782 -294 782 -279 c 0
 782 -264 795 -251 810 -251 c 0
 825 -251 837 -264 837 -279 c 0
 837 -294 825 -306 810 -306 c 0x480400890e1000000002
886 -306 m 0
 871 -306 859 -294 859 -279 c 0
 859 -264 871 -251 886 -251 c 0
 901 -251 914 -264 914 -279 c 0x480400890e0080000002
 914 -294 901 -306 886 -306 c 0
1083 -327 m 1x980400890e0000000086
 1067 -285 l 1
 1175 -249 1207 -190 1207 -139 c 0
 1207 -103 1188 -64 1168 -31 c 1
 1209 -10 l 1
 1229 -50 1244 -87 1252 -115 c 0
 1262 -147 1278 -156 1307 -156 c 0
 1354 -156 1360 -152 1384 -46 c 1
 1425 -57 l 1
 1421 -76 1413 -105 1413 -126 c 0
 1413 -145 1425 -156 1462 -156 c 0
 1506 -156 1514 -151 1531 -42 c 1
 1573 -50 l 1
 1570 -70 1563 -107 1563 -126 c 0
 1563 -142 1570 -156 1614 -156 c 0
 1651 -156 1667 -141 1667 -109 c 0
 1667 -83 1665 -56 1660 -10 c 1
 1700 -7 l 1
 1708.97988615 -125.73405017 1717.95977229 -155.865463125 1778.59179691 -155.999552496 c 0
 1840.99370771 -155.905356349 1839.99371758 -140.824089339 1838 -85 c 2x980400890e0000004116
 1828 198 l 1
 1873 198 l 1x980400890e000000000a
 1884 -80 l 2
 1887 -159 1873 -201 1773 -201 c 0
 1732 -201 1704 -180 1692 -152 c 1
 1677 -191 1645 -201 1609 -201 c 0
 1571 -201 1550 -191 1540 -169 c 1
 1522 -196 1500 -201 1455 -201 c 0
 1432 -201 1402 -195 1389 -164 c 1
 1370 -196 1343 -201 1301 -201 c 0
 1273 -201 1254 -191 1243 -177 c 1
 1227 -260 1139 -314 1083 -327 c 1x980400890e0000000086
1578 43 m 0x0c0400890e0000000042
 1563 43 1550 55 1550 70 c 0
 1550 85 1563 98 1578 98 c 0
 1593 98 1605 85 1605 70 c 0
 1605 55 1593 43 1578 43 c 0x0c0400890e0000000042
1503 43 m 0
 1487 43 1475 55 1475 70 c 0
 1475 85 1487 98 1503 98 c 0
 1518 98 1530 85 1530 70 c 0x0c0400890e0000000402
 1530 55 1518 43 1503 43 c 0
1540 104 m 0x084400890e0000000082
 1525 104 1513 116 1513 131 c 0x084400890e0000000202
 1513 146 1525 159 1540 159 c 0x084400890e0000000082
 1555 159 1568 146 1568 131 c 0x084400890e0000000202
 1568 116 1555 104 1540 104 c 0x084400890e0000000082
1969 -199 m 1x080400890e000000000280
 1958 198 l 1
 2003 198 l 1x080400890e0000000003
 2014 -199 l 1
 1969 -199 l 1x080400890e000000000280
144 310 m 0
 144 275 207 267 248 275 c 1
 243 377 l 1x080420894e0000000002
 179 370 144 337 144 310 c 0
508 75 m 0x090400890e0000000002
 493 75 481 87 481 102 c 0
 481 117 493 130 508 130 c 0
 523 130 536 117 536 102 c 0
 536 87 523 75 508 75 c 0x090400890e0000000002
595 50 m 1x0a1410890e0102000002
 578 92 l 1
 686 128 718 187 718 238 c 0
 718 274 699 313 680 346 c 1
 720 367 l 1
 741 327 755 290 763 262 c 0
 773 230 789 221 818 221 c 0
 855 221 915 221 941 230 c 0
 965 238 978 250 986 271 c 1
 972 267 957 265 942 265 c 0
 885 265 853 295 853 336 c 0
 853 392 890 457 947 457 c 0
 1006 457 1036 390 1036 320 c 0
 1036 265 1018 226 975 200 c 0
 940 180 876 176 812 176 c 0
 784 176 766 186 754 200 c 1
 738 117 650 63 595 50 c 1x0a1410890e0102000002
829 457 m 0x080408890e0800000002
 814 457 801 469 801 484 c 0
 801 499 814 512 829 512 c 0
 844 512 856 499 856 484 c 0
 856 469 844 457 829 457 c 0x080408890e0800000002
897 347 m 0x080410890e0102000002
 897 323 911 309 947 309 c 0
 962 309 978 311 992 316 c 0
 992 318 992 321 992 323 c 0
 992 370 973 411 942 411 c 0
 916 411 897 377 897 347 c 0x080410890e0102000002
1103 261 m 0x082494890e0000402003
 1103 288 1110 320 1126 359 c 1
 1166 344 l 1
 1154 313 1148 287 1148 265 c 0
 1148 208 1199 178 1254 178 c 0
 1363 178 1395 242 1393 316 c 2
 1380 658 l 1
 1426 658 l 1
 1435 376 l 2
 1436.99294757 319.200994324 1462.81693518 304.106308723 1496.64062506 304.000557243 c 0
 1573.40485569 304.133270381 1646.16642016 328.113723912 1706 369 c 1
 1677 395 1634 411 1584 411 c 0
 1565 411 1554 410 1534 405 c 1
 1525 448 l 1
 1545 454 1565 457 1584 457 c 0
 1681 457 1723 389 1781 389 c 2
 1793 389 l 1
 1796 349 l 1
 1784 349 1774 348 1763 345 c 1
 1777 312 1800 304 1851 304 c 0
 1921 304 1938 306 1945 307 c 1
 1925 318 1889 348 1889 399 c 0
 1889 462 1936 505 2003 505 c 0
 2020 505 2040 502 2058 496 c 1
 2049 454 l 1
 2034 458 2016 460 2003 460 c 0
 1963 460 1934 436 1934 399 c 0
 1934 351 1992 323 2024 324 c 1
 2042 329 2050 331 2093 350 c 1
 2108 310 l 1
 2034 279 1961 259 1845 259 c 0
 1786 259 1743 269 1727 333 c 1
 1671 306 1617 259 1491 259 c 0
 1464 259 1448 268 1437 281 c 1
 1427 207 1380 133 1251 133 c 0
 1174 133 1103 180 1103 261 c 0x082494890e0000402003
1661 191 m 0x080c00890e0000000022
 1646 191 1634 203 1634 218 c 0
 1634 233 1646 246 1661 246 c 0
 1676 246 1689 233 1689 218 c 0
 1689 203 1676 191 1661 191 c 0x080c00890e0000000022
936.5390625 570.000357343 m 0x080401a90e0200000002
 999.988744785 570.084798623 997.997184214 585.157683979 997 641 c 2
 987 875 l 1
 1034 875 l 1
 1042 642 l 2
 1044 585 1070 570 1104 570 c 0
 1167 570 1166 585 1164 641 c 2x080401a90e0204100002
 1153 875 l 1
 1199 875 l 1x080401a90e0000200002
 1210 646 l 2
 1213 567 1199 524 1099 524 c 0
 1061 524 1040 541 1030 561 c 1
 1015 537 986 524 931 524 c 0
 883 524 847 538 833 581 c 1
 754 562 677 590 677 651 c 0
 677 711 740 759 819 772 c 1
 817 815 l 1
 862 815 l 1x080401a90e8440100002
 871 630 l 2
 873.988457685 578.200066799 896.823313887 570.062210337 936.5390625 570.000357343 c 0x080401a90e0200000002
358.539062553 221.000396854 m 0x081620894e0000000002
 435.340676779 221.112123959 508.140033261 245.095694147 568 286 c 1
 539 312 496 328 446 328 c 0
 427 328 416 327 396 322 c 1
 387 365 l 1
 407 371 427 374 446 374 c 0
 543 374 585 306 643 306 c 2
 654 306 l 1
 658 266 l 1
 563 266 527 176 353 176 c 0
 305 176 269 190 255 233 c 1
 176 214 100 242 100 302 c 0
 100 362 163 410 241 423 c 1
 239 465 l 1
 284 465 l 1x081620898f0000000002
 293 282 l 2
 295.988457686 230.200066772 318.823313911 221.069890402 358.539062553 221.000396854 c 0x081620894e0000000002
EndSplineSet
EndChar

StartChar: uniFBD2
Encoding: 64466 64466 22
Width: 1540
GlyphClass: 1
Flags: W
HStem: 46 55<678.687 732.259 754.69 808.313> 151 45<445.446 646.889 647 713.903 772.907 911.206 972.088 1113.58> 352 45<318.753 383 1118.95 1221.45> 398 42<979.333 1012.82> 516 45<494.748 576.772> 524 45<302.95 396.63 634.911 803.246 1159.61 1261.98> 614 40<906.975 976> 676 46<714.84 856.422> 683 45<485.293 551> 725 46<176.753 241> 754 31<1072.38 1102.15> 772 30<1135.81 1166.39> 839 55<192.741 246.313> 915 55<192.741 246.313>
VStem: 100 44<630.848 695.132> 192 55<839.69 893.313 915.69 969.313> 242 44<257.848 322.132 682.286 725 767.323 813> 248 45<620.464 725> 383 44<297.667 352 393.44 440> 391 45<247.464 352> 678 55<46.6869 100.259> 754 55<46.6869 100.259> 904 46<351.9 550> 914 45<208.669 465.1> 1044 28<785.237 830> 1059 45<244.25 336.926> 1107 27<808.142 845> 1167 29<802.234 865.529> 1254 45<746.091 923> 1264 46<574.396 821.909> 1384 45<670.364 923> 1395 45<526 778.636>
LayerCount: 2
Fore
SplineSet
1108 762 m 0xf21e0cb0
 1100 757 1092 754 1081 754 c 0
 1067 754 1057 759 1052 769 c 0
 1047 779 1044 789 1044 801 c 0
 1044 805 1045 809 1045 814 c 0
 1046 818 1047 824 1048 830 c 1
 1076 837 l 1
 1074 825 1072 814 1072 806 c 0
 1072 792 1077 785 1087 785 c 0xf22e0cb0
 1092 785 1097 788 1101 793 c 0
 1104 799 1106 811 1107 829 c 2
 1107 845 l 1
 1134 855 l 1
 1134 821 l 2
 1134 816 1135 811 1137 808 c 0
 1139 804 1143 802 1150 802 c 0
 1157 802 1161 804 1163 808 c 0
 1166 812 1167 817 1167 823 c 0
 1167 830 1166 836 1164 843 c 0
 1163 849 1161 856 1158 862 c 1
 1183 870 l 1
 1187 863 1190 855 1193 846 c 0
 1195 836 1196 828 1196 821 c 0
 1196 808 1193 797 1186 787 c 0
 1179 777 1168 772 1154 772 c 0
 1142 772 1132 776 1125 783 c 1
 1121 774 1116 767 1108 762 c 0xf21e0cb0
1107 918 m 1
 728 813 l 1
 736 842 l 1
 1116 947 l 1
 1107 918 l 1
552 799 m 1
 378 748 l 1
 378 774 l 1
 552 825 l 1
 552 799 l 1
642 150 m 2
 493 150 l 1
 493.135497177 151.016228829 l 1
 445.598057069 151.559610705 410.725758533 165.842313077 397 208 c 1
 318 189 242 217 242 277 c 0
 242 337 305 385 383 398 c 1
 382 440 l 1
 427 440 l 1xf20ead70
 436 257 l 2
 438 205 461 196 501 196 c 0
 504.007197321 196 506.661143246 195.646748604 508.988395192 195 c 2
 646.888888889 195 l 1
 647 196 l 1
 721 196 720 212 739 311 c 1
 783 302 l 1
 778 282 771 253 771 235 c 0
 771 213 768 196 854 196 c 0
 917 196 915 211 914 267 c 2xf20e1d30
 904 550 l 1
 950 550 l 1xf20e0e30
 959 268 l 2
 961 211 987 196 1021 196 c 0
 1091 196 1108 198 1115 199 c 1
 1095 210 1059 240 1059 291 c 0
 1059 354 1107 397 1173 397 c 0
 1190 397 1210 394 1228 388 c 1
 1219 346 l 1
 1204 350 1187 352 1173 352 c 0
 1133 352 1104 328 1104 291 c 0xf20e0d70
 1104 243 1162 215 1194 216 c 1
 1212 221 1220 223 1263 242 c 1
 1278 202 l 1
 1204 171 1131 151 1015 151 c 0
 978 151 957 167 947 188 c 1
 932 163 903 151 849 151 c 0
 777 151 757 163 748 187 c 1
 728.080771454 158.54395922 701.863516466 151.681151957 650.573131518 151.050129287 c 0
 647.98430944 150.30946625 645.146887549 150.000000585 642 150 c 2
730 417 m 1
 607 381 l 1
 607 412 l 1
 730 448 l 1
 730 417 l 1
1361 461 m 1
 1238 425 l 1
 1238 456 l 1
 1361 492 l 1
 1361 461 l 1
247 867 m 0xf20f0c30
 247 851 235 839 220 839 c 0
 205 839 192 851 192 867 c 0
 192 882 205 894 220 894 c 0
 235 894 247 882 247 867 c 0xf20f0c30
247 943 m 0
 247 927 235 915 220 915 c 0
 205 915 192 927 192 943 c 0
 192 958 205 970 220 970 c 0
 235 970 247 958 247 943 c 0
144 658 m 0
 144 623 207 615 248 623 c 1
 243 725 l 1xf24e4c30
 179 718 144 685 144 658 c 0
461 622 m 1
 486 580 521 561 545 561 c 0
 571 561 586 580 573 614 c 0
 559 647 546 684 520 683 c 0xfa8e0c30
 503 683 484 669 461 622 c 1
982 398 m 1
 966 440 l 1
 1073 476 1105 535 1105 586 c 0
 1105 622 1086 661 1067 694 c 1
 1107 715 l 1
 1128 675 1142 638 1151 610 c 0
 1160.95725742 578.136776249 1175.87186361 569.077356834 1204.62890619 569.000498468 c 0
 1266.99996655 569.100613344 1266.98998395 584.186962032 1264 640 c 2xf60e0c34
 1254 923 l 1
 1299 923 l 1xf60e0c38
 1310 645 l 2
 1313 566 1299 524 1199 524 c 0xf60e0c34
 1171 524 1153 534 1141 548 c 1
 1126 465 1037 411 982 398 c 1
1395 526 m 1xf20e0c31
 1384 923 l 1
 1429 923 l 1xf20e0c32
 1440 526 l 1
 1395 526 l 1xf20e0c31
286 285 m 0xf20e9c30
 286 250 349 242 391 250 c 1
 386 352 l 1
 322 345 286 312 286 285 c 0xf20e9c30
705 46 m 0
 690 46 678 58 678 73 c 0
 678 88 690 101 705 101 c 0
 720 101 733 88 733 73 c 0
 733 58 720 46 705 46 c 0
782 46 m 0
 766 46 754 58 754 73 c 0
 754 88 766 101 782 101 c 0
 797 101 809 88 809 73 c 0
 809 58 797 46 782 46 c 0
359 569 m 0xf64e4c30
 389 569 397 587 423 640 c 0
 459 710 497 728 523 728 c 0xf68e4c30
 560 728 582 706 609 640 c 0
 633.890922433 578.270512367 650.851502215 569.079544792 679.621093728 569.000519078 c 0
 756.392513694 569.129198002 829.161345628 593.110251415 889 634 c 1
 860 660 817 676 767 676 c 0
 748 676 737 675 717 670 c 1
 708 713 l 1
 728 719 748 722 767 722 c 0
 864 722 906 654 964 654 c 2
 976 654 l 1
 979 614 l 1
 884 614 848 524 674 524 c 0xf70e4c30
 646 524 621 533 606 552 c 1
 592 527 570 516 546 516 c 0xfa0e4c30
 509 516 467 541 440 580 c 1
 411 529 389 524 353 524 c 0
 305 524 269 538 255 581 c 1
 176 562 100 590 100 650 c 0
 100 710 163 758 241 771 c 1
 239 813 l 1
 284 813 l 1
 293 630 l 2
 296 578 319 569 359 569 c 0xf64e4c30
EndSplineSet
EndChar

StartChar: uniFD90
Encoding: 64912 64912 23
Width: 1253
GlyphClass: 1
Flags: W
HStem: -296 55<553.69 607.313 629.69 683.313> -191 45<320.844 589.576 647.913 786.433 847.804 989.219> 10 45<994.256 1096.54> 203 45<494.748 576.772> 211 45<302.95 396.63 634.911 803.246> 301 40<906.975 976> 363 46<714.84 856.422> 370 45<485.293 551> 412 46<176.753 241> 462 46.0004<536.543 649.436 710.804 816.738> 526 55<192.741 246.313> 602 55<192.741 246.313> 663 47<410.753 475> 712 27<267.704 330.671> 819 28<335.906 368.601> 906 36<596.31 629.754> 927 33<667.559 700.227>
VStem: 100 44<317.848 382.132> 117 44<-83.1516 -18.8684> 192 55<526.69 580.313 602.69 656.313> 241 43<357.667 412 454.323 500> 248 45<307.464 412> 260 42<-61.125 11 53.3232 99> 265 45<-93.5362 11> 305 28<775.112 815.906> 334 44<567.747 633.417> 370 28<769.202 818.413> 475 43<608.889 663 706.306 752> 482 45<559.398 663> 553 55<-295.313 -241.741> 565 31<942.512 993> 628 35<1040 1151> 629 55<-295.313 -241.741> 635 30<967.188 1010> 643 46<642.667 862> 652 46<519.751 799.111> 703 34<967.235 1028.67> 780 46<-11.3333 208> 789 46<-134.249 145.111> 808 45<685.091 862> 819 45<513.101 759.091> 934 46<-97.7495 -5.07434 676.733 862> 949 45<465 717.636>
LayerCount: 2
Fore
SplineSet
450 421 m 1xe47e000008
 327 385 l 1
 327 416 l 1
 450 452 l 1
 450 421 l 1xe47e000008
338 814 m 0
 334 810 333 805 333 800 c 0
 333 794 335 788 340 782 c 0
 344 777 350 772 357 769 c 1
 365 777 370 786 370 796 c 0xe47e00a008
 370 803 368 808 365 812 c 0
 362 817 358 819 352 819 c 0
 346 819 342 817 338 814 c 0
362 738 m 0
 338 723 307 714 269 712 c 1
 264 739 l 1
 279 740 293 741 305 744 c 0
 317 747 327 750 335 754 c 1
 326 759 319 765 313 772 c 0
 307 780 305 789 305 800 c 0
 305 813 309 824 318 833 c 0
 327 842 339 847 353 847 c 0
 367 847 378 842 386 832 c 0
 394 822 398 811 398 798 c 0
 398 773 386 753 362 738 c 0
663 1040 m 1xe47e000108
 628 1040 l 1
 625 1151 l 1
 660 1151 l 1
 663 1040 l 1xe47e000108
636 915 m 0
 628 909 618 906 606 906 c 0
 589 906 578 912 573 923 c 0
 567 934 565 946 565 959 c 0
 565 964 565 969 565 974 c 0
 566 979 567 985 568 993 c 1
 599 1001 l 1
 597 986 596 974 596 965 c 0
 596 950 601 942 612 942 c 0
 618 942 624 945 628 951 c 0xe47f000308
 632 957 635 971 635 991 c 2
 635 1010 l 1
 665 1022 l 1
 665 983 l 2xe47f000048
 665 976 667 971 669 967 c 0
 671 963 676 960 684 960 c 0xe47e800088
 692 960 697 963 699 967 c 0
 701 972 703 978 703 986 c 0
 703 993 702 1000 700 1007 c 0
 699 1015 696 1022 693 1029 c 1
 722 1038 l 1
 726 1030 730 1020 733 1010 c 0
 736 1000 737 991 737 983 c 0
 737 969 733 956 725 944 c 0
 717 933 705 927 689 927 c 0xe47e800028
 675 927 664 931 655 938 c 1
 651 929 645 921 636 915 c 0
378 596 m 0xe47e004808
 378 561 440 554 482 562 c 1
 477 663 l 1
 413 656 378 623 378 596 c 0xe47e004808
949 465 m 1xe47e00000820
 938 862 l 1
 983 862 l 1
 994 465 l 1
 949 465 l 1xe47e00000820
161 -56 m 0xe47e220008
 161 -91 224 -99 265 -91 c 1xe47e210008
 260 11 l 1
 197 4 161 -29 161 -56 c 0xe47e220008
581 -296 m 0
 565 -296 553 -284 553 -269 c 0
 553 -254 565 -241 581 -241 c 0
 596 -241 608 -254 608 -269 c 0xe47e000408
 608 -284 596 -296 581 -296 c 0
657 -296 m 0
 641 -296 629 -284 629 -269 c 0
 629 -254 641 -241 657 -241 c 0
 672 -241 684 -254 684 -269 c 0xe47e000088
 684 -284 672 -296 657 -296 c 0
247 554 m 0xe47e100008
 247 538 235 526 220 526 c 0
 205 526 192 538 192 554 c 0
 192 569 205 581 220 581 c 0
 235 581 247 569 247 554 c 0xe47e100008
247 630 m 0
 247 614 235 602 220 602 c 0
 205 602 192 614 192 630 c 0
 192 645 205 657 220 657 c 0
 235 657 247 645 247 630 c 0
144 345 m 0xe4fe440008
 144 310 207 302 248 310 c 1
 243 412 l 1
 179 405 144 372 144 345 c 0xe4fe440008
461 309 m 1
 486 267 521 248 545 248 c 0
 571 248 586 267 573 301 c 0
 559 334 546 371 520 370 c 0xf57e000008
 503 370 484 356 461 309 c 1
899 95 m 1
 890 139 l 1
 1007 156 1043 211 1051 260 c 0
 1056 290 1052 314 1031 373 c 1
 1074 386 l 1
 1094 334 1098 288 1093 257 c 0
 1074 141 959 100 899 95 c 1
592.53515625 508.000363449 m 0
 654.994312538 508.085521562 653.994320602 523.159023111 652 579 c 2xe47e000818
 643 862 l 1
 689 862 l 1xe47e000028
 698 580 l 2
 699 523 725 508 759 508 c 0
 822 508 821 523 819 579 c 2xe47e00001880
 808 862 l 1
 853 862 l 1xe47e000009
 864 584 l 2
 868 505 854 462 754 462 c 0
 716 462 695 479 685 500 c 1
 670 475 641 462 587 462 c 0
 539 462 503 476 489 520 c 1
 410 501 334 528 334 589 c 0
 334 648 397 697 475 710 c 1
 473 752 l 1
 518 752 l 1xe47e00500880
 527 568 l 2xe47e000808
 529.988359707 516.201765087 552.821816603 508.062743992 592.53515625 508.000363449 c 0
383.988395192 -146 m 2
 522 -146 l 2
 596 -146 596 -130 615 -31 c 1
 658 -40 l 1
 653 -60 646 -89 646 -107 c 0
 646 -128.952149361 643.013035982 -145.926025358 729.43359376 -145.999760295 c 0
 791.995395684 -145.930796326 790.995400972 -130.871225747 789 -75 c 2xe47e01000a
 780 208 l 1
 826 208 l 1xe47e00000c
 835 -74 l 2
 836 -131 862 -146 896 -146 c 0
 966 -146 983 -144 991 -143 c 1
 971 -132 934 -102 934 -51 c 0
 934 12 982 55 1048 55 c 0
 1066 55 1086 52 1103 46 c 1
 1094 4 l 1
 1079 8 1062 10 1048 10 c 0
 1008 10 980 -14 980 -51 c 0
 980 -99 1037 -127 1070 -126 c 1
 1087 -121 1095 -119 1138 -100 c 1
 1153 -140 l 1
 1079 -171 1006 -191 891 -191 c 0
 853 -191 832 -175 822 -154 c 1
 807 -179 778 -191 724 -191 c 0
 652 -191 632 -179 623 -155 c 1
 602 -185 574 -191 517 -191 c 2
 368 -191 l 1
 368.134283945 -189.992870413 l 1
 321.067806861 -189.631134772 285.818017417 -175.441053495 272 -133 c 1
 193 -152 117 -124 117 -64 c 0
 117 -4 180 44 258 57 c 1
 257 99 l 1
 302 99 l 1xe47e22000a40
 310 -84 l 2xe47e010008
 313 -136 336 -145 376 -145 c 0
 379.007197321 -145 381.661143246 -145.353251396 383.988395192 -146 c 2
359 256 m 0xecfe040008
 389 256 397 274 423 327 c 0
 459 397 497 415 523 415 c 0xed7e040008
 560 415 582 393 609 327 c 0
 633.890922432 265.270512368 650.851502215 256.079544792 679.621093728 256.000519078 c 0
 756.392513693 256.129198002 829.161345627 280.110251414 889 321 c 1
 860 347 817 363 767 363 c 0
 748 363 737 362 717 357 c 1
 708 400 l 1
 728 406 748 409 767 409 c 0
 864 409 906 341 964 341 c 2
 976 341 l 1
 979 301 l 1
 884 301 848 211 674 211 c 0xee7e040008
 646 211 621 220 606 239 c 1
 592 214 570 203 546 203 c 0xf47e040008
 509 203 467 228 440 267 c 1
 411 216 389 211 353 211 c 0
 305 211 269 225 255 268 c 1
 176 249 100 277 100 337 c 0
 100 397 163 445 241 458 c 1
 239 500 l 1
 284 500 l 1xecfe480008
 293 317 l 2
 296 265 319 256 359 256 c 0xecfe040008
EndSplineSet
EndChar

StartChar: uniFD91
Encoding: 64913 64913 24
Width: 1541
GlyphClass: 1
Flags: W
HStem: -203 45<491.189 584.296> -189 55<841.69 895.313 917.69 971.313> -84 45<164.298 228.993 229 378.994 379 419.296 613.759 661.998 662 877.754 936.067 1074.43 1135.5 1182.87 1183 1275.9> -67 32<466.702 517.156> 104 46<505.185 553.176> 118 46<1281.47 1383.52> 254 45<599.748 681.772> 262 45<407.95 501.983 740.369 908.651> 352 40<1011.98 1081> 414 46<819.84 961.422> 421 45<591.31 656.126> 463 46<281.753 346> 513 46.0004<641.543 754.764 815.804 921.738> 577 55<297.741 351.313> 653 55<297.741 351.313> 714 47<515.753 580> 763 27<372.704 435.671> 870 28<438.53 471.718> 957 36<701.31 734.597> 978 33<772.809 805.227>
VStem: 100 46<169.727 416> 111 46<-31.2656 269.091> 205 44<368.848 433.132> 297 55<577.69 631.313 653.69 707.313> 348 42<390.875 463 505.323 551> 353 45<358.464 463> 410 28<826.347 869.207> 439 44<620.366 684.417> 475 28<820.202 866.491> 557 45<-4.96447 103.583> 580 43<659.889 714 757.306 803> 587 45<610.398 714> 670 31<993.512 1044> 733 35<1091 1202> 740 31<1018.19 1061> 748 46<693.667 913> 757 46<570.751 850.111> 808 34<1018.24 1079.67> 841 55<-188.313 -134.741> 913 45<736.091 913> 917 55<-188.313 -134.741> 924 45<564.101 810.091> 1043 45<660.364 913> 1054 45<516 768.636> 1071.33 45.1143<79.8024 162.853 238.558 315> 1156 42<260.172 421.26> 1221 46<10.6939 103.013>
LayerCount: 2
Fore
SplineSet
1382 528 m 1x008fc2208006
 1163 464 l 1
 1159 495 l 1
 1378 559 l 1
 1382 528 l 1x008fc2208006
1385 279 m 1
 1262 243 l 1
 1262 274 l 1
 1385 310 l 1
 1385 279 l 1
372 -84 m 2xa48fc624800e
 223 -84 l 1
 223 -83.9947506526 223.002099739 -83.9895013051 223.002099739 -83.9842519577 c 1
 222.669877916 -83.9947136681 222.335820013 -84 222 -84 c 0
 132 -84 113 -55 111 12 c 2xa48fc624800e
 100 416 l 1
 146 416 l 1xa48fca208006
 157 29 l 2
 159 -25 163 -39 227 -39 c 0
 227.680515052 -39 228.344749218 -39.0180898725 228.992856379 -39.0535771557 c 1
 228.992856379 -39.0357181038 229 -39.0178590519 229 -39 c 1
 377 -39 l 2
 377.679414433 -39 378.344403741 -39.0144251241 378.994355386 -39.0432753723 c 1
 378.994355386 -39.0288502482 379 -39.0144251241 379 -39 c 1
 393 -39 406 -39 419 -39 c 1
 425 73 486 150 538 150 c 0xa88fc6208006
 574 150 602 116 602 64 c 0
 602 32 594 -3 565 -27 c 1
 594 -34 626 -39 661 -39 c 0
 661.336726061 -39 661.669465951 -39.0044290797 661.998238311 -39.0132126698 c 1
 661.998238311 -39.0088084465 662 -39.0044042233 662 -39 c 1
 810 -39 l 2
 884 -39 884 -23 903 76 c 1
 946 67 l 1
 942 47 934 18 934 0 c 0
 934 -21.952262055 932.008670209 -38.9261996334 1017.44140623 -38.9997565167 c 0
 1079.99531242 -38.9295473953 1078.99531791 -23.8689049022 1077 32 c 2
 1072.83858613 162.853347292 l 1
 1047.5720823 152.788703453 1023.02200965 147.585167471 1004 146 c 1
 995 190 l 1
 1025.69924091 194.460573465 1050.8218937 201.537324073 1071.3253755 210.435414959 c 1
 1068 315 l 1
 1114 315 l 1
 1116.43964497 238.557791058 l 1
 1141.01925526 260.545523955 1152.00350193 286.521449328 1156 311 c 0
 1161 341 1157 365 1136 424 c 1
 1179 437 l 1
 1199 385 1203 339 1198 308 c 0
 1188.64174432 250.865386399 1155.99432762 211.925429854 1118.10042226 186.520102398 c 1
 1123 33 l 2
 1123.98889521 -23.3670267237 1149.42563361 -38.6616768792 1182.87029385 -38.9944137855 c 1
 1183 -38 l 1
 1253 -38 1270 -36 1278 -36 c 1
 1258 -24 1221 5 1221 57 c 0
 1221 120 1269 164 1336 164 c 0
 1353 164 1373 160 1391 155 c 1
 1381 112 l 1
 1366 116 1349 118 1336 118 c 0
 1295 118 1267 94 1267 57 c 0
 1267 9 1325 -20 1357 -19 c 1
 1375 -13 1383 -12 1425 8 c 1
 1441 -33 l 1
 1366.53402986 -62.7863880544 1294.03967954 -83.7004869756 1179.4713745 -83.9968102615 c 0
 1179.31464243 -83.9968102615 1179.15751505 -84 1179 -84 c 0
 1178.81731568 -84 1178.63502426 -83.9988954255 1178.45312507 -83.9988954255 c 0
 1177.96949993 -83.9988954255 1177.485126 -84 1177 -84 c 1
 1177 -83.9950267479 1177.00194606 -83.9900534959 1177.00194606 -83.9850802438 c 0
 1140.26145602 -83.4331237395 1119.82333881 -67.6290115051 1110 -47 c 1
 1095 -72 1066 -84 1012 -84 c 0
 940 -84 920 -72 912 -48 c 1
 890 -78 862 -84 805 -84 c 2
 663.845158037 -84 l 2
 661.374932547 -84.6464370198 658.746393437 -85 656 -85 c 0
 642 -85 628 -84 613 -82 c 1
 646 -132 620 -203 544 -203 c 0
 480 -203 428 -163 420 -81 c 1
 405 -83 389 -85 373 -85 c 1
 373.132246988 -83.9861064228 l 1
 372.759317425 -83.9954413543 372.381938035 -84 372 -84 c 2xa48fc624800e
545 -158 m 0
 565 -158 588 -148 588 -119 c 0
 588 -91 570 -67 507 -67 c 0x908fc2208006
 495 -67 481 -69 466 -73 c 1
 474 -146 518 -158 545 -158 c 0
534 104 m 0x188fc2248006
 512 104 468 47 464 -35 c 1
 518 -28 557 -6 557 59 c 0
 557 76 551 104 534 104 c 0x188fc2248006
555 472 m 1
 432 436 l 1
 432 467 l 1
 555 503 l 1
 555 472 l 1
443 864 m 0
 439 861 438 856 438 851 c 0
 438 845 440 839 445 834 c 0
 449 828 455 823 462 820 c 1
 470 828 475 837 475 847 c 0x008fc2288006
 475 854 473 859 470 864 c 0
 467 868 463 870 457 870 c 0
 451 870 447 868 443 864 c 0
467 789 m 0
 443 774 412 765 374 763 c 1
 369 790 l 1
 384 791 398 792 410 795 c 0
 422 798 432 801 440 805 c 1
 431 810 424 816 418 824 c 0
 412 831 410 840 410 851 c 0
 410 864 414 875 423 884 c 0
 432 893 444 898 458 898 c 0
 472 898 483 893 491 883 c 0
 499 873 503 862 503 849 c 0
 503 824 491 804 467 789 c 0
768 1091 m 1x008fc220c006
 733 1091 l 1
 730 1202 l 1
 765 1202 l 1
 768 1091 l 1x008fc220c006
742 966 m 0
 733 960 723 957 711 957 c 0
 694 957 683 963 678 974 c 0
 672 985 670 997 670 1010 c 0
 670 1015 670 1020 670 1025 c 0
 671 1030 672 1036 673 1044 c 1
 704 1052 l 1
 702 1037 701 1025 701 1016 c 0
 701 1001 706 993 717 993 c 0
 723 993 729 996 733 1002 c 0x008fe220c006
 737 1008 740 1022 740 1042 c 2
 740 1061 l 1
 771 1073 l 1
 771 1034 l 2x008fe220a006
 771 1027 772 1022 774 1018 c 0
 776 1014 781 1011 789 1011 c 0
 797 1011 802 1014 804 1018 c 0
 806 1023 808 1029 808 1037 c 0
 808 1044 807 1051 805 1058 c 0
 804 1066 801 1073 798 1080 c 1
 827 1089 l 1
 831 1081 835 1071 838 1061 c 0
 841 1051 842 1042 842 1034 c 0
 842 1020 838 1007 830 995 c 0
 822 984 810 978 794 978 c 0x008fd2209406
 780 978 769 982 760 989 c 1
 756 980 750 972 742 966 c 0
483 647 m 0x008fc2318006
 483 612 546 605 587 613 c 1
 582 714 l 1
 518 707 483 674 483 647 c 0x008fc2318006
1054 516 m 1x008fc2208016
 1043 913 l 1
 1088 913 l 1x008fc2208026
 1099 516 l 1
 1054 516 l 1x008fc2208016
869 -189 m 0x408fc2208206
 853 -189 841 -177 841 -162 c 0
 841 -147 853 -134 869 -134 c 0
 884 -134 896 -147 896 -162 c 0
 896 -177 884 -189 869 -189 c 0x408fc2208206
945 -189 m 0
 929 -189 917 -177 917 -162 c 0
 917 -147 929 -134 945 -134 c 0
 960 -134 972 -147 972 -162 c 0x408fc2208086
 972 -177 960 -189 945 -189 c 0
352 605 m 0x008fc3208006
 352 589 340 577 325 577 c 0
 310 577 297 589 297 605 c 0
 297 620 310 632 325 632 c 0
 340 632 352 620 352 605 c 0x008fc3208006
352 681 m 0
 352 665 340 653 325 653 c 0
 310 653 297 665 297 681 c 0
 297 696 310 708 325 708 c 0
 340 708 352 696 352 681 c 0
249 396 m 0
 249 361 312 353 353 361 c 1x009fc2608006
 348 463 l 1x009fc2a08006
 285 456 249 423 249 396 c 0
566 360 m 1
 591 318 626 299 650 299 c 0
 676 299 691 318 678 352 c 0
 665 385 651 422 625 421 c 0x02afc2208006
 608 421 590 407 566 360 c 1
697.5390625 559.000357343 m 0
 760.988736856 559.084798626 758.994368428 574.157683986 757 630 c 2x008fc2218806
 748 913 l 1
 794 913 l 1x008fc2209006
 803 631 l 2
 804 574 830 559 864 559 c 0
 927 559 926 574 924 630 c 2x008fc2208846
 913 913 l 1
 958 913 l 1x008fc2208106
 969 635 l 2
 973 556 959 513 859 513 c 0
 821 513 800 530 790 551 c 1
 776 526 746 513 692 513 c 0
 644 513 608 527 594 571 c 1
 515 552 439 579 439 640 c 0
 439 699 502 748 580 761 c 1
 578 803 l 1
 623 803 l 1x008fc2328046
 632 619 l 2x008fc2218006
 634.988457685 567.200066799 657.823313887 559.062210338 697.5390625 559.000357343 c 0
464 307 m 0x019fc2608006
 495 307 502 325 528 378 c 0
 564 448 602 466 628 466 c 0x01afc2608006
 665 466 687 444 715 378 c 0
 740 316 756 307 785 307 c 0
 861 307 935 331 994 372 c 1
 965 398 922 414 872 414 c 0
 853 414 842 413 822 408 c 1
 813 451 l 1
 833 457 853 460 872 460 c 0
 969 460 1011 392 1069 392 c 2
 1081 392 l 1
 1085 352 l 1
 990 352 953 262 780 262 c 0x01cfc2608006
 751 262 726 271 711 290 c 1
 697 265 675 254 651 254 c 0x028fc2608006
 614 254 572 279 545 318 c 1
 516 267 495 262 458 262 c 0
 410 262 374 276 360 319 c 1
 281 300 205 328 205 388 c 0
 205 448 268 496 346 509 c 1
 345 551 l 1
 390 551 l 1x019fc2a08006
 398 368 l 2
 401 316 424 307 464 307 c 0x019fc2608006
EndSplineSet
EndChar

StartChar: uniFDC8
Encoding: 64968 64968 25
Width: 1362
GlyphClass: 1
Flags: W
HStem: -308 45<218.986 434.994 435 584.994 585 1204.81> -157.663 44.667<312.985 346.666> -148 45<536.472 584.992 585 688.25 765.705 871.999 872 936.763> 37 44<653.859 771.359> 78 44<1064.57 1133.76> 83 54<802.406 848.719 877.406 923.719> 150 45<645.748 727.772> 158 45.0005<302.839 356.734 402.415 461.138 507.597 547.792 785.911 954.246> 248 40<1057.98 1127> 310 46<865.84 1007.42> 317 45<636.293 702> 359 46<176.753 241> 409 46.0004<496.543 609.436 670.804 776.738> 610 47<370.753 435> 853 36<556.31 589.754> 874 33<627.559 660.227>
VStem: 100 44<264.848 329.132> 170 44<-253.87 -187.589> 241 43<304.667 359 401.323 447> 248 45<254.464 359> 267 30<-18 118> 294 44<514.747 580.417> 353 44<204 349> 363 45<-106.81 158.35 204 296.273> 435 43<555.889 610 653.306 699> 442 45<506.398 610> 462.34 45.2571<107.636 158.019 204 359> 525 31<889.512 940> 585 35<987 1098> 595 30<914.188 957> 603 46<589.667 809> 612 46<466.751 746.111> 663 34<914.235 975.672> 768 45<632.091 809> 779 44<-40.2754 28.7922 460.101 697.8> 802 55<91.2358 128.764> 877 55<91.2358 128.764> 898 45<556.364 809> 909 45<412 664.636> 945 41<-90.5652 27.7709>
LayerCount: 2
Fore
SplineSet
1183 -308 m 2xc08cc19880
 1034 -308 l 1
 1034.01804299 -307.864677556 l 1
 1033.03142929 -307.956994594 1032.026466 -308 1031 -308 c 2
 882 -308 l 1
 882 -307.980611941 882.007755223 -307.961223883 882.007755223 -307.941835824 c 1
 881.347287501 -307.981218615 880.678339097 -308 880 -308 c 2
 731 -308 l 1
 731.018042993 -307.864677556 l 1
 730.031429289 -307.956994594 729.026465996 -308 728 -308 c 2
 579 -308 l 1
 579 -307.995311849 579.001875261 -307.990623697 579.001875261 -307.985935546 c 1
 578.670150098 -307.995385727 578.336228617 -308 578 -308 c 2
 429 -308 l 1
 429 -307.995311849 429.001875261 -307.990623697 429.001875261 -307.985935546 c 1
 428.670150098 -307.995385727 428.336228617 -308 428 -308 c 2
 287 -308 l 2
 262 -310 239 -306 218 -297 c 0
 186 -284 170 -262 170 -233 c 0
 170 -204 184 -178 211 -155 c 0
 236.400516185 -134.303283109 267.11120704 -120.686799111 303.964672428 -113.317948145 c 1
 304 -113 l 2
 304.537254291 -113 305.070900556 -112.995670345 305.60090002 -112.995670345 c 0
 307.38626479 -112.649320642 309.185933692 -112.317461627 311 -112 c 1
 311.039655713 -112.912081391 l 1
 327.528928165 -112.486493814 339.968399967 -110.515800017 347 -107 c 0
 355 -103 360 -96 362 -86 c 0
 363 -75 363 -61 363 -42 c 2xc08cc19880
 357.8759561 158.350116502 l 1
 356.300407489 158.120129278 354.672045431 158 353 158 c 0
 305 158 269 172 255 215 c 1
 176 196 100 224 100 284 c 0
 100 344 163 392 241 405 c 1
 239 447 l 1
 284 447 l 1xc19ce21080
 293 264 l 2
 295.942881263 212.990058104 318.131429481 203.35830016 356.73375902 203.010022317 c 1
 353 349 l 1
 397 349 l 1
 401.132124352 204 l 1
 461.138349515 204 l 1
 457 359 l 1
 502 359 l 1xc19cd21080
 506.316455696 204 l 1
 510 204 l 2
 512.565843008 204 514.925950069 203.794264052 517.047328297 203.382792155 c 0
 541.454173118 206.23389556 550.160972559 225.405059446 574 274 c 0
 610 344 648 362 674 362 c 0x80acd21080
 711 362 733 340 760 274 c 0
 784.890922433 212.270512367 801.851502215 203.079544792 830.621093728 203.000519078 c 0
 907.392513694 203.129198002 980.161345628 227.110251415 1040 268 c 1
 1011 294 968 310 918 310 c 0
 899 310 888 309 868 304 c 1
 859 347 l 1
 879 353 899 356 918 356 c 0
 1015 356 1057 288 1115 288 c 2
 1127 288 l 1
 1130 248 l 1
 1035 248 999 158 825 158 c 0x81ccd21080
 797 158 772 167 757 186 c 1
 743 161 721 150 697 150 c 0
 660 150 618 175 591 214 c 1
 562.978469547 164.72075679 541.492543354 158.389770144 507.59694896 158.01865097 c 1
 513 -36 l 2
 513 -53 515 -67 518 -77 c 0
 520 -87 526 -94 536 -98 c 0
 546 -101 561 -103 583 -103 c 0
 583.682851723 -103 584.346671345 -103.019032101 584.99238716 -103.057096303 c 1
 584.99238716 -103.038064202 585 -103.019032101 585 -103 c 1
 604 -103 622 -101 640 -98 c 0
 657 -95 673 -90 689 -84 c 1
 680 -73 670 -63 659 -52 c 0
 648 -42 636 -32 623 -22 c 0
 620 -21 618 -18 616 -12 c 0
 614 -8 612 -2 611 2 c 0
 609 8 609 11 609 14 c 0
 609 19 612 26 619 34 c 0
 625 41 635 49 647 56 c 0
 659 63 672 69 687 74 c 0
 702 79 718 81 734 81 c 0
 754 81 771 78 785 72 c 0
 798 65 808 57 814 48 c 0
 820 38 823 28 823 17 c 0
 823 -1 817 -19 807 -36 c 0
 797 -54 783 -71 765 -86 c 1
 780 -92 797 -96 816 -99 c 0
 834 -102 853 -103 871 -103 c 0
 871.338166972 -103 871.670973465 -103.003573653 871.998570539 -103.010720959 c 1
 871.998570539 -103.007147306 872 -103.003573653 872 -103 c 1
 889 -103 903 -102 914 -100 c 0
 924 -97 932 -93 937 -86 c 0
 942 -79 945 -69 945 -55 c 0
 945 -42 941 -24 935 -3 c 0
 928 18 921 39 913 60 c 1
 958 77 l 1
 962 65 967 52 971 36 c 0
 975 22 979 7 982 -8 c 0
 984 -23 986 -36 986 -47 c 0
 986 -84 976 -110 956 -125 c 0
 936 -140 906 -148 866 -148 c 0
 841 -148 816 -145 791 -140 c 0
 765 -134 743 -125 723 -113 c 1
 703 -124 680 -132 656 -138 c 0
 632 -145 606 -148 579 -148 c 1
 579 -147.985015361 579.005993855 -147.970030723 579.005993855 -147.955046084 c 1
 578.35107028 -147.985429893 577.682820193 -148 577 -148 c 0
 547 -148 525 -145 509 -138 c 0
 493 -131 483 -121 477 -107 c 0
 471 -93 468 -75 468 -53 c 2
 462.339805825 159 l 1
 402.414507772 159 l 1
 408 -37 l 2
 409 -63 407 -85 403 -103 c 0xb28cc138a1
 398 -121 388 -135 372 -144 c 0
 358.411539311 -151.643509138 338.331608407 -156.401920402 312.985333508 -157.662670683 c 1
 313 -158 l 1
 283 -162 258 -170 240 -184 c 0
 222 -197 214 -211 214 -225 c 0
 214 -242 226 -253 250 -259 c 0
 262 -262 274 -263 287 -263 c 2
 433 -263 l 2
 433.686365434 -263 434.350648172 -263.014721797 434.994111281 -263.044165391 c 1
 434.994111281 -263.029443594 435 -263.014721797 435 -263 c 1
 583 -263 l 2
 583.686365434 -263 584.350648172 -263.014721797 584.994111281 -263.044165391 c 1
 584.994111281 -263.029443594 585 -263.014721797 585 -263 c 1
 733 -263 l 2
 734.415175918 -263 735.736474202 -263.06258509 736.974965964 -263.18775527 c 2
 737 -263 l 1
 885 -263 l 2
 886.045166857 -263 887.039128695 -263.03413668 887.986345328 -263.10241004 c 2
 888 -263 l 1
 1036 -263 l 2
 1037.41517592 -263 1038.7364742 -263.06258509 1039.97496596 -263.18775527 c 2
 1040 -263 l 1
 1188 -263 l 2
 1196 -263 1201 -265 1205 -269 c 0
 1208 -273 1210 -278 1210 -284 c 0
 1210 -290 1207 -296 1202 -300 c 0
 1196 -306 1190 -308 1183 -308 c 2xc08cc19880
924 91 m 0
 918 86 912 83 905 83 c 0
 897 83 890 86 885 91 c 0
 879 96 877 103 877 110 c 0
 877 117 879 124 885 129 c 0
 890 134 897 137 905 137 c 0
 912 137 918 134 924 129 c 0
 929 124 932 117 932 110 c 0x848cc01088
 932 103 929 96 924 91 c 0
849 91 m 0
 843 86 837 83 830 83 c 0
 822 83 815 86 810 91 c 0
 804 96 802 103 802 110 c 0
 802 117 804 124 810 129 c 0
 815 134 822 137 830 137 c 0
 837 137 843 134 849 129 c 0
 854 124 857 117 857 110 c 0x848cc01090
 857 103 854 96 849 91 c 0
684 30 m 0
 669 24 657 18 648 11 c 1
 662 0 675 -12 687 -23 c 0
 699 -34 713 -48 729 -64 c 1
 744 -54 756 -43 765 -31 c 0
 774 -19 779 -7 779 5 c 0
 779 12 775 19 767 26 c 0
 759 33 746 37 726 37 c 0x908cc010a0
 713 37 699 34 684 30 c 0
297 -18 m 1x808cc81080
 267 -18 l 1x808cc81080
 264 118 l 1
 294 118 l 1x808cc41080
 297 -18 l 1x808cc81080
1132 445 m 1
 1009 409 l 1
 1009 440 l 1
 1132 476 l 1
 1132 445 l 1
623 987 m 1
 588 987 l 1
 585 1098 l 1
 620 1098 l 1x808cc01880
 623 987 l 1
596 862 m 0
 588 856 578 853 566 853 c 0
 549 853 538 859 533 870 c 0
 527 881 525 893 525 906 c 0
 525 911 525 916 525 921 c 0
 526 926 527 932 528 940 c 1
 559 948 l 1
 557 933 556 921 556 912 c 0
 556 897 561 889 572 889 c 0
 578 889 584 892 588 898 c 0
 592 904 595 918 595 938 c 2
 595 957 l 1
 625 969 l 1
 625 930 l 2x808ec01480
 625 923 627 918 629 914 c 0
 631 910 636 907 644 907 c 0
 652 907 657 910 659 914 c 0
 661 919 663 925 663 933 c 0
 663 940 662 947 660 954 c 0
 659 962 656 969 653 976 c 1
 682 985 l 1
 686 977 690 967 693 957 c 0
 696 947 697 938 697 930 c 0
 697 916 693 903 685 891 c 0
 677 880 665 874 649 874 c 0x808dc01280
 635 874 624 878 615 885 c 1
 611 876 605 868 596 862 c 0
338 543 m 0x808cc45080
 338 508 400 501 442 509 c 1
 437 610 l 1
 373 603 338 570 338 543 c 0x808cc45080
909 412 m 1x808cc01082
 898 809 l 1
 943 809 l 1x808cc01084
 954 412 l 1
 909 412 l 1x808cc01082
144 292 m 0
 144 257 207 249 248 257 c 1
 243 359 l 1x809cd01080
 179 352 144 319 144 292 c 0
612 256 m 1x82acc01180
 637 214 672 195 696 195 c 0
 722 195 737 214 724 248 c 0
 710 281 697 318 671 317 c 0
 654 317 635 303 612 256 c 1x82acc01180
1066 78 m 1x88ccc01080
 1057 122 l 1
 1174 139 1210 194 1218 243 c 0
 1223 273 1219 297 1198 356 c 1
 1241 369 l 1
 1261 317 1265 271 1260 240 c 0
 1241 124 1126 83 1066 78 c 1x88ccc01080
552.53515625 455.000363449 m 0
 614.994312538 455.085521562 613.994320602 470.159023111 612 526 c 2x808cc05180
 603 809 l 1
 649 809 l 1x808cc01280
 658 527 l 2
 659 470 685 455 719 455 c 0
 782 455 781 470 779 526 c 2x808cc011a0
 768 809 l 1
 813 809 l 1
 824 531 l 2
 828 452 814 409 714 409 c 0
 676 409 655 426 645 447 c 1
 630 422 601 409 547 409 c 0
 499 409 463 423 449 467 c 1
 370 448 294 475 294 536 c 0
 294 595 357 644 435 657 c 1
 433 699 l 1
 478 699 l 1x808cc490c0
 487 515 l 2x808cc05080
 489.988359707 463.201765087 512.821816603 455.062743992 552.53515625 455.000363449 c 0
EndSplineSet
EndChar

StartChar: uniFDC9
Encoding: 64969 64969 26
Width: 1885
GlyphClass: 1
Flags: W
HStem: -80 45<686.788 742.998 743 892.994 893 1194 1194 1251.86 1310.39 1477.58> 53 45<761.696 928.474 1008.16 1194.9> 81 45<180.781 385.474> 121 45<560.313 625 1482.95 1585.45> 137 55<1258.69 1312.31> 206 45<467.479 535.621> 221 45<1523 1660.89> 239 45<894.542 1019.06> 309 55<1023.74 1077.31 1099.74 1153.31> 420 45<998.587 1203.13> 538 46<1513 1707.75> 546 45<1288.5 1363.77> 679 46<732.838 846.42 907.944 1014.2> 708 45<1617.81 1731.62> 785 55<1579.74 1633.31> 881 46<606.101 671> 942 27<485.704 549.385> 1049 28<554.094 585.28> 1064 37<796.531 831.328> 1086 35<870.74 905.457>
VStem: 100 45<163.612 289.298> 273 30<476 621> 428 42<161.321 205.898> 484 43<26.8484 91.1316> 523 28<1005.41 1045.91> 529 44<786.349 851.05> 542 44<427 602> 552 45<257.19 502> 588 28<999.202 1045.01> 625 43<66.6667 121 163.323 209> 632 45<16.4638 121> 671 44<826.111 881 922.44 970> 678 46<776.398 881> 698 45<339.818 644> 709 45<105.312 463.636> 763 33<1101.51 1154> 822 30<317 462> 830 37<1204 1319> 837 32<1128.19 1172> 840 46<926 1030> 849 46<736.86 978> 908 35<1128.24 1191.67> 916 45<499.786 635.957> 1006 45<884.273 1030> 1022 43<162.387 233.145 732.577 898.375> 1023 55<309.687 363.259> 1099 55<309.687 363.259> 1136 45<827 1030> 1147 46<682 885> 1199 43<104.498 235.665> 1248 42<501.488 545.753> 1258 55<137.687 191.259> 1394 40<632.478 692.75> 1423 45<13.2505 105.926> 1579 55<785.687 839.259> 1719 46<323.055 456> 1742 43<614.56 696.821>
LayerCount: 2
Fore
SplineSet
1396 772 m 1x80c38e00100042
 1273 736 l 1
 1273 767 l 1
 1396 803 l 1
 1396 772 l 1x80c38e00100042
1568 351 m 1
 1445 315 l 1
 1445 346 l 1
 1568 382 l 1
 1568 351 l 1
1187 -80 m 2
 1038 -80 l 1
 1038 -79.985005675 1038.00599773 -79.97001135 1038.00599773 -79.9550170249 c 1
 1037.35149629 -79.9854206033 1036.68303784 -80 1036 -80 c 2
 887 -80 l 1
 887 -79.9963937004 887.00144252 -79.9927874007 887.00144252 -79.9891811011 c 1
 886.671134671 -79.9964436881 886.337345491 -80 886 -80 c 2
 737 -80 l 2
 689 -80 652 -66 639 -23 c 1
 560 -42 484 -14 484 46 c 0
 484 106 546 154 625 167 c 1
 623 209 l 1
 668 209 l 1x90c38f04510046
 677 26 l 2
 680 -26 702 -35 742 -35 c 0
 742.336726484 -35 742.669466786 -35.0044290908 742.998239549 -35.0132033817 c 1
 742.998239549 -35.0088022544 743 -35.0044011272 743 -35 c 1
 891 -35 l 2
 891.679370983 -35 892.344318686 -35.0144232791 892.994230688 -35.0432698374 c 1
 892.994230688 -35.0288465583 893 -35.0144232791 893 -35 c 1
 1041 -35 l 2
 1042.02940999 -35 1043.02570482 -35.0331151539 1043.98675394 -35.0993454618 c 2
 1044 -35 l 1
 1192 -35 l 2
 1192.67970439 -35 1193.34497134 -35.0144374392 1193.99518752 -35.0433123176 c 1
 1193.99518752 -35.0288748784 1194 -35.0144374392 1194 -35 c 1
 1257 -35 1257 -19 1276 80 c 1
 1319 71 l 1
 1314 51 1307 22 1307 4 c 0
 1307 -18 1316 -35 1385 -35 c 0
 1455 -35 1472 -33 1479 -32 c 1
 1459 -21 1423 9 1423 60 c 0
 1423 123 1471 166 1537 166 c 0
 1554 166 1574 163 1592 157 c 1
 1583 115 l 1
 1568 119 1551 121 1537 121 c 0
 1497 121 1468 97 1468 60 c 0x90c38e02500046
 1468 12 1526 -16 1558 -15 c 1
 1576 -10 1584 -8 1627 11 c 1
 1642 -29 l 1
 1568 -60 1495 -80 1379 -80 c 0
 1321 -80 1296 -68 1286 -43 c 1
 1264 -74 1238 -80 1189 -80 c 1
 1189 -79.9850212294 1189.00499292 -79.9700424589 1189.00499292 -79.9550636883 c 1
 1188.35081214 -79.9854355211 1187.68268831 -80 1187 -80 c 2
556 1044 m 0
 553 1040 551 1035 551 1030 c 0
 551 1024 553 1018 558 1012 c 0
 563 1007 568 1002 575 999 c 1
 584 1007 588 1016 588 1026 c 0
 588 1033 586 1038 584 1042 c 0
 580 1047 576 1049 570 1049 c 0x80c3ce88100042
 565 1049 560 1047 556 1044 c 0
580 968 m 0
 557 953 526 944 487 942 c 1
 482 969 l 1
 497 970 511 971 523 974 c 0
 535 977 545 980 553 984 c 1
 544 989 537 995 532 1002 c 0
 526 1010 523 1019 523 1030 c 0
 523 1043 528 1054 536 1063 c 0
 546 1072 557 1077 571 1077 c 0
 586 1077 597 1072 604 1062 c 0
 612 1052 616 1041 616 1028 c 0
 616 1003 604 983 580 968 c 0
867 1204 m 1x80c38e00140042
 830 1204 l 1
 826 1319 l 1
 863 1319 l 1
 867 1204 l 1x80c38e00140042
839 1073 m 0
 829 1067 819 1064 807 1064 c 0
 789 1064 777 1070 772 1082 c 0
 766 1093 763 1106 763 1119 c 0
 763 1124 763 1129 764 1135 c 0
 765 1140 766 1147 767 1154 c 1
 800 1163 l 1
 798 1148 796 1135 796 1125 c 0
 796 1109 802 1101 813 1101 c 0
 820 1101 825 1104 830 1111 c 0x80c3ae00144042
 834 1118 836 1132 837 1153 c 2
 837 1172 l 1
 869 1184 l 1
 869 1144 l 2
 869 1138 870 1132 872 1128 c 0
 875 1123 880 1121 888 1121 c 0
 896 1121 901 1123 904 1128 c 0
 907 1133 908 1139 908 1147 c 0
 908 1154 907 1162 905 1169 c 0
 904 1177 901 1185 898 1192 c 1
 928 1202 l 1
 932 1193 936 1184 939 1173 c 0
 942 1162 943 1152 943 1143 c 0
 943 1129 939 1115 931 1104 c 0
 923 1092 910 1086 893 1086 c 0x80c39e00124042
 879 1086 867 1090 858 1098 c 1
 854 1088 848 1080 839 1073 c 0
573 813 m 0x80c38e40900042
 573 778 636 771 678 779 c 1
 673 881 l 1
 609 874 573 841 573 813 c 0x80c38e40900042
1147 682 m 1x80c38e001000c2
 1136 1030 l 1
 1181 1030 l 1x80c38e00100142
 1193 682 l 1
 1147 682 l 1x80c38e001000c2
852 317 m 1x80c38e00180042
 822 317 l 1x80c38e00180042
 819 462 l 1
 849 462 l 1x80c38e00108042
 852 317 l 1x80c38e00180042
303 476 m 1
 273 476 l 1
 270 621 l 1
 300 621 l 1
 303 476 l 1
122 138 m 0
 107 156 100 180 100 208 c 0
 100 221 102 236 106 252 c 0
 109 269 115 287 123 306 c 1
 162 290 l 1
 157 275 152 261 150 248 c 0
 146 235 145 223 145 212 c 0
 145 192 151 176 162 163 c 0
 174 150 190 141 210 135 c 0
 229 129 251 126 274 126 c 0
 303 126 329 129 352 136 c 0
 375 142 394 150 408 162 c 0
 421 172 428 185 428 198 c 0
 428 207 421 216 406 222 c 0
 391 230 371 237 345 244 c 1
 355 290 l 1
 393 275 423 265 444 260 c 0
 465 254 482 251 493 251 c 0
 514 251 528 253 536 257 c 0
 545 261 550 268 551 278 c 0
 552 289 553 303 552 322 c 2xa4c38e90100042
 542 602 l 1
 586 602 l 1xa4c38e20100042
 597 327 l 2
 598 301 597 279 592 261 c 0
 587 243 577 229 561 220 c 0
 545 211 521 206 488 206 c 2
 467 206 l 1
 468 203 468 200 469 198 c 0
 470 196 470 193 470 190 c 0
 470 172 462 155 445 138 c 0
 428 121 404 108 374 97 c 0
 342 86 305 81 262 81 c 0xa4c38e10100042
 233 81 206 86 182 95 c 0
 156 104 137 118 122 138 c 0
527 54 m 0x90c38f02100042
 527 19 590 11 632 19 c 1
 627 121 l 1
 563 114 527 81 527 54 c 0x90c38f02100042
1286 137 m 0x88c38e00100052
 1270 137 1258 149 1258 164 c 0
 1258 179 1270 192 1286 192 c 0
 1301 192 1313 179 1313 164 c 0
 1313 149 1301 137 1286 137 c 0x88c38e00100052
889 213 m 1
 918 190 940 169 970 137 c 1
 1003 158 1022 183 1022 207 c 0
 1022 221 1008 239 968 239 c 0x89c38e00100842
 943 239 907 228 889 213 c 1
1051 309 m 0x80c38e00101042
 1036 309 1023 321 1023 336 c 0x80c38e00100442
 1023 351 1036 364 1051 364 c 0x80c38e00101042
 1066 364 1078 351 1078 336 c 0x80c38e00100442
 1078 321 1066 309 1051 309 c 0x80c38e00101042
1127 309 m 0
 1112 309 1099 321 1099 336 c 0
 1099 351 1112 364 1127 364 c 0
 1142 364 1154 351 1154 336 c 0x80c38e00100242
 1154 321 1142 309 1127 309 c 0
916 548 m 0x80d38e0010206a80
 916 575 923 607 939 646 c 1
 979 631 l 1
 967 600 961 574 961 552 c 0
 961 490 1021 465 1092 465 c 0
 1178 465 1248 497 1248 537 c 0
 1248 557 1217 569 1164 584 c 1x80e38e0010206a80
 1174 630 l 1
 1251 600 1291 591 1314 591 c 0
 1366 591 1374 618 1394 701 c 1
 1434 691 l 1
 1427 665 1422 642 1422 632 c 0
 1422 611 1431 598 1467 591 c 1x80d38e0010206a80
 1515 666 1600 753 1686 753 c 0
 1747 753 1785 713 1785 660 c 0
 1785 594 1734 538 1577 538 c 0x80e78e0010206a80
 1458 538 1414 553 1400 587 c 1
 1373 549 1342 546 1308 546 c 2
 1287 546 l 1
 1289 539 1290 536 1290 530 c 0
 1290 475 1211 420 1080 420 c 0
 992 420 916 461 916 548 c 0x80d38e0010206a80
1607 785 m 0
 1592 785 1579 797 1579 812 c 0
 1579 827 1592 840 1607 840 c 0
 1622 840 1634 827 1634 812 c 0
 1634 797 1622 785 1607 785 c 0
1683 708 m 0x80e78e0010004280
 1616 708 1545 630 1513 586 c 1
 1534 585 1557 584 1587 584 c 0
 1685 584 1742 608 1742 655 c 0
 1742 679 1725 708 1683 708 c 0x80e78e0010004280
1520 221 m 1x82c38e00100043
 1523 266 l 1
 1640 253 1690 297 1710 341 c 0
 1723 370 1724 394 1719 456 c 1
 1765 458 l 1
 1770 402 1763 357 1749 328 c 0
 1701 221 1579 211 1520 221 c 1x82c38e00100043
789 725 m 0x80cb8e00900042
 852 725 851 740 849 796 c 2x80cb8e00908042
 840 1030 l 1
 886 1030 l 1x80cb8e00110042
 895 797 l 2
 895.996550852 740.196601432 922.814055324 725.103974096 956.648437516 725.000535436 c 0
 1018.99996445 725.103768738 1018.98967183 740.19279366 1016 796 c 2
 1006 1030 l 1
 1051 1030 l 1
 1062 801 l 2
 1065 722 1052 679 951 679 c 0
 913 679 892 696 882 716 c 1
 867 692 838 679 784 679 c 0
 735 679 699 693 685 736 c 1
 606 717 529 745 529 806 c 0
 529 866 592 914 671 927 c 1
 669 970 l 1
 715 970 l 1x80cb8e41109042
 724 785 l 2
 726 733 749 725 789 725 c 0x80cb8e00900042
825 98 m 0xd1c38e00300042
 864 98 900 105 930 117 c 1
 913 138 890 160 864 179 c 0
 857 185 849 208 849 216 c 0
 849 239 910 284 976 284 c 0
 1039 284 1065 252 1065 219 c 0
 1065 182 1044 145 1007 115 c 1
 1039 103 1077 98 1114 98 c 0
 1179 98 1199 101 1199 146 c 0
 1199 174 1184 220 1168 263 c 1
 1213 279 l 1
 1227 243 1242 188 1242 155 c 0
 1242 80 1203 53 1109 53 c 0
 1059 53 1004 64 965 88 c 1
 924 66 874 53 819 53 c 0
 730 53 711 82 709 148 c 2xd1c38e00308842
 698 644 l 1
 743 644 l 1xd1c38e00500042
 754 166 l 2
 757 112 761 98 825 98 c 0xd1c38e00300042
EndSplineSet
EndChar

